<?xml version="1.0" encoding="utf-8"?>
<!-- Generator: Adobe Illustrator 17.0.0, SVG Export Plug-In . SVG Version: 6.00 Build 0)  -->
<!DOCTYPE svg PUBLIC "-//W3C//DTD SVG 1.1//EN" "http://www.w3.org/Graphics/SVG/1.1/DTD/svg11.dtd" [
	<!ENTITY ns_flows "http://ns.adobe.com/Flows/1.0/">
	<!ENTITY ns_extend "http://ns.adobe.com/Extensibility/1.0/">
	<!ENTITY ns_ai "http://ns.adobe.com/AdobeIllustrator/10.0/">
	<!ENTITY ns_graphs "http://ns.adobe.com/Graphs/1.0/">
	<!ENTITY ns_vars "http://ns.adobe.com/Variables/1.0/">
	<!ENTITY ns_imrep "http://ns.adobe.com/ImageReplacement/1.0/">
	<!ENTITY ns_sfw "http://ns.adobe.com/SaveForWeb/1.0/">
	<!ENTITY ns_custom "http://ns.adobe.com/GenericCustomNamespace/1.0/">
	<!ENTITY ns_adobe_xpath "http://ns.adobe.com/XPath/1.0/">
]>
<svg version="1.1" id="Слой_1" xmlns:x="&ns_extend;" xmlns:i="&ns_ai;" xmlns:graph="&ns_graphs;"
	 xmlns="http://www.w3.org/2000/svg" xmlns:xlink="http://www.w3.org/1999/xlink" xmlns:a="http://ns.adobe.com/AdobeSVGViewerExtensions/3.0/"
	 x="0px" y="0px" width="768px" height="1024px" viewBox="0 0 768 1024" enable-background="new 0 0 768 1024" xml:space="preserve"
	>
<metadata><?xpacket begin="﻿" id="W5M0MpCehiHzreSzNTczkc9d"?>
<x:xmpmeta xmlns:x="adobe:ns:meta/" x:xmptk="Adobe XMP Core 5.5-c014 79.151739, 2013/04/03-12:12:15        ">
   <rdf:RDF xmlns:rdf="http://www.w3.org/1999/02/22-rdf-syntax-ns#">
      <rdf:Description rdf:about=""
            xmlns:dc="http://purl.org/dc/elements/1.1/"
            xmlns:xmp="http://ns.adobe.com/xap/1.0/"
            xmlns:xmpGImg="http://ns.adobe.com/xap/1.0/g/img/"
            xmlns:xmpMM="http://ns.adobe.com/xap/1.0/mm/"
            xmlns:stRef="http://ns.adobe.com/xap/1.0/sType/ResourceRef#"
            xmlns:stEvt="http://ns.adobe.com/xap/1.0/sType/ResourceEvent#"
            xmlns:illustrator="http://ns.adobe.com/illustrator/1.0/"
            xmlns:xmpTPg="http://ns.adobe.com/xap/1.0/t/pg/"
            xmlns:stDim="http://ns.adobe.com/xap/1.0/sType/Dimensions#"
            xmlns:xmpG="http://ns.adobe.com/xap/1.0/g/"
            xmlns:pdf="http://ns.adobe.com/pdf/1.3/">
         <dc:format>image/svg+xml</dc:format>
         <dc:title>
            <rdf:Alt>
               <rdf:li xml:lang="x-default">william shakespeare</rdf:li>
            </rdf:Alt>
         </dc:title>
         <xmp:CreatorTool>Adobe Illustrator CC (Windows)</xmp:CreatorTool>
         <xmp:CreateDate>2015-05-27T12:14:32+03:00</xmp:CreateDate>
         <xmp:ModifyDate>2015-05-27T12:14:33+03:00</xmp:ModifyDate>
         <xmp:MetadataDate>2015-05-27T12:14:33+03:00</xmp:MetadataDate>
         <xmp:Thumbnails>
            <rdf:Alt>
               <rdf:li rdf:parseType="Resource">
                  <xmpGImg:width>192</xmpGImg:width>
                  <xmpGImg:height>256</xmpGImg:height>
                  <xmpGImg:format>JPEG</xmpGImg:format>
                  <xmpGImg:image>/9j/4AAQSkZJRgABAgEASABIAAD/7QAsUGhvdG9zaG9wIDMuMAA4QklNA+0AAAAAABAASAAAAAEA&#xA;AQBIAAAAAQAB/+4ADkFkb2JlAGTAAAAAAf/bAIQABgQEBAUEBgUFBgkGBQYJCwgGBggLDAoKCwoK&#xA;DBAMDAwMDAwQDA4PEA8ODBMTFBQTExwbGxscHx8fHx8fHx8fHwEHBwcNDA0YEBAYGhURFRofHx8f&#xA;Hx8fHx8fHx8fHx8fHx8fHx8fHx8fHx8fHx8fHx8fHx8fHx8fHx8fHx8fHx8f/8AAEQgBAADAAwER&#xA;AAIRAQMRAf/EAaIAAAAHAQEBAQEAAAAAAAAAAAQFAwIGAQAHCAkKCwEAAgIDAQEBAQEAAAAAAAAA&#xA;AQACAwQFBgcICQoLEAACAQMDAgQCBgcDBAIGAnMBAgMRBAAFIRIxQVEGE2EicYEUMpGhBxWxQiPB&#xA;UtHhMxZi8CRygvElQzRTkqKyY3PCNUQnk6OzNhdUZHTD0uIIJoMJChgZhJRFRqS0VtNVKBry4/PE&#xA;1OT0ZXWFlaW1xdXl9WZ2hpamtsbW5vY3R1dnd4eXp7fH1+f3OEhYaHiImKi4yNjo+Ck5SVlpeYmZ&#xA;qbnJ2en5KjpKWmp6ipqqusra6voRAAICAQIDBQUEBQYECAMDbQEAAhEDBCESMUEFURNhIgZxgZEy&#xA;obHwFMHR4SNCFVJicvEzJDRDghaSUyWiY7LCB3PSNeJEgxdUkwgJChgZJjZFGidkdFU38qOzwygp&#xA;0+PzhJSktMTU5PRldYWVpbXF1eX1RlZmdoaWprbG1ub2R1dnd4eXp7fH1+f3OEhYaHiImKi4yNjo&#xA;+DlJWWl5iZmpucnZ6fkqOkpaanqKmqq6ytrq+v/aAAwDAQACEQMRAD8A9U4q7FXYq7FXYq7FXYq7&#xA;FXYq7FXYqkF8Li68yPp76hPYxmyjmsFgMal5BJItw45o/P0wYdjUDl03xVfYa99WlOm605hv42dY&#xA;7ponjt7lEQyiRJSPS5+kpLpyqpVtuIriqRpp9qdN0LVpY+XmjUbmzuBd8aXH71lluoVJBKwx2plX&#xA;gdgv+XvirOMVdirsVdirsVdirsVdirsVdirsVdirsVdirsVdirsVdirsVcSAQCaE7D3PXFXYqwS8&#xA;0FPN0tzquoam+nfot72zs4bb0Q1sodVaad5lkImJt1lRk4FEagJqWKqt5p1nyPqPl5bLUPMNu6F7&#xA;YvLbSRzTygSKHRYoebETpyjfguyscVTHzFqegXHl06lLpy61bo7JHC8HP05AxjczCRawLEyn1WYV&#xA;ShqK7Yqm+hxCHRdPiFyLwR20KC7U8lm4xgeoDVqh+tanFUbirsVdirsVdirsVdirsVdirsVdirsV&#xA;dirsVdirsVdiriQBU7AdTirEfPSrqXluHWdGvEe60W5TUbCeFvVR5Ig8Mkf7s/HzilkTgCOVaVGK&#xA;pxaa+PUe31S3bTLqKFrlhI6PC0MdBJJHKpoVjLANyCkVG1CDiqV+ZfLmg+c/LN8beKFry9tpYLPU&#xA;Xi4zwzRlglS6iVDFMPiU0IIIIxVj8d5deb/Id15i1m0a3SDTZxa6dMnEC8W2ZLm4Kmp2lLxRf5IL&#xA;ivMUVZhf2l5YaoNV022a5jnVk1OxhZEeVqKIrhBIyRmSMIUbcFlI3PBVxVBaVquk6Mt4NSuYdHt7&#xA;y6luNOs72aKFxEVj9VlRm2Vp/UelduXboFWRTXVrDbtczTJFbKvJpnYKgXxLE0piqVDzdpb3MaRL&#xA;LNZSTC1GqRqrWguGPFYvUDVJL/ByVSnP4C3LbFU6xV2KuxV2KuxV2KuxV2KuxV2KuxV2KuxV2KsK&#xA;0WG9fy/b6lpt1dXOv2IC6rp891JKJriNR9atXjuH9OFmapjZQgB4kH0yQyqO1C+steksNJaOUK92&#xA;w1fTZV4uIoLczFJgOStH6kkAbixVw3HdWIxVT8waJqay6nNp1sklvqEMDSrE/GeO7tmbhcJCyiKZ&#xA;uPpA8pEqIwN9sVdqllrWvaRpF7BBHbz3UHpapa3HqRSRW9/Eq3ATkvL1ITRvTdRy40PE4qhvKNzr&#xA;GraJbS21wNN0tYo3kuxGrz3NxKonuJImlBjSISSMvJo2LnkRQAFlUp8sajrGpXK+V7swrBIseujU&#xA;FJU3NpNePI8cUQUrQzJ8RLbRSKBVvixVlHmjX7BLC/sLa/WPVI4Wb0In4zNxUSPDGw+zM8X2QPiF&#xA;Q3viqL8v2OgiM6rpM7Xcd/FGv1xrqa7EkURcxhXlkloFaV+njiqGsvKSW2oRsZ1fR7R5JtN0oRcU&#xA;glk4nly5kMsbBzEvAcOe32Voqu8zwXa2Fpa6fp7z2xuoZLtbYwqY4YJBcHikjxBi7xhKA1oxbqKF&#xA;VOLK8t72zgvLZi1vcxpNCxBUlJFDKSrAEbHocVVsVdirsVdirsVdirsVdirsVdirsVdiqVeaL+6s&#xA;dGlntpFgbnEkl2681t4nkVZZ2Xv6aEtv8I6t8NcVSW1byta61Dq3+IWvL97do2USW8nrQMwIZ0t4&#xA;wSqMPhIoqmtPtGqqkvmbyRaeZbzUnuJlupVs7KW4lhkW2jNw0gj4OyKB6jQgSNXjsgxVG69rt5Bq&#xA;os3uk0Kyjj9WPVbtVeG4lpX0gSQiooqXDSJIafD8NWxVC2Pn6Z9RtrK709gk9AL6L1UjYNLHAkiJ&#xA;cxQMyNJOgJUsByHEuORCrLbq2t7u2ltbmJZradGinhcBkdHHFlYHYgg0OKvP9at9T8v+YtH1m9Ak&#xA;0HR0voW1ES87n6rPArxQzqwDPwli4qeTcqKzHlXFWX6Lo6RaFa2uoQRyXBHr3qMFdDdSsZZmFRT+&#xA;9diMVQ2nXvkrSp5rLTXsrSS5uA9xDaiNQ1zNxjUyCMcRJJxVRy3bbFU+xVLtft9auNMki0a5jtb1&#xA;itJZFr8FfjVWo4RmXZXKOF68WxVAWHmDSLDS7a09Ca3mtv8AQ10tEe4uIzbotV4xCRmRUZD6nSjL&#xA;v8QxVObG+tb60ivLSQS286h43AIqD4g0II6EHcHY4qr4q7FXYq7FXYq7FXYq7FXYq7FUr1HVb6O+&#xA;Sw060S8uvRa4n9WYwJGnLigLBJTzkblxHGnwtUjaqqJ0rUotSsUu4keIMzxyRSAB45InaKWNqEiq&#xA;SIy1BINNiRviqhrV02m6bNPZwxm8nkjit1YURri4kWGNpONCVDOC9N+IOKsJ82eWBSOCCSSWbTLW&#xA;XULqZ19WS8kmmj9WZo1/vXg+riRY/s19NAAuwVTLyZ5s0f8Aw3ctd3MaQabdfVljZubKzok8dvGD&#xA;VpeBk9KErX1FVWWtcVRVzot5c+VNYu7iF217VrFy8QI5xMsbtb20RGw9F32p+3Vu+Ksmsr21vrOG&#xA;8tJBNbXCCSGVejKwqDviqzUdNsdStTaX0Inti8chiatC0MiypWlK0dAadD32xVLdJ18+YNDln04N&#xA;Yag0I4xXSBjDJLEJIXdVakiEOrDi242qCCAqkujaZo2k6npOhXk82qazHBzhRARa2kNuopIYQwjS&#xA;rUAduUjsevEfCqyzU9Rt9N064v7nkYbaNpHVFLu3EbKijdnY7Ko3J2xVQsPMOh6hIIbO+hluCpY2&#xA;wcCdQuzc4TSRCp2YMoIPXFUj8s6dqMXnHzJeahA1ZDALW648YmQ8/hgrU7QpAsvjIp7cQFUz8nnn&#xA;5etrqgX6+01+IxQ8BezPc+mSNiyerxY9yMVTnFXYq7FXYq7FXYq7FXYq7FUu1vU57GK3W2jSS5vJ&#xA;1toWmYxwozKzcpGAY0olFAHxOVXatQqlQh80W/mmxnmhiuLS4SS2vLy2rGnpqjTRGWCRnZGSUFUZ&#xA;XYEO3IL8OKoddYl0LUtW0kFL66mpf6NZoHSaR7x5i8L09QBEli5NKFAVW+IVHJ1VHXdI1ljpVu+v&#xA;zSatcXSyLGsEP1ceiDKzLCq+osMbhalpuVKIX+PdVOIY301rvXdeuohK0ccIEQYRRRKx4ogYs7yS&#xA;ySb0FW+FQKipVYjpmh+RP8UzXVxYpNFOy22ny3kEkJs55FB+rGG4WNkMisPQlpuo9IFeKBlWTW2j&#xA;eaIri4tY9V9DS7cKdJfis8zcqlorszBmdIiAqFHV2U/E3IciqhI7m58q+U4ZLxLeHV766L3s3xG1&#xA;S5upGlnnlk+HjFGnJqsV2ULWpGKp75e1SfU9N+tTJEjCa4hBgcyRsLed4Q6sQv2/T5U3p4nFWNeV&#xA;dE1m2sI7/T7yL1gi2sljOJ2TjZtJF9XaWSa4ZPTcsFdEH+UhxVBS6lPaTXevJbPFN9fk9e+t0F1Z&#xA;N+6is3t2oYruXk1pGOaQ/DLRfiUNVVEWGseZNa8rRS6rb29tBLIs9xrAkWGCKCGb1XkVHaQjgq8Y&#xA;pA7KxHqVCcaqpxqd/pOtWTW7WN/PF9qC7jtpInikoQssDyqjB1rVXUU+YxVL9O8zarrlpeaFbTHS&#xA;/MtsAn6QntHMTojR+pPHBI0Tq5ilU8JNlZh/eKKlVGNoVjpekrLrmsSx6bYRKqrHM9jbRqKKCWjk&#xA;9Z2PT97K9T/lblVFeXJWt7DULq4eeHS1neWxa/eQypapDGHaQ3H71VMqyOPUNeJHQfCFVfT/ADHH&#xA;d3UMD2N1Zpdo8llPcrGqTKlDRQsjyIxQ8wkiq3Gu1VYBVN8VdirsVdirsVdirsVUL+ws9Qs5bO8i&#xA;Wa2mFJI270NQQRuCCKgjcHcb4qxjULm50q6FtomoT6lfR0EuizBruoIqoe42a1Zh9mSZypH7JO+K&#xA;rvKOsWV/PqGq3WmQ6VqMsMU11dCRJBJbK80UZaai1CGB+lV40YH4qBVEXl1ovmKi6TdxnV7JfrOl&#xA;3wRzHXYExyUVZoW2SYRsdjQ0PHFUhjttT1X8y4ZbtUtm0iGJrqz9WSaCdTHMVlhqqAmOSWGnJRQ8&#xA;qV2JVZB5r0jydNFJdeY51tre5jW1meW9ls4ZEj5yqjhZYkfjV2Fd+uKp5aTWssCNazLPCAFWRX9S&#xA;tB3erVPzOKq2KsQ1Dzt5U8tSnS7dIY7WwVnvY4HhgS2U/HRI3aP1W+LkY4qsB2qVDKoi8mv9EifV&#xA;NLVtU0i6m9dtOgiaWcNcjZ7Z0JqjzsHcMtAGZ+QVaYqtvdJ1a18p6Xo0EBvUhjgg1UW0ixSSQwxj&#xA;1Fh9Vo1PrOoRuTr8DNvWmKofVLvXZtHtYr/R7fTYJLi0aJDc+ssTw3UckEVwI4gsaycAnKMyBGI6&#xA;rviq/XR5vupLC1e4j0iO8uBb0sJDPI3wPLIzTSwxemqwxPxCJUuVPIAEFV2l+XdQ0Oe7uOdu1lY2&#xA;kw0yYLwkd7gpLO10qhFZg8CnmGqwO9CCzKqNt55sybTTvMJ09l1JIoDJDcRspluRxENxaSn1IvU5&#xA;KqgGQVJDEbVVWauNSsIofKMtwL631qGS002Z1ZbiKNCiTCZ+RExS2kZw1FJ4UapauKpr5iuLu11S&#xA;y1C4tWm0TTUknlmhMZkjncGH1XR2Q+nFA8hbhyY8vs/DuqyLFXYq7FXYq7FXYq7FUv8AMVxeW+ga&#xA;lcWVfrkNrM9uVXm3qLGStFo3I16Cm+KpBCdH1C0tdC8tTCXS5HMmr39o4YGIqzurXI5B57iTj6m/&#xA;PizNVTxOKo7VbjT9F1jS7y5MdjpSWtxZG4PGOCJ2aB4EdtljXjC4UttWi9WAKqCtZ/Imn3EN/Z6M&#xA;LJIkZRqsenPbRQxuP2pTHHSNuNSwqg2LEbYqyWCz0761JqUEUf1m7jjSS7QAtJHHyMYLjqo5kj54&#xA;qkes3NxZa7BqWrlE8vWYra3EZp6FxIpiaW75dE4uURk+FeTF+xCq/wAvWCzare66tqbGC4Vbeyt+&#xA;BgaSFQGNxPFRW9R3+FBIOSov7JdhirIsVU47W2ilmmiiSOa4IaeRVAaRlUIpcjdiFAAr2xVUAAFB&#xA;sB0GKpfr9hqN/pktrYXn1G4kpWYLyJSvxpUFWTmvw81PJeo3xVIfL1jrdvXQdR0v1PLr27xgTSQ3&#xA;KQgUUW3IlZJ4GQkLzhDKB8Rbl8Kqc2nlnTLS8iuYDOFg5mC2eeWSCN5BxLRxyMwSikqoWgAJAGKp&#xA;nJHHLG0cih43BV0YAqykUIIPUHFWEa1+YOiaGZtJ0jTRey2ciwNBC8EFrG+zcHYFmj60X93Rn+AE&#xA;vtirVz5v8yXl7BFYafBYxQyQxX93eLJcPE11xjhQQK1symR5Ub43DiP4njSqhlUfetq+t29u0SiG&#xA;40uYHWNBkJVZ5UCSxhLqgPpggOjBeMn2XC/EFVZHp19Bf2MF7AGEVwiyKrji68hXiynow6EdjiqI&#xA;xV2KuxV2KuxV2KuxVp2KozAFiATxHU07CuKsS0ufUoNP0PXDqMl1BqYtv0nDIQ0RN6oEcluKBo+M&#xA;0iKFB48K1HL4sVTrzJc3MOllLWQw3N3LDaRTqAWj+sSrE0i8vh5RoxZeWxIA36YqlF4L3SNS0zSt&#xA;JnisNPS1EGm2c0TNbTyxn4oXnA5xyCNV9I8jX4yUfjsqnuj6p+kLeQvEbe7tpWt7y1LBjHKoBpyH&#xA;VWRldDQVVgaDpiqOxV2KuxV2KuxV2KqFzqFhaywxXNzFBLct6dvHI6o0jn9lAxBY+wxVVlmiiTnK&#xA;6xpUDkxCirEKBU+JNBirE9bvbZPMtsgs/Tl0uO51CF2QK15M1uyGG1PSRgpLSb8hxXYgkhVdDaQ2&#xA;1n5WtxKt011efWbqaOlLmVrSed5+v2TNSQeGwHYYqj5odL1HVZ5dL1cW+sW6LBei1khlbgjsUjuI&#xA;XEg+Fy1DRWFSAeuKpppthDp9hBZRMzpCvH1JKF2PVnbiFHJjuaADwGKonFXYq7FXYq7FXYq7FWH3&#xA;Uekx6lfDzLdzWc7yFrC8e7mtbc2+xQW7I8ccciU4yL9tqcjVSMVdqegx2H5eX1hK02svCtxdWbwR&#xA;lLhpnme4tjELVfheN2UK8ajpyoOmKr5porOMeZ/ODx2sVmqR2Fq9ZDC7niZWVCytcS1UAIDwHwqx&#xA;qxKqnZeaNP8AMztot7bfVlvkeawlilErUhYOj8ggSOZPhkTgXUEbPUYqu0v9JQefriykma4C2CzX&#xA;V0UVPUhdwloJQgWP1lkS5+JAvwUDL9khVl+KuxV2KuxVjvmTXNYt7+20vSrC4lkmX1rvUEgMkUEI&#xA;JBCFikbztTZS3wj4iD8KOqxWDX/rGtxmwGrXsGlSK+tXLzSibcdJLJGiijChgzRiH1GA+GOhDlVG&#xA;6lqthf8AmF73S29e+iWxTTvSRpJJuFxJ6zDiCY7YxzNE0x+Ddu6YqyDzToy3kllffUI9T+pesk1h&#xA;KI29WCeOjiP1aIJOaJQkj4eS1+LFUH5eS38weVpLb1Z3s45mTTNRfkLgLEQ8Mo9fm/q27/uy0leT&#xA;RkmoOKpW6QaXpd3ZG0k03zJJZyW1hNG7NA7zSJAWsB6sotka4miPCicarUELXFU3vpNGsfMnl/TI&#xA;GgsXtY5TGGZY6wSL6KWsYNObSy8HoP8Afe/aqrKMVdirsVdirsVdirsVdiqW6prH1aeOxtbdr7Up&#xA;l5paqwRUjrx9WeQ1EcdduhY78VahxVhT6LrsWqyw6LdC1uLOGW6uLDT/AFo7CGZ0LW8BWV5Inkkc&#xA;1YLEg4FnZQ7RtirJ73zBdzyabBplpBcW+r27T291dytFEaBX9PiscpZ2iYuF2qFbfbFV17qHm+3s&#xA;57n9HWX+jwvN6UV1NM8jIpb00Bt4acqbNX6MVSvTfM/m++uRGum2kUc0dzNZGSZwZ47WSOMstFai&#xA;Sespjc9RvxpSqqK1vXtbfQI9a0P0Y4LdpTqltexMZ1jhLRzCMpIEWSF0bls4anw12qqxwaf5vtru&#xA;3tdXee6u9Qma3hvUu50jBKNJU/Vrm0GyRkt6drGNvE4qyrSdZMGo2/lp/rN/c2kJjutVm9JRI8EM&#xA;DuxCkEk/WY6/CNz33oqiNZ1mSO8tNL024t/0rcygSRSAzGKH03kMzxJJE/H4AoJIFSB3xVQfW9cT&#xA;y5d3kVpFeatp8kkdxbKzxRzCCSjtFQTsrPEOaIeXxHiT3xVK9TeLVNMZ00ORdfZDLp13aqjoszDl&#xA;HcQ31I04cqE8+LMuzIQSMVTl9P1qz1Ke+04W063/AAa+tbhnhpNHGIxLFMiTGnFFUxsn+UCNwyqy&#xA;281xrrVvoWqQLZarcq726JNFPFL6a8z6ZBSb7IJrJEg2OKpvfX1rY2zXNyxWFWRKqrOxaRwiKqIG&#xA;ZizMAABirEdW80eWbnWLC6jtNSv9Q0uaSFEgtpYY4pLiMDhPJci3hDNVAiF+XJloN8VRnmPWIr/R&#xA;LZ7NRNoWoGmo6qvxLbW6MPUrFT1A5oyFqD0SCz040xVlCsrKGUhlYVVhuCD3GKt4q7FXYq7FXYq7&#xA;FXYqkdza67ba3dXenW1tcR3sMKGWeZonieEybELHJyjpJyUA/a5dK1xVB2tnqVrfjRYdQ+rN6Dag&#xA;bkRoz3VzNO5uTxk5hYo2dPhU1o6jkAu6qVaZLqJuNM8rXDR2GoaCrLDfOYwLvhZPBDNZ25ZnYcZ+&#xA;cvLZGUp8VeQVU4tKtdR8p6Xq/mbzDdRz3i2/rXUU/wBVt5I7kCP6o0CkwMsqvxd+NSx5oUogRVO9&#xA;R1bR9N80wme4jVbfTZwYFILQjnG6qsaVblOkTcFpVvSPGtDiqWazPpVtb3upavp+p6LpdyrSas6v&#xA;DJbyxhKN9ZjhkuDFyRKNIqr8OzP2xVM7W181SeYNM1LUUt2tDb3MT2sCsr2jzmKRDI7yMs9BCYyy&#xA;ohqelCaKpb5ttYLbVnuLeRzN6baldKtK25i9CAXCyIBKnOOPiyluLqr/AA7HFU21aPzJpR1PUNHt&#xA;4tTF3+++oMfSmWdYUhVkdmEcifukqh4H7RDMaLiqZ6PpMWmWrp60lxPM/r3l1M1WlmKqrSED4EqE&#xA;HwoAo7DFUj8vWmhnXEuvLdjBbaNDaSQy3VpEsEFxLI8RiEXBVSZYkib4xVRy4qftgKoqG91LX5br&#xA;9G3a2ejQubdL6JRLNcOo/evA7ExpGjVj5FWJYN0AHJVjT2mk28sXmOyhVbXTrpIdEA5PPeNIxS/n&#xA;StZJ5LiOqxk8i/p8geLVxV6HPbwXELwXEazQyDjJFIoZWB7FTUHFWPebVtdK8thrOK3ijs54biDT&#xA;xxgWd4ZRMsEXFTSR2T4AF3bbucVVUs9Ssb6bUtKtUktNSVJ73TnYQTLcAUMqGjIzunFXVioqoPLr&#xA;iqO8uWE+n6FY2VwqJNBEqvFEaxxnr6cZolUT7K/CNh0GKpjirsVdirsVdirsVdirsVYrqNpqvmVZ&#xA;5NPnt9MFlNNBp2oPE89ys8LGKSVeEsCookUr6bchIo+LY0xVMvMuh3Ws6E1jHdC1vuUTxX8akGKS&#xA;N1LPGOXJSV5L9roaGoriqrqPlrQtR0yLS7yzSSwgXjBAKoIwI2hohQqV/duy7HocVYOfI2nax5RS&#xA;wtYY7bzBpi/V7+Nv3ZeYxp6iTSBWY+oioY5qHbjUMhaNlVXR/MOtW3+46+vr2HV7dSPq9xZ/X43j&#xA;U8eXpWoW82qB6jSOlekkhqcVT2LXfMmseXvV0iyW31JrlrWV7oywJHGtS1xGJoebErQBWj+FzvyC&#xA;nkqxjzDc67o1rNo1toYhtJ7d5r+8tzcXf1kcShWe9a3qssipxqyOx/mj+F8VZJ5js74azcXyW1w0&#xA;K2duIb1L0WUEDRSTvM0xDluPBkP9y4NBUbbKoTSY9a84eTreO9vZdOka6kTUo/ST15LeNnUW8qyR&#xA;xqhYFCzenxdR9ni/HFUNrXkvzFe3zpql9da15ajVBDpFtPDYyPt8SzrFFbrMKgcR6yL7d8Vah8n2&#xA;1jBaXcsIs7W/uIorvyzb1itDHcHgBJFG3GadKqZnYlHVW+HocVRfmXXreS2fUdJjup7XQA0kuoae&#xA;1nw4mOksUP1nkkjJGaniKA/CCW5LiqI1S917RrrSZtU1WD9ERXTRXU3BY5riN7eURmYfYX0mAeQx&#xA;AAgF6IikYqhrHzRFqmp/pS/hubXRtOuXi093tnjQStGI/rFwxYyIPTlbjzjRFDHmSw+FVV8365fQ&#xA;2+sXlnqMtja6Jahg8McDLcX0ocLbu9yjpRD6X2WXd/iYUxVkOma9puoP6MMv+khBI0LK6Ep05x+o&#xA;qepHXbmopiqY4q7FXYq7FXYq7FXYq7FUqvPLOkXM01z6LRXFxQ3DQTTWwmKjivriB4xJtt8YO22K&#xA;sQ0JZ7WC716fSrLS/wDD8F0txBpqrEbqVE5PE4AZVjjCgr8T1ahqlGQqs00nWYNQ9WFka21C1oLy&#xA;xk2kjLV4sP542oeEi/C1D3BAVUtX0We5njvtOufqGqxoYRc8PUR4WNSksVVD8D8Ue9Vb/JZ1ZVKN&#xA;etLfRLAzWxuTfXo+qT65KZrl7SBvimnZz6npKtOQCqI+dCwCgkKovRbG30nWb3R7JVtrCW3hu7SJ&#xA;disg5QTemCCOKiOJm/ymqa8sVQ3k/Vddmv73SdUnW8l05F9a79NYnLtLLGvwx/AQ6Q+p0HDkF+Lq&#xA;FVPz1qtyrQaXFYz3dqxS41VYkLiS1UtWFRGJZCZHVQw9PiUqpZeVQqu8p69Y6r5h1d7GOSOKWG2l&#xA;uEbg6i6X1InLSQtLFzMKQjiHJou4BrirLMVQGuaLZ61psmn3ZkSKQq3qQtwkVkYMCjdjt922KoHX&#xA;fKNtrElqzXt1ZxWaFYLa2MIhDVUrL6csUq+pHwHpt1T9mhxVIvMPlbStNvtIuNO0ZZofV9D6rByS&#xA;P6y7Ibea54K37pCjNK9KlghIbiKKsj0jQTbQ3r6jIt7eao5k1E8eMDfAI1jSEll4rEqpU1ZgPiJx&#xA;Vg7alqWlau2kaJpcaaLqd1L9VuZpHupHurMiGWKCKd4IIuH1esUbTAUQsgbdVVZj5cSwuppdRF1c&#xA;3moRr9VlF8iRT2wqHaL0UjhCcjRi3H4xxPJlC4qn2KuxV2KuxV2KuxV2KuxV2KsXmsNeS0vtDgtl&#xA;MF9cTvHqh9F4o7e8laaYSQyli0qeo6ovpsjfCW2LKFUv0fT9O0PUBLrQvpdSsvUhsL5jd3Fu1rIa&#xA;gRhTLGrFQPURt+S1X4FSirMbHULC/txc2NzFdW7EgTQusiVHUclJG2Ksc81+YdIuNB1C3gvYxsY7&#xA;gsGWNoUcC5jWbiUUtGHj51orfLFUU9vq+rXtldtZR6bHaSCSO5klEl2UNPUi4Q1iCSgUasrDYHjU&#xA;KQqnFtp2n2s1xNbW0UE12/qXUkaKrSOBTk5A+I08cVSzUl1mHXYbnT7FbxZbZ4XkkmWCKJlkV19Q&#xA;0kk+NS1OEbbjela4qlWpahDDq6/piYaBqT2k0sN7ZXCTrNa2v7yVHSeEVMXPmKxGgJ4tuwxVDeQd&#xA;IvdT8vrq2tXmoSz6jNLc2yNeXERjtpG/dJS3kjiIoOSsqjYjFU9sby90u7i0rUuU1vPIyaZqfIvz&#xA;2LrBcV+JZVUEBzUPStQx44qknmS61+0846dV76TSLh0MNnZvbRxyyxJIxjkkm9FlPLi/ASjmB+0A&#xA;64qx+Rm83ahFC9/eWeqfpCaJJLW4aOKKOK2llQwLC8UjwoTGsshC+qXFH4+nRVl+k6fNPpvrpqN5&#xA;pd3Azw36/WDdxCSBirMDfC4ojU5KRxPEiu+KobRWW/srfRbuxa0tb6B9SsbhblnuyUnjlM1wBFEs&#xA;M7SzrJRWYcuQ6ChVZBpejNZXNxdTXk19dXCRRPPMsSn04S5RaQpEvWViTTviqY4q7FXYq7FXYq7F&#xA;XYqhdWN+NKvTp/8AveIJfqlaU9bgfT+1t9qnXFWN2us3dlB+lY7y41vQhG/18SJALuylio7Fo0W3&#xA;YgKWEkfEyKQvFdyMVQN/eWpt4vMdxPIk8urLBaXZcrbwWVvclJfiH7tYZbeCR2d/tFhvtHRVkU+u&#xA;3dy8tvodobuRHMLX8hVLKOQGj1bl6kvp71ESkcvgLKalVWOaHHeQ+dm1Ge8NxZ3Pr6V9Y9KKIT3k&#xA;PCVv7pVJjj9OaJPULMrIw5fFuqmbad+Xp1Z9FS2trTUePF7aBGtDMkqF/TJjESzqyISUqw2NRtiq&#xA;Q+cL7znpt5OJNWgl0m3T6/JEgNpM1sH9N45Joy8ihCynlHxdq/AGKNHIqv0ga/pmvQX0VpPJb6lZ&#xA;zTPoazGSRFSVOM0ks0piln9NkDUcmrca8QpxVkHmS51m50a21nQL54rWOI3csEccZkuIGQSLw9dH&#xA;oyruE+HlXjyT7QVeQ+cjLd6k1neW0Gualb38dxdXVvLJ9caCWN2jgg4/ZhEcjMsYKslCSjhXndV7&#xA;9aPavawvaFGtGjU25ip6ZjIHDhx248elMVU9StbC6sZodQVGsyOcvqHiF4HmH5VHEoVDBgaqRUbj&#xA;FWB2eoaKfIPLzFrV8kVw4mllb1fUia04zy/UpAkk0tunpFxNzk+HcSUpRVPtF1X8uLeWW50jUNMj&#xA;lvliWRobiGrJBEI4kADbLHGBRRsPDc4qg/MltpN/pWo6nourW8ImipqJhH1q3uVU0X1Y4CZGc09P&#xA;4N2X4CG+HiqgIdU8ueZ9XFxplgl5cPapFFb6pObOB4YmdlaOz4yyyU9UlZGh4U3R+tVWa6Lp8una&#xA;XBZy3D3UsQPOdySSzMWIXkWIRa0QFiQtBU9cVRuKuxV2KuxV2KuxV2KpX5ittRuLBUsjIeMqPcww&#xA;y+hNLCpq8cU1RwY7b1FenJa8gqx+eV9Cs7y7tPLywpelInt7m7/f3E1PTjQJCt4tXqFB5/61AK4q&#xA;iImbWPJDWHlloLKS3T9GyW1W4wCCkU0EcnGqME/upTGy04vxZSMVUfLOl6s/lm102wvF07SoVe0X&#xA;jBxv4RAzQvCX9SWEzI6ENMAwY7gb8sVTbXrGGz8sGKyWKCHTPq9zDHK4ii42UqT8Glblw5iLjzNa&#xA;VqcVSC/jm84NFeaPbenbG3EF9LeCJAzF1kEDQy294sklpIpDVACMWQNy5cVUFF5JsvLOqaVrN3dw&#xA;KDecb+ZYIoLdV+rTem7mUy+k3rcEBiaNTyA49MVTPVBrGu3jatocpW101AljKq+nJcO55XDQSPVH&#xA;iKrGFDqY5GB3WiyBVDa7Z6zdeQNE0vy/qz291fQwWC3EcCRmaNrZhIT6pka2Kxo0lRyZSONGbFUY&#xA;fKGk+Wvy/v8ATLQGaQQyTvdy/FPNfcaxzs27GT1FTga1FBvtirH4pdZ8r6Ymq2mpRzwyPMsun3DR&#xA;o00kUjoxhjqiyGQryDRFXNeTCdiFxVF+Y/OV1qNvbaatvBYCaSFr+W9lX0ogpWcLMCFMKuAKLcKk&#xA;j/ZEX2mRVP8AUvL850TVr55P0nrtzZkQTRoqKGhBlt47eMl+K+t8XxMxJ6sQBRVJLDWdJu7zU9O8&#xA;oa3b3P1KL62PLzWzSRJIFUvDzFCi/Gh9JBzidqkEEJiqJvXsNY1SLU9ImK84rabVLiZeNgqWw+tW&#xA;rzOFUyyRmcMI0mUU3c0UKyq3TNL1W90yQKlrrWhSOTZRXLG1curNI99BLGkpX1Z5HMQWgVAjIw7q&#xA;s002G7h061hvJfrF3FDGlxOBQSSKoDvT/KbfFURirsVdirsVdirsVdirsVY/rl1FZ69p15exTSWU&#xA;EFyYGhiknC3TcAOSxhiHaLmsZpvVl6sAVUPpHly/tdG0q5tWGn67BY28F7E/7yGYxx/FFOEI5FXZ&#xA;uMq/ED4qSpVQdldeetJieyh0Bb6FXkaF1uYI1jEjs/BWZg0yry2Zo4jTqK/EVWj5b8y+YZ4pfMVx&#xA;9VsInEiWEHFWJU1WoRpVR1I/vPVkP7UfpOOWKswtLO1s7WK0tIUt7WBRHDBGoVERRQKqjYAYqq4q&#xA;7FWJ2oEVzptuo+GPXb7iR/xbb3k5r9MhGKrvzA1R7axsrC2USahf3cAtYjUjlDKkis4G/pGb045D&#xA;+yHr0GKqtl5D063Zme6nZpd7j0BBYmR+pZ3sYraRqnejORiqYz+VvLs1vDAdPhjS2DC1aFfReEOa&#xA;t6UkXB4+XfiRXFUkX8ubS0YtpN/cWK1qLdWZIT/r/VWtZ5T/AJUkrHFUs8k6tqJ0pbWwlsbjUNTc&#xA;30cMf1mQWUE/x+rftLcXEhlflURApV6qDRWcKrNEudW1nTF0nUtN0oR3Q/SFpZxevbQTxrKsp3X1&#xA;eMsMzATKQfj3oQcVZV5d0jULCa9kuGEVvcGMwaelxLdRwsgYO6STLGy+pVaoq8QRXqxxVO8Vdirs&#xA;VdirsVdirsVdirsVdirsVdirsVdirsVS/UNf0mwmW2nn5XjrzSyhR57hk6cxBEHk4ju3GmKpDcC4&#xA;tNHXWbqCWB4NU+vNBx5SR28kxtmdhGX/AOPaQysOw2IqMVUPLtvd655ruvMV/CYobAG202BxvG5B&#xA;D/7NEciQqacnaM1MIYqs1xV2KuxVpERAQihQSWIApUk1J+k4qkFl5cvoL219W6ik0/T7i4urNFiK&#xA;z8rgSKEkk5FSsazPuFq3w16HkqyDFXYq7FXYq7FXYq7FXYq7FXYq7FXYq7FXYq7FWI+Z/NF7650r&#xA;REaS6ZvQeeMpz9cjl6EPIModU+OWRwViWmzsQuKpW/l/TbCCe2mFrfaiF+s6pc35Z9OskpX1p1la&#xA;s0gUVVpXMjbkuiUoqnWgXegab5MuZrMXA0zTxdyTl4vq87EO80zLGqw8ObOWQKq9RQDFUDpk8+jR&#xA;2+m2dy9kiERwaXrkSpzJPwxwX9vWNnbqSTNIf2t64qnh8zx2lF1u1k0o9DcvSWzNOrfWU+GNfAzC&#xA;MnwxVOI5I5Y1kjYPG4DI6kFWUioII6g4quxV2KuxV2KuxV2KuxV2KuxV2KuxV2KuxV2KuxV2KuxV&#xA;KPM2qS2VgI7aVIb27YxQTyU4QqFLy3D8vh4wxKz0OzEBajlirHNN46Xp0V5axqmp6lG0WjxXRJ+r&#xA;WSn1XuLmpVt+X1i5YkMzssZavE4qjfLWjpeQx3UoZtKWQXNms397ezmjfpC7HFfiLCsMdKKAGpXg&#xA;sardzU6fqUPVf03aIzD7LpLdWzOPcUco3vUYqyme3guIXguI1mglUrJFIoZGU7EMpqCDiqQ3Oj6r&#xA;pkUh0KV5LNlIfSncckqKcrKaTkImX9mN6x7AD0xU4qwbRrjWtPuPTglV5nkeO3mtESykuZVHqPDc&#xA;2EhWzN13cfuXZByjcgkKqy/TvO4WR7fVouDQKGuLuFJEEQNQGubWT/SLZWoSHPOKgr6uKsohmhni&#xA;SaGRZYZFDRyIQyspFQVI2IOKr8VdirsVdirsVdiqDuda0a1vI7K5v7eC8m4+lbSSokr8yQvFGIY8&#xA;ippQYqjMVdirsVdirsVdirsVdiqSeZdF0y8VNQ1C7ktbawhl+tcDGIpLZnimmjm5o59NvqyhuJFV&#xA;qO+KsbR49Wvby/1phaaZBwOpiY8QkdQ9tpx6dnWa5H7TssVWUEBVM7zzbdTTm2tiunAryAmhlutR&#xA;ZD0kTT4AZI032eXcH7UeKoi0021v/K5tdMmlEqXJuBNdqVl+uw3f1ljOgEdOU61YBQOJ+HamKphp&#xA;uvR3Fz+j72E2GrKCxs5CGEirTlJbybCaPcbijLUc1UmmKppiqQeZfLK6jHJdWSxJqRVUcSVWO5jj&#xA;bksUzJ8a8TvFKvxxN8S/tKyqVafeabqjwadrQY3kcjwaffsfRu0mjUPJbSSQlTFcqg5Hg3CaP41q&#xA;tQFVG50zXPLcz3dnKZLViXmuUj5IzE1Zr2zhCrU71uLZVapBeNlWuKsi0TzLaalwhkAt754xMkHN&#xA;ZI5YjT99bTL8E8RqDyXcVHJVJpiqcYq7FXYq7FXYqlOr+V9K1T1mn9WOSdBHK8MrorqAQPUiqYZQ&#xA;OR2lRh7Yqx2zl1byrdJYzM13Y8HeGCNGPqQxCrG0UFik0SbvbD4XUcoAtGjxVmtvcQXEEdxbyLLB&#xA;MqyRSoQysjCqspGxBB2xVfirsVaZlVSzEKqirMdgAO5xVKP8V6PLtYPJqbHZTYRvcRlv5TOgMCH/&#xA;AF3GKqdzrurRxGdtNisbdf7yTU7yK3pt2MAu1+9hiqV3H5gWttAZ7q+8vwQqQGkk1kKgJPEDk1sB&#xA;12xVEavaeatYsVRIdPiiRTcwr9ZlninuEHK1SUi3jpCJaSMVqTxC0oTiqWt5c1yKxhAgkb6vLGlv&#xA;BBLFJMnMl7y+Lym3R7qdmZQx+wDzXcsuKptaahp2h2phj0K+sldi4SK3Fy80rdWeS2e4+Nz1eZhX&#xA;qzYquXStVfyte24T09SvJLm49JpOJHrztKkTyx8qERFYyVqPCoxVj+mfXrm31GyurKXVbTT7qjwf&#xA;WHWezdAPhspJT9clda81lkaLkpBi+EjFVk+la3eXHr6E1lLo1x8cOqTyXwngEdUnSd/raTmVZFNK&#xA;Ad1fgVqyqYC90tU9WLVNYfQlr610vJrRAf2/rciG7aPv6kcrIvUsoxVCadJYXSam66Ddy3BSL6/b&#xA;y38k90Y4maS3kh5yvXcloZIn69GDDZVFNqNqL9LXS7jWhDNbJfQ3lvJBeRSwOQC0QvDczPwJUOES&#xA;q8h/MKqoKz0qxuNbWE63HHbzu0w0u4tZLC++tFSReWpd4fTlrXn6UAVwzcgSTVVk0OsXulqtrrqS&#xA;yhNo9XghZ4ZVH7UyRBzA4/bLAR9w37KqpvZ3tne2yXVlPHdW0grHPC6yRsPFWUkHFVbFXYq7FXYq&#xA;8+84+XtZjuZLu11Bo3vLmM2V5KZHjtrrYWyzQ8ivomSiLJEFZSwDiRGkxVNNA1LUdOhksbjR7wTS&#xA;cbu1soEWSOJbhQ80H1ljHbgxXHqUUyD4CtNsVb1nznLpiltRl03RY+PMfXrr1LpV6V+qQrRz7JMc&#xA;VQ9p5gmvrBtSu9YurCxDKltNFp31L6y0gPFYYL1bq5kbbbig5bca4quTy9qWqSCe4gCxGjJNrJ+u&#xA;z1/mjsozHaW7d1cVbsyjpiqP1HTtGsYFm1vU7y55sI4kkndPVY9IktbMQpKx7KI2Y4qxRLCWLVVa&#xA;xjWzLTT3Q0WztFnuoZJfThgmClhaWkjW0AdXn6F3FCTsqml7pOo2lpJq9wiQXMNBbyyEajqckkjc&#xA;I44JZ+NtavK7hOCI0YLeGKpLbNqOp6n9c1KZtVt/LEltY27Mwiju9allQNKyxqgSOKWRf91mihWX&#xA;9oMqneu6fc6bHqMss815eavpF8t1KOZV7i3QPBFbwgtwASSbgi1JpUlmqxVdo0D22pXMmk6dDZ6r&#xA;fon+hrGIrawta1je8WLiJLmSpbgN+iAqoaQqqcWlahfP5l1mKRv021lNpbWkLkNDdpEKfVrgMvGK&#xA;VRFJGuxRmYkhmYBVxeS3lh1fSrs3FnU24vbkv61uymn1LUAy+s0PIkepJ+9gc1bkrNRVbLrlmLHV&#xA;or/SrlbHVr2aHUrVv3UtvbLYRC7nABHqKknUxE8ql05d1U/0/wAwPZQfVdaMrSwbLqaQSvb3EOxj&#xA;nMsSGKNmU/GpIo1afDxOKpHf2emJLa6no1/ENNSYpbX1s6zLYXExAKni3FrO4aiTRV+FuLrx+2iq&#xA;nF6k1z6K0067kuma2RiZFsNZCF5IqgLztr2Ni4+zy5N0eRQqqe/4o8s6hp/1bVvRF1IDHd6HKBcT&#xA;iVDxeP6uoZ5aMPhKpRhRhsRiqD06+hsddtbbTIrpNIu1dLiC8EkCW7oC0clut2Y5ODH90Y41K1Kl&#xA;QKPVVNb3RtDur53t5vqGsNu11ZSLFcFguxlX4km4josyOvtiqw6rq+lbaxB9aswaDU7JGbiPG4th&#xA;zdP9aMuvUtwGKpzbXVtdW8dxaypPbyjlFNEwdGU91ZagjFWrq6trS3kubqVILeJS0s0jBEVR3ZjQ&#xA;DFWO6j5nuSqGIrpVpOxS3urxGe6uCBUi0sF/euadOfxd/TZcVSEarojXXrSXFqbmBuR1HzDdxyTR&#xA;utSHg0+NgsbdKgeg2/TFU2n0/wAya/b2FzMy2NtcWNvLcQu91CYbhwzTo1tG0DSVDKvGWWi03Vt8&#xA;VSrS38n6TfWs1jY/XLeRpppdfm9OO1ijt4WkluLaNFWMKAqqZIIlRqirlsVZToemyzyrruqITqdw&#xA;pNvDIKfU7d91gRdwr0p6zdWbavEKAqh9Q80iW3lfSZreO0iPCfXLo/6FGa8SsdGT6w/L4aKwWuxf&#xA;kOOKsX1W2uJLmW50m7m1i6Fo4ntixtdVd2JEchLCFhacyhMcAhGxb95y44qnHk7WdBsdNlt4rl7y&#xA;cXM0coto5byQJbN9VgaUQLKULQW8Z+KlcVb8xazL6La1cWd5HoulKZLdI4gt3PdSj0lmSGWnCOBH&#xA;b++AqxrxoqllUl0K50xtKg8t6TprSW9nf/VIZZr+S2l+sxxXEs5lltYyyyRS2zx8V+GlKUpxxVG/&#xA;pC4hm0+7f69qElpd3KxaUrRzhPqvK2urpJkjW4mjhSV0COC7yMooNjirI/J0Lr5bt1mhlgum9QXb&#xA;yq0cs0yu0b3JD/GPW4+ovLcKQKDpiq3TfKs+nWUVla63fpBCKICtkzGpJJZjbFmZiaszEljuSTvi&#xA;qItPLdrF+kPrU8uofpRFivBciEK6KhjoVgjhUlkbixIqQAK0AxVKtIi8xR6rpcd7Y3DixgurO41K&#xA;SW3eOSORo3ikBWX1nc/V0VuUK1JJ2xVB3Md/YWk9nDcTw2vl6YStbQEK0ulTKShUgM1bajog6sIq&#xA;UqwIVb8w+WT9Wnv7ho9YszAwunmMVpfCDieQjvYfQjaPhWsUw4t+09MVUtZ0+wj0rQ72Jry7kl+p&#xA;WjT3UnoCT06T2smpssfqKY5QCvFVPqPxNAxxVWnmF5cWF1q6MIxOdJ1qyikkSFLyRkFvM6qy+pFL&#xA;VVVZA20qHajVVT6Tyj5ZeyuLNNMtoIblDHL6ESQtRgRVWQKVYV2I3BxVanlHQTbzQ3FuLt7mT1p7&#xA;mejTtLQKsgkAUoyBF4lKcaAjffFWNeYNI1e2vrSSW/uWSL91Zah9Znt4XDsvG11AQMo5lj+5ueHX&#xA;4XU/7tVWadDryTXN3oLLPeJLxv7WcrayeuRyaPUIFBhLENy+tW/FiOJ4yp9pVCa9r+tT6wSttGlz&#xA;aSNLbQ6nHILKzgglKfW2C8Gnmm/3WykhahUq3qEqta1pKS6g2onTo4bvVwWMF/I88rxQgc7iWOd5&#xA;LWzhgBB+KOUjkBwVzxxVO/KljrFxPa3i6xDPo1qJESOxngnimcEoEPo2trHGsfxEgcmLU+JQpDKo&#xA;70j5onZpTXyxCzRrBQcdQddmZ/G1U1AX/dp3NY6c1Ul1fUbK91yZ7uZY9Kt2NvKxqVNtayD10QCp&#xA;L3V6Y7cx8TzWJgNziq+715dX8xW+hajHLFbzRSXM2kRkApaRj+/1OUEBEkYqqWymrV+PkvJUVTbT&#xA;za3MA8yanwg0y3QyaPbuOMdvbBaC4ZT0llTcVFUQ8AAS/JVCQ6kmp+Y9LbU1ktJqvPpGlKv7+NfT&#xA;kH1i9cbxeogZUhqO/LkaiNVDa1ZQWPmSO+1vWpreymmSHQdPtWlr684SAF7eNWjf0pZCVZkYVccz&#xA;8K4qt0y20mW7sNH0nVL9bDTzqNrJcCeb1TqUcsMrNK8tRcMBJKwDho+ux2oqjrn9OW95p1vPYteX&#xA;cN/HPHqFrGqQzxSI1tM9yOQ9KWGCUsa/C/FeG54Kqm2heWbTRy7R3E91I0aQpJclGZIoyzBFKJHW&#xA;ruzMzVZifiJoKKpvirsVdirsVS/UNB0y/m9e4WUSlBE7wzzQF4wSQknovHzUFjQNWlT4nFVur6Da&#xA;alpH6L9SS0t1MRjNtwBT0HV0UK6yRlfgAKspUjYjFUvn8n20cUr2BVru6DpqX1wetHfxyVDx3Y25&#xA;bGiMB8A+EDhVCql/6A1e3sPTu7d9QW+tZLLU4LSZGlARz9UmSa5NuHkjhYpJIaMzBWp8OKso0k6g&#xA;dLszqShdQMMf1xVpx9biPUpx2pyr0xVFYqp3FvBc28ttcRrNbzI0c0LgMjo4oysp2IINCMVY5a+W&#xA;tWstWtJrWeI29t+5a6lZ2uZLIBuFpMCD63pM1Y5mcOvflyfmqh9I0TV59Rhk1m0CSJK17qNz6iSR&#xA;T3SELaRwAHn9Xt1ZmUSIhDhW3bkxVS3U7lLrVdSv7mP6zZWqzSyW4O72+lMUitypFA09+Zn6/Gsa&#xA;qQRiqc3NrcWWi6b5djn432ochf3cbFWEe81/dDoymR3Khh9l5FOKq41xp7RbXyrZC7jRPSt700i0&#xA;6IKtFIk6yotKD0FYdiV6hVIdZs9E8rT6ebSOTUPNl9EljpZk53DgW6n1boQAhRx9Z3dvh5M9GdVY&#xA;sFWo/LkNlpV7a3UF22r+Znb14rR7aS79CPdvUkn4wHkGJl/ZBk9NPhCYq1FqNrJqtxp9zbS3ut2s&#xA;1sLWxuNSeTnOy+tznt0HoRJAnCUyLG67jjWQccVRsEVv5f8AMD32o2Tc9RWSWW/thqF6kczvEnFq&#xA;iVIQ6n7QCgKgB+FRRVS1I6heXx1uy064vjFdxwWlu6NByghs5JY343Ho8VN9KvJtq8FO/EYqj9E8&#xA;o6hp19ADcQnTrWSO5SisbiWdLBbEl2qqAUUt0JJPam6rKsVdirsVdirsVdirsVdirsVdirsVdirs&#xA;VdirsVYrrumaTpUUBht3hgvr+B9RuUWWb047d3vByp6npxNKnA9FHqHucVSPzrLaalf2VzZSnUHu&#xA;rKIWVg6/6NxupCY3ljPFpWuGVeEb0QCNpHqI6YqhTY6xquiQ6XearNd6dq85hN5y9OS8VgXupUMY&#xA;jWGyjgRhAFH7xuLElG/eKphqNjceaX0izvGjTSNSL3K6bFE0bHTYGVlNzIX+NZAYlMPFePqHZjHX&#xA;FWUW6/WfNd3ORyj0+1jtYX7LLcMZrhf+AS3OKpxirsVdirsVdirsVdirsVdirsVdirsVdirsVdir&#xA;sVdirsVdiqS+dBy8s30Pq+k9wq28f7syh3mdY1iKKyMRKW4GjA0PUdcVYdeWGpPBc3fmCWy0i8v2&#xA;429pd3aQiTmUiuQrr63DhZR+lGyEmruxC8qYqmN/5h8u3Yhi1Wx0nUEjBjt47W/s5yqtQMnG6+pj&#xA;iwUVUEg06bYqyDy+s11c3uszwvB9bKQWUMg4utrbg8eSgkAvK8j17qV8MVX+XAJBqd7uDeahcclN&#xA;dvqpFkNj4i1riqb4q7FXYq7FXYq7FXYq7FXYq7FXYq7FXYq7FXYq7FXYq7FVG8vLSytpLq8njtra&#xA;IVkmlYIiitN2agGKsR1rzXb6gi2FppVxdyOUmjSQz2ktFaqSqkKSXUI5rQPKkaH+emKpfDYXthaz&#xA;xvp1xBdvc299pVnBbM0a3EFBJW4imu1QzoOEjyNGDVmP2mOKsv8AM91NBo06W7Bby7K2dmSAaTXL&#xA;CJHKn7Qj5c2H8oOKoJopzLB5b0SQ2NjpsMSXt2gDPHGE4w20JbkokKqGZmB4pTarqyqp1p9ha2Fo&#xA;lrbKywoWb42aRi0jF3ZncszMzMSST1xVEYq7FXYq7FXYq7FXYq7FXYq7FXYq7FXYq7FXYq7FXYq7&#xA;FWAWt7d+a9Sju7B1khB5w3LBZINOhBKhkQ1V9RmG/wAX9wn2h1WVVmmmaTYaZbmGzj4B2Mk0jEtJ&#xA;LIQAZJZGqzuabsxriqLxVKtZ0vUby5sLiyu4bd7F5JVWeB50aR4zErUSWA/CjuOprX2GKonStMTT&#xA;7Zo/UaeeaRprq5enOWV+rGnQAAKo/ZUAdsVRmKuxV2KuxV2KuxV2KuxV2KuxV2KuxV2KuxV2KuxV&#xA;2KuxV2Kv/9k=</xmpGImg:image>
               </rdf:li>
            </rdf:Alt>
         </xmp:Thumbnails>
         <xmpMM:RenditionClass>proof:pdf</xmpMM:RenditionClass>
         <xmpMM:OriginalDocumentID>uuid:65E6390686CF11DBA6E2D887CEACB407</xmpMM:OriginalDocumentID>
         <xmpMM:DocumentID>xmp.did:a12f477a-6d78-1b43-b00e-e56b2868514d</xmpMM:DocumentID>
         <xmpMM:InstanceID>xmp.iid:a12f477a-6d78-1b43-b00e-e56b2868514d</xmpMM:InstanceID>
         <xmpMM:DerivedFrom rdf:parseType="Resource">
            <stRef:instanceID>xmp.iid:f22e4b0e-1895-bb42-a135-fbcf7d0259b7</stRef:instanceID>
            <stRef:documentID>xmp.did:f22e4b0e-1895-bb42-a135-fbcf7d0259b7</stRef:documentID>
            <stRef:originalDocumentID>uuid:65E6390686CF11DBA6E2D887CEACB407</stRef:originalDocumentID>
            <stRef:renditionClass>proof:pdf</stRef:renditionClass>
         </xmpMM:DerivedFrom>
         <xmpMM:History>
            <rdf:Seq>
               <rdf:li rdf:parseType="Resource">
                  <stEvt:action>saved</stEvt:action>
                  <stEvt:instanceID>xmp.iid:A5EFF3A988CCE411A404C8DF6A47380B</stEvt:instanceID>
                  <stEvt:when>2015-03-17T11:36:57+02:00</stEvt:when>
                  <stEvt:softwareAgent>Adobe Illustrator CS5</stEvt:softwareAgent>
                  <stEvt:changed>/</stEvt:changed>
               </rdf:li>
               <rdf:li rdf:parseType="Resource">
                  <stEvt:action>saved</stEvt:action>
                  <stEvt:instanceID>xmp.iid:a12f477a-6d78-1b43-b00e-e56b2868514d</stEvt:instanceID>
                  <stEvt:when>2015-05-27T12:14:33+03:00</stEvt:when>
                  <stEvt:softwareAgent>Adobe Illustrator CC (Windows)</stEvt:softwareAgent>
                  <stEvt:changed>/</stEvt:changed>
               </rdf:li>
            </rdf:Seq>
         </xmpMM:History>
         <xmpMM:Ingredients>
            <rdf:Bag>
               <rdf:li rdf:parseType="Resource">
                  <stRef:filePath>D:\Nata\работка\пробы\контуры\май\19.05\Новая папка\800px-Bluefin-big.jpg</stRef:filePath>
                  <stRef:documentID>0</stRef:documentID>
                  <stRef:instanceID>0</stRef:instanceID>
               </rdf:li>
            </rdf:Bag>
         </xmpMM:Ingredients>
         <illustrator:StartupProfile>Web</illustrator:StartupProfile>
         <xmpTPg:NPages>1</xmpTPg:NPages>
         <xmpTPg:HasVisibleTransparency>False</xmpTPg:HasVisibleTransparency>
         <xmpTPg:HasVisibleOverprint>False</xmpTPg:HasVisibleOverprint>
         <xmpTPg:MaxPageSize rdf:parseType="Resource">
            <stDim:w>768.000000</stDim:w>
            <stDim:h>1024.000000</stDim:h>
            <stDim:unit>Pixels</stDim:unit>
         </xmpTPg:MaxPageSize>
         <xmpTPg:PlateNames>
            <rdf:Seq>
               <rdf:li>Cyan</rdf:li>
               <rdf:li>Magenta</rdf:li>
               <rdf:li>Yellow</rdf:li>
               <rdf:li>Black</rdf:li>
            </rdf:Seq>
         </xmpTPg:PlateNames>
         <xmpTPg:SwatchGroups>
            <rdf:Seq>
               <rdf:li rdf:parseType="Resource">
                  <xmpG:groupName>Группа образцов по умолчанию</xmpG:groupName>
                  <xmpG:groupType>0</xmpG:groupType>
                  <xmpG:Colorants>
                     <rdf:Seq>
                        <rdf:li rdf:parseType="Resource">
                           <xmpG:swatchName>Белый</xmpG:swatchName>
                           <xmpG:mode>RGB</xmpG:mode>
                           <xmpG:type>PROCESS</xmpG:type>
                           <xmpG:red>255</xmpG:red>
                           <xmpG:green>255</xmpG:green>
                           <xmpG:blue>255</xmpG:blue>
                        </rdf:li>
                        <rdf:li rdf:parseType="Resource">
                           <xmpG:swatchName>Черный</xmpG:swatchName>
                           <xmpG:mode>RGB</xmpG:mode>
                           <xmpG:type>PROCESS</xmpG:type>
                           <xmpG:red>0</xmpG:red>
                           <xmpG:green>0</xmpG:green>
                           <xmpG:blue>0</xmpG:blue>
                        </rdf:li>
                        <rdf:li rdf:parseType="Resource">
                           <xmpG:swatchName>RGB красный</xmpG:swatchName>
                           <xmpG:mode>RGB</xmpG:mode>
                           <xmpG:type>PROCESS</xmpG:type>
                           <xmpG:red>255</xmpG:red>
                           <xmpG:green>0</xmpG:green>
                           <xmpG:blue>0</xmpG:blue>
                        </rdf:li>
                        <rdf:li rdf:parseType="Resource">
                           <xmpG:swatchName>RGB желтый</xmpG:swatchName>
                           <xmpG:mode>RGB</xmpG:mode>
                           <xmpG:type>PROCESS</xmpG:type>
                           <xmpG:red>255</xmpG:red>
                           <xmpG:green>255</xmpG:green>
                           <xmpG:blue>0</xmpG:blue>
                        </rdf:li>
                        <rdf:li rdf:parseType="Resource">
                           <xmpG:swatchName>RGB зеленый</xmpG:swatchName>
                           <xmpG:mode>RGB</xmpG:mode>
                           <xmpG:type>PROCESS</xmpG:type>
                           <xmpG:red>0</xmpG:red>
                           <xmpG:green>255</xmpG:green>
                           <xmpG:blue>0</xmpG:blue>
                        </rdf:li>
                        <rdf:li rdf:parseType="Resource">
                           <xmpG:swatchName>RGB голубой</xmpG:swatchName>
                           <xmpG:mode>RGB</xmpG:mode>
                           <xmpG:type>PROCESS</xmpG:type>
                           <xmpG:red>0</xmpG:red>
                           <xmpG:green>255</xmpG:green>
                           <xmpG:blue>255</xmpG:blue>
                        </rdf:li>
                        <rdf:li rdf:parseType="Resource">
                           <xmpG:swatchName>RGB синий</xmpG:swatchName>
                           <xmpG:mode>RGB</xmpG:mode>
                           <xmpG:type>PROCESS</xmpG:type>
                           <xmpG:red>0</xmpG:red>
                           <xmpG:green>0</xmpG:green>
                           <xmpG:blue>255</xmpG:blue>
                        </rdf:li>
                        <rdf:li rdf:parseType="Resource">
                           <xmpG:swatchName>RGB пурпурный</xmpG:swatchName>
                           <xmpG:mode>RGB</xmpG:mode>
                           <xmpG:type>PROCESS</xmpG:type>
                           <xmpG:red>255</xmpG:red>
                           <xmpG:green>0</xmpG:green>
                           <xmpG:blue>255</xmpG:blue>
                        </rdf:li>
                        <rdf:li rdf:parseType="Resource">
                           <xmpG:swatchName>R=193 G=39 B=45</xmpG:swatchName>
                           <xmpG:mode>RGB</xmpG:mode>
                           <xmpG:type>PROCESS</xmpG:type>
                           <xmpG:red>193</xmpG:red>
                           <xmpG:green>39</xmpG:green>
                           <xmpG:blue>45</xmpG:blue>
                        </rdf:li>
                        <rdf:li rdf:parseType="Resource">
                           <xmpG:swatchName>R=237 G=28 B=36</xmpG:swatchName>
                           <xmpG:mode>RGB</xmpG:mode>
                           <xmpG:type>PROCESS</xmpG:type>
                           <xmpG:red>237</xmpG:red>
                           <xmpG:green>28</xmpG:green>
                           <xmpG:blue>36</xmpG:blue>
                        </rdf:li>
                        <rdf:li rdf:parseType="Resource">
                           <xmpG:swatchName>R=241 G=90 B=36</xmpG:swatchName>
                           <xmpG:mode>RGB</xmpG:mode>
                           <xmpG:type>PROCESS</xmpG:type>
                           <xmpG:red>241</xmpG:red>
                           <xmpG:green>90</xmpG:green>
                           <xmpG:blue>36</xmpG:blue>
                        </rdf:li>
                        <rdf:li rdf:parseType="Resource">
                           <xmpG:swatchName>R=247 G=147 B=30</xmpG:swatchName>
                           <xmpG:mode>RGB</xmpG:mode>
                           <xmpG:type>PROCESS</xmpG:type>
                           <xmpG:red>247</xmpG:red>
                           <xmpG:green>147</xmpG:green>
                           <xmpG:blue>30</xmpG:blue>
                        </rdf:li>
                        <rdf:li rdf:parseType="Resource">
                           <xmpG:swatchName>R=251 G=176 B=59</xmpG:swatchName>
                           <xmpG:mode>RGB</xmpG:mode>
                           <xmpG:type>PROCESS</xmpG:type>
                           <xmpG:red>251</xmpG:red>
                           <xmpG:green>176</xmpG:green>
                           <xmpG:blue>59</xmpG:blue>
                        </rdf:li>
                        <rdf:li rdf:parseType="Resource">
                           <xmpG:swatchName>R=252 G=238 B=33</xmpG:swatchName>
                           <xmpG:mode>RGB</xmpG:mode>
                           <xmpG:type>PROCESS</xmpG:type>
                           <xmpG:red>252</xmpG:red>
                           <xmpG:green>238</xmpG:green>
                           <xmpG:blue>33</xmpG:blue>
                        </rdf:li>
                        <rdf:li rdf:parseType="Resource">
                           <xmpG:swatchName>R=217 G=224 B=33</xmpG:swatchName>
                           <xmpG:mode>RGB</xmpG:mode>
                           <xmpG:type>PROCESS</xmpG:type>
                           <xmpG:red>217</xmpG:red>
                           <xmpG:green>224</xmpG:green>
                           <xmpG:blue>33</xmpG:blue>
                        </rdf:li>
                        <rdf:li rdf:parseType="Resource">
                           <xmpG:swatchName>R=140 G=198 B=63</xmpG:swatchName>
                           <xmpG:mode>RGB</xmpG:mode>
                           <xmpG:type>PROCESS</xmpG:type>
                           <xmpG:red>140</xmpG:red>
                           <xmpG:green>198</xmpG:green>
                           <xmpG:blue>63</xmpG:blue>
                        </rdf:li>
                        <rdf:li rdf:parseType="Resource">
                           <xmpG:swatchName>R=57 G=181 B=74</xmpG:swatchName>
                           <xmpG:mode>RGB</xmpG:mode>
                           <xmpG:type>PROCESS</xmpG:type>
                           <xmpG:red>57</xmpG:red>
                           <xmpG:green>181</xmpG:green>
                           <xmpG:blue>74</xmpG:blue>
                        </rdf:li>
                        <rdf:li rdf:parseType="Resource">
                           <xmpG:swatchName>R=0 G=146 B=69</xmpG:swatchName>
                           <xmpG:mode>RGB</xmpG:mode>
                           <xmpG:type>PROCESS</xmpG:type>
                           <xmpG:red>0</xmpG:red>
                           <xmpG:green>146</xmpG:green>
                           <xmpG:blue>69</xmpG:blue>
                        </rdf:li>
                        <rdf:li rdf:parseType="Resource">
                           <xmpG:swatchName>R=0 G=104 B=55</xmpG:swatchName>
                           <xmpG:mode>RGB</xmpG:mode>
                           <xmpG:type>PROCESS</xmpG:type>
                           <xmpG:red>0</xmpG:red>
                           <xmpG:green>104</xmpG:green>
                           <xmpG:blue>55</xmpG:blue>
                        </rdf:li>
                        <rdf:li rdf:parseType="Resource">
                           <xmpG:swatchName>R=34 G=181 B=115</xmpG:swatchName>
                           <xmpG:mode>RGB</xmpG:mode>
                           <xmpG:type>PROCESS</xmpG:type>
                           <xmpG:red>34</xmpG:red>
                           <xmpG:green>181</xmpG:green>
                           <xmpG:blue>115</xmpG:blue>
                        </rdf:li>
                        <rdf:li rdf:parseType="Resource">
                           <xmpG:swatchName>R=0 G=169 B=157</xmpG:swatchName>
                           <xmpG:mode>RGB</xmpG:mode>
                           <xmpG:type>PROCESS</xmpG:type>
                           <xmpG:red>0</xmpG:red>
                           <xmpG:green>169</xmpG:green>
                           <xmpG:blue>157</xmpG:blue>
                        </rdf:li>
                        <rdf:li rdf:parseType="Resource">
                           <xmpG:swatchName>R=41 G=171 B=226</xmpG:swatchName>
                           <xmpG:mode>RGB</xmpG:mode>
                           <xmpG:type>PROCESS</xmpG:type>
                           <xmpG:red>41</xmpG:red>
                           <xmpG:green>171</xmpG:green>
                           <xmpG:blue>226</xmpG:blue>
                        </rdf:li>
                        <rdf:li rdf:parseType="Resource">
                           <xmpG:swatchName>R=0 G=113 B=188</xmpG:swatchName>
                           <xmpG:mode>RGB</xmpG:mode>
                           <xmpG:type>PROCESS</xmpG:type>
                           <xmpG:red>0</xmpG:red>
                           <xmpG:green>113</xmpG:green>
                           <xmpG:blue>188</xmpG:blue>
                        </rdf:li>
                        <rdf:li rdf:parseType="Resource">
                           <xmpG:swatchName>R=46 G=49 B=146</xmpG:swatchName>
                           <xmpG:mode>RGB</xmpG:mode>
                           <xmpG:type>PROCESS</xmpG:type>
                           <xmpG:red>46</xmpG:red>
                           <xmpG:green>49</xmpG:green>
                           <xmpG:blue>146</xmpG:blue>
                        </rdf:li>
                        <rdf:li rdf:parseType="Resource">
                           <xmpG:swatchName>R=27 G=20 B=100</xmpG:swatchName>
                           <xmpG:mode>RGB</xmpG:mode>
                           <xmpG:type>PROCESS</xmpG:type>
                           <xmpG:red>27</xmpG:red>
                           <xmpG:green>20</xmpG:green>
                           <xmpG:blue>100</xmpG:blue>
                        </rdf:li>
                        <rdf:li rdf:parseType="Resource">
                           <xmpG:swatchName>R=102 G=45 B=145</xmpG:swatchName>
                           <xmpG:mode>RGB</xmpG:mode>
                           <xmpG:type>PROCESS</xmpG:type>
                           <xmpG:red>102</xmpG:red>
                           <xmpG:green>45</xmpG:green>
                           <xmpG:blue>145</xmpG:blue>
                        </rdf:li>
                        <rdf:li rdf:parseType="Resource">
                           <xmpG:swatchName>R=147 G=39 B=143</xmpG:swatchName>
                           <xmpG:mode>RGB</xmpG:mode>
                           <xmpG:type>PROCESS</xmpG:type>
                           <xmpG:red>147</xmpG:red>
                           <xmpG:green>39</xmpG:green>
                           <xmpG:blue>143</xmpG:blue>
                        </rdf:li>
                        <rdf:li rdf:parseType="Resource">
                           <xmpG:swatchName>R=158 G=0 B=93</xmpG:swatchName>
                           <xmpG:mode>RGB</xmpG:mode>
                           <xmpG:type>PROCESS</xmpG:type>
                           <xmpG:red>158</xmpG:red>
                           <xmpG:green>0</xmpG:green>
                           <xmpG:blue>93</xmpG:blue>
                        </rdf:li>
                        <rdf:li rdf:parseType="Resource">
                           <xmpG:swatchName>R=212 G=20 B=90</xmpG:swatchName>
                           <xmpG:mode>RGB</xmpG:mode>
                           <xmpG:type>PROCESS</xmpG:type>
                           <xmpG:red>212</xmpG:red>
                           <xmpG:green>20</xmpG:green>
                           <xmpG:blue>90</xmpG:blue>
                        </rdf:li>
                        <rdf:li rdf:parseType="Resource">
                           <xmpG:swatchName>R=237 G=30 B=121</xmpG:swatchName>
                           <xmpG:mode>RGB</xmpG:mode>
                           <xmpG:type>PROCESS</xmpG:type>
                           <xmpG:red>237</xmpG:red>
                           <xmpG:green>30</xmpG:green>
                           <xmpG:blue>121</xmpG:blue>
                        </rdf:li>
                        <rdf:li rdf:parseType="Resource">
                           <xmpG:swatchName>R=199 G=178 B=153</xmpG:swatchName>
                           <xmpG:mode>RGB</xmpG:mode>
                           <xmpG:type>PROCESS</xmpG:type>
                           <xmpG:red>199</xmpG:red>
                           <xmpG:green>178</xmpG:green>
                           <xmpG:blue>153</xmpG:blue>
                        </rdf:li>
                        <rdf:li rdf:parseType="Resource">
                           <xmpG:swatchName>R=153 G=134 B=117</xmpG:swatchName>
                           <xmpG:mode>RGB</xmpG:mode>
                           <xmpG:type>PROCESS</xmpG:type>
                           <xmpG:red>153</xmpG:red>
                           <xmpG:green>134</xmpG:green>
                           <xmpG:blue>117</xmpG:blue>
                        </rdf:li>
                        <rdf:li rdf:parseType="Resource">
                           <xmpG:swatchName>R=115 G=99 B=87</xmpG:swatchName>
                           <xmpG:mode>RGB</xmpG:mode>
                           <xmpG:type>PROCESS</xmpG:type>
                           <xmpG:red>115</xmpG:red>
                           <xmpG:green>99</xmpG:green>
                           <xmpG:blue>87</xmpG:blue>
                        </rdf:li>
                        <rdf:li rdf:parseType="Resource">
                           <xmpG:swatchName>R=83 G=71 B=65</xmpG:swatchName>
                           <xmpG:mode>RGB</xmpG:mode>
                           <xmpG:type>PROCESS</xmpG:type>
                           <xmpG:red>83</xmpG:red>
                           <xmpG:green>71</xmpG:green>
                           <xmpG:blue>65</xmpG:blue>
                        </rdf:li>
                        <rdf:li rdf:parseType="Resource">
                           <xmpG:swatchName>R=198 G=156 B=109</xmpG:swatchName>
                           <xmpG:mode>RGB</xmpG:mode>
                           <xmpG:type>PROCESS</xmpG:type>
                           <xmpG:red>198</xmpG:red>
                           <xmpG:green>156</xmpG:green>
                           <xmpG:blue>109</xmpG:blue>
                        </rdf:li>
                        <rdf:li rdf:parseType="Resource">
                           <xmpG:swatchName>R=166 G=124 B=82</xmpG:swatchName>
                           <xmpG:mode>RGB</xmpG:mode>
                           <xmpG:type>PROCESS</xmpG:type>
                           <xmpG:red>166</xmpG:red>
                           <xmpG:green>124</xmpG:green>
                           <xmpG:blue>82</xmpG:blue>
                        </rdf:li>
                        <rdf:li rdf:parseType="Resource">
                           <xmpG:swatchName>R=140 G=98 B=57</xmpG:swatchName>
                           <xmpG:mode>RGB</xmpG:mode>
                           <xmpG:type>PROCESS</xmpG:type>
                           <xmpG:red>140</xmpG:red>
                           <xmpG:green>98</xmpG:green>
                           <xmpG:blue>57</xmpG:blue>
                        </rdf:li>
                        <rdf:li rdf:parseType="Resource">
                           <xmpG:swatchName>R=117 G=76 B=36</xmpG:swatchName>
                           <xmpG:mode>RGB</xmpG:mode>
                           <xmpG:type>PROCESS</xmpG:type>
                           <xmpG:red>117</xmpG:red>
                           <xmpG:green>76</xmpG:green>
                           <xmpG:blue>36</xmpG:blue>
                        </rdf:li>
                        <rdf:li rdf:parseType="Resource">
                           <xmpG:swatchName>R=96 G=56 B=19</xmpG:swatchName>
                           <xmpG:mode>RGB</xmpG:mode>
                           <xmpG:type>PROCESS</xmpG:type>
                           <xmpG:red>96</xmpG:red>
                           <xmpG:green>56</xmpG:green>
                           <xmpG:blue>19</xmpG:blue>
                        </rdf:li>
                        <rdf:li rdf:parseType="Resource">
                           <xmpG:swatchName>R=66 G=33 B=11</xmpG:swatchName>
                           <xmpG:mode>RGB</xmpG:mode>
                           <xmpG:type>PROCESS</xmpG:type>
                           <xmpG:red>66</xmpG:red>
                           <xmpG:green>33</xmpG:green>
                           <xmpG:blue>11</xmpG:blue>
                        </rdf:li>
                     </rdf:Seq>
                  </xmpG:Colorants>
               </rdf:li>
               <rdf:li rdf:parseType="Resource">
                  <xmpG:groupName>Оттенки серого</xmpG:groupName>
                  <xmpG:groupType>1</xmpG:groupType>
                  <xmpG:Colorants>
                     <rdf:Seq>
                        <rdf:li rdf:parseType="Resource">
                           <xmpG:swatchName>R=0 G=0 B=0</xmpG:swatchName>
                           <xmpG:mode>RGB</xmpG:mode>
                           <xmpG:type>PROCESS</xmpG:type>
                           <xmpG:red>0</xmpG:red>
                           <xmpG:green>0</xmpG:green>
                           <xmpG:blue>0</xmpG:blue>
                        </rdf:li>
                        <rdf:li rdf:parseType="Resource">
                           <xmpG:swatchName>R=26 G=26 B=26</xmpG:swatchName>
                           <xmpG:mode>RGB</xmpG:mode>
                           <xmpG:type>PROCESS</xmpG:type>
                           <xmpG:red>26</xmpG:red>
                           <xmpG:green>26</xmpG:green>
                           <xmpG:blue>26</xmpG:blue>
                        </rdf:li>
                        <rdf:li rdf:parseType="Resource">
                           <xmpG:swatchName>R=51 G=51 B=51</xmpG:swatchName>
                           <xmpG:mode>RGB</xmpG:mode>
                           <xmpG:type>PROCESS</xmpG:type>
                           <xmpG:red>51</xmpG:red>
                           <xmpG:green>51</xmpG:green>
                           <xmpG:blue>51</xmpG:blue>
                        </rdf:li>
                        <rdf:li rdf:parseType="Resource">
                           <xmpG:swatchName>R=77 G=77 B=77</xmpG:swatchName>
                           <xmpG:mode>RGB</xmpG:mode>
                           <xmpG:type>PROCESS</xmpG:type>
                           <xmpG:red>77</xmpG:red>
                           <xmpG:green>77</xmpG:green>
                           <xmpG:blue>77</xmpG:blue>
                        </rdf:li>
                        <rdf:li rdf:parseType="Resource">
                           <xmpG:swatchName>R=102 G=102 B=102</xmpG:swatchName>
                           <xmpG:mode>RGB</xmpG:mode>
                           <xmpG:type>PROCESS</xmpG:type>
                           <xmpG:red>102</xmpG:red>
                           <xmpG:green>102</xmpG:green>
                           <xmpG:blue>102</xmpG:blue>
                        </rdf:li>
                        <rdf:li rdf:parseType="Resource">
                           <xmpG:swatchName>R=128 G=128 B=128</xmpG:swatchName>
                           <xmpG:mode>RGB</xmpG:mode>
                           <xmpG:type>PROCESS</xmpG:type>
                           <xmpG:red>128</xmpG:red>
                           <xmpG:green>128</xmpG:green>
                           <xmpG:blue>128</xmpG:blue>
                        </rdf:li>
                        <rdf:li rdf:parseType="Resource">
                           <xmpG:swatchName>R=153 G=153 B=153</xmpG:swatchName>
                           <xmpG:mode>RGB</xmpG:mode>
                           <xmpG:type>PROCESS</xmpG:type>
                           <xmpG:red>153</xmpG:red>
                           <xmpG:green>153</xmpG:green>
                           <xmpG:blue>153</xmpG:blue>
                        </rdf:li>
                        <rdf:li rdf:parseType="Resource">
                           <xmpG:swatchName>R=179 G=179 B=179</xmpG:swatchName>
                           <xmpG:mode>RGB</xmpG:mode>
                           <xmpG:type>PROCESS</xmpG:type>
                           <xmpG:red>179</xmpG:red>
                           <xmpG:green>179</xmpG:green>
                           <xmpG:blue>179</xmpG:blue>
                        </rdf:li>
                        <rdf:li rdf:parseType="Resource">
                           <xmpG:swatchName>R=204 G=204 B=204</xmpG:swatchName>
                           <xmpG:mode>RGB</xmpG:mode>
                           <xmpG:type>PROCESS</xmpG:type>
                           <xmpG:red>204</xmpG:red>
                           <xmpG:green>204</xmpG:green>
                           <xmpG:blue>204</xmpG:blue>
                        </rdf:li>
                        <rdf:li rdf:parseType="Resource">
                           <xmpG:swatchName>R=230 G=230 B=230</xmpG:swatchName>
                           <xmpG:mode>RGB</xmpG:mode>
                           <xmpG:type>PROCESS</xmpG:type>
                           <xmpG:red>230</xmpG:red>
                           <xmpG:green>230</xmpG:green>
                           <xmpG:blue>230</xmpG:blue>
                        </rdf:li>
                        <rdf:li rdf:parseType="Resource">
                           <xmpG:swatchName>R=242 G=242 B=242</xmpG:swatchName>
                           <xmpG:mode>RGB</xmpG:mode>
                           <xmpG:type>PROCESS</xmpG:type>
                           <xmpG:red>242</xmpG:red>
                           <xmpG:green>242</xmpG:green>
                           <xmpG:blue>242</xmpG:blue>
                        </rdf:li>
                     </rdf:Seq>
                  </xmpG:Colorants>
               </rdf:li>
               <rdf:li rdf:parseType="Resource">
                  <xmpG:groupName>Цветовая группа \"Web\"</xmpG:groupName>
                  <xmpG:groupType>1</xmpG:groupType>
                  <xmpG:Colorants>
                     <rdf:Seq>
                        <rdf:li rdf:parseType="Resource">
                           <xmpG:swatchName>R=63 G=169 B=245</xmpG:swatchName>
                           <xmpG:mode>RGB</xmpG:mode>
                           <xmpG:type>PROCESS</xmpG:type>
                           <xmpG:red>63</xmpG:red>
                           <xmpG:green>169</xmpG:green>
                           <xmpG:blue>245</xmpG:blue>
                        </rdf:li>
                        <rdf:li rdf:parseType="Resource">
                           <xmpG:swatchName>R=122 G=201 B=67</xmpG:swatchName>
                           <xmpG:mode>RGB</xmpG:mode>
                           <xmpG:type>PROCESS</xmpG:type>
                           <xmpG:red>122</xmpG:red>
                           <xmpG:green>201</xmpG:green>
                           <xmpG:blue>67</xmpG:blue>
                        </rdf:li>
                        <rdf:li rdf:parseType="Resource">
                           <xmpG:swatchName>R=255 G=147 B=30</xmpG:swatchName>
                           <xmpG:mode>RGB</xmpG:mode>
                           <xmpG:type>PROCESS</xmpG:type>
                           <xmpG:red>255</xmpG:red>
                           <xmpG:green>147</xmpG:green>
                           <xmpG:blue>30</xmpG:blue>
                        </rdf:li>
                        <rdf:li rdf:parseType="Resource">
                           <xmpG:swatchName>R=255 G=29 B=37</xmpG:swatchName>
                           <xmpG:mode>RGB</xmpG:mode>
                           <xmpG:type>PROCESS</xmpG:type>
                           <xmpG:red>255</xmpG:red>
                           <xmpG:green>29</xmpG:green>
                           <xmpG:blue>37</xmpG:blue>
                        </rdf:li>
                        <rdf:li rdf:parseType="Resource">
                           <xmpG:swatchName>R=255 G=123 B=172</xmpG:swatchName>
                           <xmpG:mode>RGB</xmpG:mode>
                           <xmpG:type>PROCESS</xmpG:type>
                           <xmpG:red>255</xmpG:red>
                           <xmpG:green>123</xmpG:green>
                           <xmpG:blue>172</xmpG:blue>
                        </rdf:li>
                        <rdf:li rdf:parseType="Resource">
                           <xmpG:swatchName>R=189 G=204 B=212</xmpG:swatchName>
                           <xmpG:mode>RGB</xmpG:mode>
                           <xmpG:type>PROCESS</xmpG:type>
                           <xmpG:red>189</xmpG:red>
                           <xmpG:green>204</xmpG:green>
                           <xmpG:blue>212</xmpG:blue>
                        </rdf:li>
                     </rdf:Seq>
                  </xmpG:Colorants>
               </rdf:li>
            </rdf:Seq>
         </xmpTPg:SwatchGroups>
         <pdf:Producer>Adobe PDF library 9.90</pdf:Producer>
      </rdf:Description>
   </rdf:RDF>
</x:xmpmeta>
                                                                                                    
                                                                                                    
                                                                                                    
                                                                                                    
                                                                                                    
                                                                                                    
                                                                                                    
                                                                                                    
                                                                                                    
                                                                                                    
                                                                                                    
                                                                                                    
                                                                                                    
                                                                                                    
                                                                                                    
                                                                                                    
                                                                                                    
                                                                                                    
                                                                                                    
                                                                                                    
                           
<?xpacket end="w"?>
	</metadata>
<path fill="#32CD32"      d="
	M712.094,799.037c5.711,1.112,11.635,2.44,17.798,4.027c10.399,6.089,19.077,11.392,19.077,11.392
	c7.147,2.599,11.695-1.299,11.695-1.299c-3.249-7.147-70.171-42.882-70.171-42.882c-14.993-6.435-28.978-11.682-42.023-15.942
	c-62.921-66.517-202.925-110.106-202.925-110.106c8.446-1.299,33.786-59.775,33.786-59.775c14.242,1.042,28.205-3.862,41.021-11.603
	c22.019,10.157,42.181,15.275,60.297,15.274c1.775,0,3.525-0.067,5.263-0.166c-5.147,2.004-9.972,4.936-11.89,9.174
	c0,0-2.647,13.999,12.191,7.185c0,0,5.024-1.735,6.474-7.873c0,0,6.67-4.633,9.556-8.339c2.514-0.149,4.929-0.433,7.09-0.764
	c-1.398,4.503,19.165,3.184,19.165,3.184c6.751,3.722,12.278,1.947,12.278,1.947c17.869-3.973,2.987-12.865,2.987-12.865
	c-4.886-1.823-10.667-1.368-16.084-0.037c2.564-2.59,4.548-5.054,4.548-5.054c7.768-2.054,9.395-6.674,9.395-6.674
	c2.339-4.637,6.931-16.098,6.931-16.098c1.147,6.536,6.496,8.637,6.496,8.637c15.679,7.981,13.78-6.89,13.78-6.89
	c-4.554-11.602-30.147-15.391-30.147-15.391c-3.869,1.44,3.617,10.586,2.68,11.909c-1.896,2.678-3.886,5.173-5.949,7.52
	c-2.484,0.072-4.598,0.56-4.598,0.56c-4.637,1.962-7.679,5.778-9.678,9.923c-2.768-1.034-7.016,1.271-7.016,1.271
	c-2.136,1.764-3.125,4.23-3.474,6.804c-0.836,0.372-1.683,0.721-2.535,1.058c-1.592-4.299-4.748-9.21-4.748-9.21
	c1.614-6.471-2.564-9.891-2.564-9.891c-7.983-8.157-12.516-3.635-14.539-0.113c-4.011-9.094-15.733-17.079-15.733-17.079
	c-6.029-0.425,0.192,15.802,0.192,15.802c-3.018,6.135,0.337,10.102,0.337,10.102c7.301,11.068,13.737,3.265,15.632,0.443
	c1.094,1.939,2.624,3.781,4.363,5.481c-0.448-0.026-0.713-0.015-0.713-0.015c-13.691-0.511-11.383,6.012-9.252,9.446
	c-17.797,0.057-36.555-5.255-54.632-13.212c5.468-3.775,10.679-8.007,15.574-12.423c1.622-0.115,3.651-0.661,6.21-1.836
	c0,0,5.024-1.735,6.474-7.873c0,0,6.67-4.633,9.556-8.339c2.514-0.149,4.929-0.433,7.09-0.764
	c-1.398,4.503,19.165,3.184,19.165,3.184c6.751,3.722,12.278,1.947,12.278,1.947c2.397-0.533,4.199-1.155,5.533-1.831
	c1.932,1.245,3.909,1.983,3.909,1.983c2.292,0.431,4.643,0.408,6.978,0.063c-7.615,14.072,6.273,15.101,9.358,6.561
	c0,0,2.947-6.694,3.177-11.069c2.092-1.137,4.014-2.351,5.688-3.503c1.552,4.47,18.597-4.911,18.597-4.911
	c8.148,0.528,11.857-3.227,11.857-3.227c13.077-10.607-5.306-12.368-5.306-12.368c-5.362,0.374-10.103,3.084-13.989,6.41
	c0.636-3.276,0.845-6.21,0.845-6.21c5.485-4.895,4.06-9.559,4.06-9.559c-2.44-14.838-15.374-4.142-15.374-4.142
	c-2.822,3.561-3.12,8.093-2.31,12.493c-3.038,0.211-5.311,3.914-5.311,3.914c-1.152,3.565,0.871,7.467,3.408,10.657
	c-0.612,0.077-1.221,0.161-1.821,0.251c-3.716-3.585-11.755-7.77-11.755-7.77c-2.573-6.266-8.3-7.562-8.3-7.562
	c-0.259-0.084-0.497-0.15-0.746-0.225c0.167-0.268,0.255-0.428,0.255-0.428c3.17-11.898-16.727-25.439-16.727-25.439
	c-6.029-0.425,0.192,15.802,0.192,15.802c-1.053,2.141-1.321,4.009-1.236,5.545c-0.583,0.101-0.943,0.182-0.943,0.182
	c-4.637,1.962-7.679,5.778-9.678,9.923c-2.768-1.034-1.177-9.249-1.177-9.249c7.797-13.644-1.299-7.185-1.299-7.185
	c-4.095,7.572-8.419,14.384-12.88,20.514c-1.263-2.364-2.416-4.157-2.416-4.157c1.614-6.471-2.564-9.891-2.564-9.891
	c-1.8-1.84-3.425-3.034-4.885-3.741c-0.141-0.616-0.246-0.978-0.246-0.978c-1.406-2.655-3.39-4.904-5.737-6.816
	c0.718-0.956,1.119-1.684,1.119-1.684c0.587-2.205,0.38-4.465-0.343-6.686c8.923,2.261,14.341-1.784,14.341-1.784
	c2.406-1.419-4.477,1.835-6.727,6.804c0,0-2.647,13.999,12.191,7.185c0,0,5.024-1.735,6.474-7.873c0,0,6.67-4.633,9.556-8.339
	c2.514-0.149,4.929-0.433,7.09-0.764c-1.398,4.503,19.165,3.184,19.165,3.184c5.104,2.814,9.504,2.486,11.349,2.158
	c2.428,3.076,7.054,6.357,13.063-1.413c0,0,3.398-3.456,1.06-9.412c0,0,3.139-6.637,3.496-11.006
	c2.124-1.097,4.081-2.274,5.788-3.395c1.422,4.498,18.734-4.559,18.734-4.559c8.13,0.681,11.948-3.003,11.948-3.003
	c13.38-10.357-4.947-12.464-4.947-12.464c-5.371,0.273-10.19,2.893-14.171,6.144c0.73-3.263,1.025-6.193,1.025-6.193
	c5.625-4.79,4.335-9.479,4.335-9.479c-2.01-14.88-15.25-4.431-15.25-4.431c-2.924,3.507-3.353,8.032-2.671,12.446
	c-3.043,0.154-5.423,3.812-5.423,3.812c-1.255,3.543,0.655,7.481,3.099,10.718c-0.614,0.065-1.226,0.138-1.827,0.217
	c-3.611-3.654-11.527-7.99-11.527-7.99c-2.391-6.313-8.079-7.717-8.079-7.717c-17.024-5.917-12.287,8.536-12.287,8.536
	c1.107,1.792,2.741,3.299,4.691,4.572c-0.051,0.011-0.086,0.019-0.086,0.019c-4.637,1.962-7.679,5.778-9.678,9.923
	c-2.768-1.034-7.016,1.271-7.016,1.271c-3.19,2.635-3.829,6.833-3.585,10.619c-0.579-0.179-1.159-0.349-1.735-0.511
	c-1.025-4.602-5.436-11.456-5.436-11.456c0.413-1.657,0.444-3.111,0.265-4.361c5.158-4.502,9.991-9.537,14.487-15.111
	c4.245-0.866,7.109-6.091,7.109-6.091c0.349-1.31,0.408-2.639,0.252-3.968c0.545-0.819,1.086-1.646,1.619-2.484
	c3.354,0.597,7.32-1.417,11.504-9.272c0,0,1.948-2.879,2.084-7.748c0.054-0.015,0.09-0.026,0.09-0.026
	c17.869-3.973,2.987-12.865,2.987-12.865c-0.597-0.223-1.212-0.399-1.836-0.551c-0.096-0.763-0.481-1.463-1.09-1.954
	c0.869-3.661,1.756-8.195,1.901-11.932c1.098-3.396,0.281-5.348-1.349-6.425c-0.411-0.42-0.926-0.674-1.565-0.723
	c-3.681-1.158-9.008,0.066-9.008,0.066c-3.268,1.382-5.73,3.694-7.607,6.384c-3.174-0.613-6.516-0.768-9.85-0.592
	c0.015-1.744-1.058-3.4-2.276-4.716c0.619-0.348,1.246-0.725,1.884-1.161c0,0,27.076,2.151,25.236-5.191
	c2.845,0.539,6.025,1.002,9.336,1.245c3.801,6.043,12.583,13.597,12.583,13.597c1.909,10.007,8.525,12.836,8.525,12.836
	c19.538,11.109,16.052-11.716,16.052-11.716c-2.962-8.102-11.182-13.284-19.182-16.521c2.95-1.037,5.656-2.539,7.928-4.646
	c0,0,14.144-19.853-10.235-18.727c0,0-0.35-0.017-0.939,0.024c4.689-5.676,8.243-12.319,8.015-19.313c0,0-5.718-23.696-20.851-4.549
	c0,0-5.501,5.575-3.376,16.127c0,0-5.809,11.175-7.158,18.678c-0.758,0.264-1.523,0.542-2.285,0.834
	c0.321-6.173-0.52-13.018-4.721-17.314c0,0-5.593-3.758-9.238-2.073c-1.892-4.858-4.499-9.433-8.081-12.813
	c-3.053-7.931-11.16-13.03-19.06-16.227c2.95-1.037,5.656-2.539,7.928-4.646c0,0,8.085-11.361,1.465-16.405
	c9.955-5.806,18.863-11.551,26.195-16.535c4.449-0.702,7.782-2.119,7.096-4.855c2.845,0.539,6.025,1.002,9.336,1.245
	c3.801,6.043,12.583,13.597,12.583,13.597c1.909,10.007,8.525,12.836,8.525,12.836c19.538,11.109,16.052-11.716,16.052-11.716
	c-2.962-8.102-11.182-13.284-19.182-16.521c2.95-1.037,5.656-2.539,7.928-4.646c0,0,14.144-19.853-10.235-18.727
	c0,0-0.35-0.017-0.939,0.024c4.689-5.676,8.243-12.319,8.015-19.313c0,0-5.718-23.696-20.851-4.549c0,0-5.501,5.575-3.376,16.127
	c0,0-5.809,11.175-7.158,18.678c-0.758,0.264-1.523,0.542-2.285,0.834c0.321-6.173-0.52-13.018-4.721-17.314
	c0,0-5.593-3.758-9.238-2.073c-2.42-6.215-6.007-11.971-11.316-15.344c4.371-0.482,8.508-1.779,11.95-4.32
	c0,0,16.27-18.151-8.082-19.752c0,0-7.712-1.367-15.196,6.369c0,0-12.499,1.556-19.443,4.701c-0.648-0.474-1.31-0.946-1.983-1.409
	c5.266-3.237,10.426-7.814,11.58-13.71c0,0-0.078-6.738-3.534-8.783c4.073-6.001,6.925-12.83,6.095-19.674
	c0,0-7.781-23.101-21.17-2.697c0,0-4.989,6.038-1.943,16.362c0,0-1.827,4.431-3.389,9.606c-1.561-4.911-3.816-9.622-7.073-13.257
	c7.538-1.511,5.544-14.612,5.544-14.612c-2.962-8.102-11.182-13.284-19.182-16.521c2.95-1.037,5.656-2.539,7.928-4.646
	c0,0,14.144-19.853-10.235-18.727c0,0-0.35-0.017-0.939,0.024c4.689-5.676,8.243-12.319,8.015-19.313c0,0-5.718-23.696-20.851-4.549
	c0,0-1.002,1.024-1.985,3.008c-3.325-3.461-8.512-4.5-16.015,4.992c0,0-2.805,2.869-3.629,8.358
	c-1.681-0.55-3.592-0.826-5.149-0.106c-2.632-6.759-6.638-12.981-12.744-16.18c0,0-18.215-5.195-16.206,9.075
	c-0.579-0.385-1.173-0.75-1.794-1.075c0,0-23.438-6.697-14.23,15.904c0,0,2.142,7.534,12.372,10.882c0,0,0.424,0.651,1.143,1.694
	c-0.251,0.227-0.52,0.478-0.8,0.751c-4.47-2.716-9.396-4.457-14.501-4.08c0,0-1.323,0.371-3.058,1.122
	c-2.958-5.367-8.774-10.528-18.402,1.654c0,0-10.197,32.929-10.534,34.805c-0.424,0.148-0.852,0.31-1.279,0.467l-4.992-32.03
	c-0.482-1.125-3.153-8.578-6.897-19.15c3.617,1.439,8.102,0.058,12.867-8.888c0,0,8.636-42.927,0.697-42.235
	c0,0-16.527,13.94-21.229,29.399c-3.094-8.792-6.368-18.117-9.494-27.034c1.4-0.573,2.869-1.334,4.392-2.373
	c0,0,27.076,2.151,25.236-5.191c2.845,0.539,6.025,1.002,9.336,1.245c3.801,6.043,12.583,13.597,12.583,13.597
	c1.909,10.007,8.525,12.836,8.525,12.836c19.538,11.109,16.052-11.716,16.052-11.716c-2.962-8.102-11.182-13.284-19.182-16.521
	c2.95-1.037,5.656-2.539,7.928-4.646c0,0,14.144-19.853-10.235-18.727c0,0-0.35-0.017-0.939,0.024
	c4.689-5.676,8.243-12.319,8.015-19.313c0,0-5.718-23.696-20.851-4.549c0,0-5.501,5.575-3.376,16.127c0,0-5.809,11.175-7.158,18.678
	c-0.758,0.264-1.523,0.542-2.285,0.834c0.321-6.173-0.52-13.018-4.721-17.314c0,0-5.593-3.758-9.238-2.073
	c-2.632-6.759-6.638-12.981-12.744-16.18c0,0-23.438-6.697-14.23,15.904c0,0,2.142,7.534,12.372,10.882c0,0,2.612,4.018,5.988,8.241
	c-4.35-1.324-8.877-2.11-13.208-1.852c-4.611-13.172-4.655-8.69-1.953,0.192c-2.081,0.287-4.102,0.836-6.018,1.721
	c0,0-19.596,14.498,3.934,20.976c0,0,3.883,1.526,9.431,0.002c4.278,12.624,8.48,24.267,10.834,30.701
	c-0.354,2.546-0.33,5.1,0.21,7.609c0,0,2.28,5.156,5.922,8.113c4.045,11.522,6.74,23.96,8.532,35.656
	c-0.924-0.585-5.783-3.484-9.07-1.965c-2.632-6.759-6.638-12.981-12.744-16.18c0,0-0.046-0.013-0.114-0.031
	c2.567-2.077,4.719-4.534,6.177-7.455c0,0,6.238-23.564-16.179-13.917c0,0-7.49,2.289-10.638,12.582c0,0-3.054,2.072-6.609,4.916
	c0.799-18.158,3.65-32.545,3.716-32.868c0.33-1.624-0.718-3.208-2.341-3.538c-1.624-0.33-3.207,0.717-3.538,2.34
	c-0.259,1.27-4.185,26.259-4.732,24.347c0,0-3.134-5.966-7.141-6.216c0.898-7.197,0.334-14.576-3.517-20.294
	c0,0-8.025-7.839-14.013-5.304c-7.87-12.363-12.563-20.265-12.563-20.265c-0.529,4.631,3.045,13.068,9.061,23.558
	c-1.191,2.028-2.105,5.001-2.567,9.235c0,0-1.698,7.646,5.709,15.456c0,0,0.388,4.777,1.349,10.097
	c-5.242-5.301-11.587-9.573-18.66-10.018c0,0-0.741,0.106-1.866,0.37c0.602-2.125,0.911-4.304,0.839-6.519
	c0,0-5.718-23.696-20.851-4.549c0,0-5.501,5.575-3.376,16.127c0,0-5.786,11.132-7.15,18.635c-0.049,0.009-0.098,0.007-0.147,0.018
	c-0.378,0.085-0.719,0.243-1.021,0.449c-0.375,0.137-0.75,0.267-1.125,0.411c0.321-6.173-0.52-13.018-4.721-17.314
	c0,0-5.593-3.758-9.238-2.073c-2.632-6.759-6.638-12.981-12.744-16.18c0,0-23.438-6.697-14.23,15.904c0,0,2.142,7.534,12.372,10.882
	c0,0,2.612,4.018,5.988,8.241c-7.133-2.171-14.745-2.912-21.179,0.061c0,0-19.596,14.498,3.934,20.976c0,0,7.278,2.894,16.168-3.174
	c0,0,27.076,2.151,25.236-5.191c0.335,0.063,0.69,0.122,1.034,0.183c0.538,1.657,0.803,4.952,0.062,5.017
	c0,0-26.2,22.078-22.025,41.478c0,0,9.854,22.296,21.328,0.756c0,0,4.418-6.468,0.444-16.471c0,0,4.209-13.597,3.667-21.041
	c4.408,11.352,11.496,26.438,22.315,41.777c6.11,8.662,13.813,17.878,23.338,26.556c-0.1-0.01-0.199-0.027-0.3-0.036
	c0,0-0.294,0.035-0.792,0.12c-5.856-1.292-11.834-1.39-17.064,0.906c0.074-0.816,0.104-1.638,0.077-2.465
	c0,0-5.718-23.696-20.851-4.549c0,0-5.501,5.575-3.376,16.127c0,0-0.452,0.87-1.133,2.286c-1.766-8.164-2.502-13.299-2.532-13.515
	c-0.226-1.641-1.744-2.788-3.38-2.563c-1.642,0.225-2.79,1.738-2.564,3.379c0.081,0.591,1.299,9.275,4.443,22.154
	c-0.867,2.382-1.61,4.807-1.993,6.937c-0.758,0.264-1.523,0.542-2.285,0.834c0.321-6.173-0.52-13.018-4.721-17.314
	c0,0-5.593-3.758-9.238-2.073c-2.632-6.759-6.638-12.981-12.744-16.18c0,0-0.046-0.013-0.114-0.031
	c2.567-2.077,4.719-4.534,6.177-7.455c0,0,6.238-23.564-16.179-13.917c0,0-7.49,2.289-10.638,12.582c0,0-10.424,7.069-15.179,13.027
	c-0.792-0.128-1.597-0.247-2.406-0.353c3.218-5.278,5.733-11.7,4.08-17.476c0,0-3.134-5.966-7.141-6.216
	c0.898-7.197,0.334-14.576-3.517-20.294c0,0-17.434-17.036-20.081,7.224c0,0-1.698,7.646,5.709,15.456c0,0,0.388,4.777,1.349,10.097
	c-5.242-5.301-11.587-9.573-18.66-10.018c0,0-24.133,3.436-6.514,20.323c0,0,5.026,6.007,15.732,4.896
	c0,0,22.796,14.767,24.669,7.433c2.247,1.827,4.824,3.747,7.621,5.535c0.47,7.124,4.604,17.945,4.604,17.945
	c-3.08,9.711,1.395,15.346,1.395,15.346c7.912,12.669,14.004,7.319,17.201,2.304c2.312,0.508,7.674,1.007,13.98-2.9
	c5.061,3.395,10.594,6.954,16.478,10.623c-6.65,8.167-13.496,19.604-11.207,30.244c0,0,0.116,0.261,0.335,0.699
	c-0.328,0.123-0.641,0.23-0.982,0.367c0,0-7.542,2.113-10.929,12.33c0,0-10.587,6.823-15.479,12.669
	c-0.789-0.146-1.591-0.284-2.398-0.409c3.341-5.201,6.005-11.563,4.487-17.376c0,0-2.993-6.037-6.994-6.381
	c1.066-7.174,0.674-14.564-3.042-20.37c0,0-17.032-17.439-20.245,6.753c0,0-1.876,7.604,5.346,15.585c0,0,0.276,4.785,1.113,10.126
	c-5.117-5.422-11.36-9.841-18.421-10.451c0,0-24.206,2.871-6.987,20.165c0,0,4.885,6.122,15.614,5.262
	c0,0,22.445,15.296,24.488,8.007c2.204,1.879,4.735,3.858,7.49,5.711c0.303,7.133,4.184,18.047,4.184,18.047
	c-3.306,9.637,1.037,15.374,1.037,15.374c11.457,19.337,19.749-2.212,19.749-2.212c1.446-8.504-3.123-17.081-8.463-23.859
	c3.075,0.563,6.171,0.6,9.189-0.102c0,0,2.604-1.203,5.148-3.233c1.756,1.103,4.129,2.117,7.285,2.986c0,0,7.278,2.894,16.168-3.174
	c0,0,3.42,0.27,7.742,0.291c1.299,5.471,2.722,10.667,4.267,15.593c-2.561,3.671-4.89,7.747-6.395,11.97
	c-2.665-5.743-8.633-13.116-19.145,0.184c0,0-0.987,1.011-1.963,2.966c-7.052-12.012-6.33-2.781-6.33-2.781
	c0.828,2.727,2.381,5.957,4.507,9.572c-0.147,1.869-0.069,3.985,0.411,6.37c0,0-5.809,11.175-7.158,18.678
	c-0.758,0.264-1.523,0.542-2.285,0.834c0.321-6.173-0.52-13.018-4.721-17.314c0,0-5.593-3.758-9.238-2.073
	c-2.632-6.759-6.638-12.981-12.744-16.18c0,0-23.438-6.697-14.23,15.904c0,0,1.852,6.461,10.257,10.075
	c1.781,2.554,3.835,5.413,6.143,8.497c-6.55-1.719-13.371-2.09-19.219,0.611c0,0-19.596,14.498,3.934,20.976
	c0,0,7.278,2.894,16.168-3.174c0,0,7.348,0.581,14.129,0.102c1.818,2.067,3.708,4.154,5.665,6.246
	c-3.024,3.227-6.592,7.473-9.592,12.255c-4.488-3.59-7.042-5.895-7.164-6.007c-1.223-1.117-3.12-1.033-4.238,0.19
	c-1.118,1.223-1.033,3.12,0.189,4.238c0.274,0.25,3.198,2.907,8.252,6.936c-2.692,5.638-4.187,11.701-2.933,17.527
	c0,0,9.854,22.296,21.328,0.756c0,0,0.929-1.38,1.552-3.827c2.604,1.718,5.356,3.47,8.244,5.232
	c-0.16,2.74,1.638,6.096,7.127,10.094c0,0,5.302,4.864,15.208,2.483c0,0,4.69,2.185,9.912,3.926c2.736,1.129,5.535,2.214,8.393,3.24
	c1.379,2.42,2.835,4.685,4.246,6.699c-7.449,1.346,5.66,25.135,5.66,25.135c-1.87,10.6,3.765,16.041,3.765,16.041
	c2.083,2.508,3.977,4.25,5.7,5.396c-15.57,17.132-31.127,25.23-46.357,24.114c-23.896-1.763-13.435-20.806-13.435-20.806
	c-2.32-6.347-8.76-10.406-15.026-12.942c2.311-0.812,4.431-1.989,6.211-3.639c0,0,11.08-15.552-8.017-14.67
	c0,0-0.274-0.014-0.735,0.019c3.673-4.446,6.457-9.65,6.278-15.129c0,0-4.479-18.562-16.333-3.564c0,0-4.309,4.368-2.644,12.633
	c0,0-4.55,8.754-5.608,14.631c-0.594,0.207-1.193,0.425-1.79,0.653c0.252-4.836-0.407-10.198-3.698-13.563
	c0,0-4.382-2.944-7.237-1.624c-2.062-5.294-5.2-10.169-9.983-12.674c0,0-18.36-5.246-11.147,12.459c0,0,1.678,5.901,9.691,8.524
	c0,0,2.047,3.148,4.691,6.455c-5.587-1.7-11.551-2.281-16.59,0.047c0,0-15.35,11.357,3.081,16.431c0,0,5.701,2.267,12.665-2.487
	c0,0,15.152,1.203,18.971-1.898c0.151,0.272,0.591,1.048,1.309,2.206c-2.642,2.322-19.928,18.146-16.906,32.191
	c0,0,7.719,17.465,16.707,0.592c0,0,3.461-5.066,0.348-12.902c0,0,2.881-9.316,2.907-15.292
	c7.306,10.303,23.342,28.654,45.818,30.329c1.095,0.082,2.188,0.122,3.283,0.122c16.79,0,33.597-9.594,50.097-28.568
	c3.406-0.798,5.634-4.384,6.948-7.449c5.209-0.631,18.617-2.738,34.116-8.949c1.539-0.617,3.054-1.259,4.545-1.922
	c-2.343,3.745-2.437,6.859-2.437,6.859c-3.358,24.173,17.709,11.91,17.709,11.91c4.484-4.024,6.839-9.894,7.955-16.115
	c3.093,2.837,4.838,4.415,4.838,4.415c27.938,8.446,17.543,70.821,17.543,70.821c-62.374,13.644-84.465,78.617-84.465,78.617
	c-1.299,7.147,8.446,3.898,8.446,3.898c37.035-79.917,76.018-72.77,76.018-72.77c2.599,0-1.949,8.446-1.949,8.446
	c-25.512,14.209-56.638,60.518-81.498,103.509c-5.765-0.202-9.464-0.202-9.464-0.202c-52.628-9.096-125.398,21.441-125.398,21.441
	c-36.098,4.776-65.625,11.132-89.754,18.159c-9.632-48.806-58.384-61.041-58.384-61.041c-9.096,2.599-5.198,7.797-5.198,7.797
	c33.136,0,54.577,50.679,54.577,50.679c-5.198-8.446-23.39-20.142-23.39-20.142c-4.548,1.949-5.198,7.797-5.198,7.797
	c10.104,3.722,16.505,11.906,20.545,20.277c-72.608,24.672-86.818,54.442-86.818,54.442c3.898,5.848,10.396,0.65,10.396,0.65
	c2.882-3.677,7.081-7.329,12.261-10.918l5.282,2.471c-11.045,3.898-30.537,33.786-30.537,33.786
	c6.976,7.147,16.243,1.949,16.243,1.949c9.746-45.481,68.871-42.882,68.871-42.882l-9.746,11.045
	c-27.289-17.543-40.933,47.43-40.933,47.43c3.249,3.898,9.746,0,9.746,0c11.045-46.781,25.989-37.684,25.989-37.684
	c-7.147,9.746-18.842,59.775-18.842,59.775c4.203,2.702,9.237,2.211,13.438,0.904c-6.49,9.538-8.241,16.639-8.241,16.639
	c4.548,7.797,11.695,3.898,11.695,3.898c11.695-38.334,35.735-40.283,35.735-40.283c-18.192,13.644-28.588,42.882-28.588,42.882
	c0.271,0.271-12.366,3.583-18.842,6.497c0,0-7.797,13.644,5.198,12.345c0,0,9.021-12.995,13.607,8.447
	c0,0-56.489,3.59-75.331,45.327c0,0,5.18,5.725,10.371,0c0,0,43.294-51.885,72.133-33.059c0,0,5.854,1.565,8.453-4.071
	c0,0-3.92-23.81-11.067-23.81c0,0,26.292-3.092,47.831,2.097c-10.115,25.83-16.365,44.687-16.365,44.687
	c15.195,6.481,22.49-11.679,22.49-11.679c12.995-27.938,27.289-27.289,27.289-27.289c3.638-33.261,9.539-58.481,16.238-77.589
	c8.303-2.285,17.015-3.873,25.126-4.981c-3.797,6.631-5.629,11.101-5.629,11.101c6.497,2.599,11.045,0,11.045,0
	c3.033-4.55,6.033-8.766,8.998-12.679c11.51-0.963,19.59-0.965,19.59-0.965l-1.299,9.746c1.439,1.798,6.659,0.809,11.035-0.433
	c-0.598,1.458-0.964,2.382-0.964,2.382c5.523,1.299,15.269-2.599,15.269-2.599c1.299-29.238,18.192-31.837,18.192-31.837
	c-6.497,10.396-7.147,31.187-7.147,31.187c4.548,0,9.746-3.249,9.746-3.249c1.299-14.294,8.446-28.588,8.446-28.588s0,0,1.949,1.949
	c1.949,1.949,0,22.741,0,22.741c3.898,0.65,11.045-3.249,11.045-3.249c2.599-11.695-4.548-31.187-4.548-31.187
	c1.174-3.058,2.356-6.053,3.542-9.017c15.803,5.052,25.046,16.164,25.046,16.164c6.497,9.096,13.328,0,13.328,0
	c-5.263-10.249-5.914-23.613-4.984-35.394c11.424,0.384,18.944,3.557,18.944,3.557l-7.147,19.492
	c4.548,3.898,11.695-1.299,11.695-1.299c2.46-7.381,6.822-14.731,12.17-21.74c1.795,5.551,3.037,8.745,3.037,8.745
	c7.411,1.299,10.132-3.249,10.132-3.249c-3.134-2.612-5.315-7.464-6.83-13.167c9.697-10.916,21.116-20.612,30.36-27.736
	c4.621,4.531,8.217,9.765,10.828,14.296l-10.317,11.663c5.848,6.497,45.481,1.299,45.481,1.299c0-8.446-16.243-18.192-16.243-18.192
	l-0.65-17.543c7.797-1.949,29.888,23.39,29.888,23.39c3.316,6.899,6.627,11.954,9.714,15.677c-1.085,3.555-1.917,5.764-1.917,5.764
	c3.249,7.147,10.396,3.249,10.396,3.249c0.167-0.31,0.331-0.652,0.492-1.009c4.039,2.383,6.655,2.308,6.655,2.308
	c0.212-3.712-1.158-8.031-3.588-12.658c2.317-10.719,3.588-23.727,3.588-23.727c15.593,11.695,25.989,49.379,25.989,49.379
	c4.548,4.548,16.893-0.65,16.893-0.65c0-9.096-14.294-26.639-14.294-26.639c16.388-3.605,34.096,6.017,47.624,16.438l-10.59,14.163
	c0,0,5.163,5.118,13.211,0c0,0,1.656-3.031,5.522-7.409c8.776,7.8,14.404,14.493,14.404,14.493
	c9.096,5.848,13.644,1.299,13.644,1.299c-5.093-9.931-11.611-18.008-18.795-24.589c3.543-2.862,7.799-5.825,12.864-8.64
	c12.419,22.258,18.925,37.778,18.925,37.778c6.497,3.249,14.944-0.65,14.944-0.65c-5.409-14.85-12.569-29.352-20.761-43.226
	c11.593-4.455,26.089-7.761,43.989-8.402c2.21,5.166,2.761,8.096,2.761,8.096c9.096,2.599,11.045-2.599,11.045-2.599
	c-0.486-1.852-1.056-3.691-1.688-5.52c5.183,0.157,10.615,0.529,16.311,1.145c32.093,22.849,49.051,45.958,49.051,45.958
	c5.848,4.548,14.944-0.65,14.944-0.65C746.978,830.002,726.715,811.661,712.094,799.037z M626.609,747.864
	c-21.617-5.706-40.209-8.487-56.016-9.368c-32.801-37.029-63.324-61.133-63.324-61.133
	C566.235,701.318,603.333,726.445,626.609,747.864z M444.245,634.481c-7.797,1.949-7.797-66.521-7.797-66.521
	c10.651-10.916,19.248-20.978,26.191-30.195c3.744,2.777,7.676,5.6,11.766,8.418C480.709,599.307,444.245,634.481,444.245,634.481z
	 M397.693,523.004c-3.464-3.005-7.88,4.404-11.008,11.237c-4.821-4.162-9.726-8.566-14.673-13.159
	c0.095-0.063,0.188-0.116,0.284-0.181c4.404-0.934,8.699-2.178,12.886-3.717c2.85-0.548,5.814-1.276,8.162-2.219
	c2.823,1.747,5.669,3.239,8.289,4.474c-1.798,1.508-0.808,3.909,1.41,6.504c-1.346,1.259-2.718,2.467-4.111,3.624
	C398.329,525.576,397.693,523.004,397.693,523.004z M338.043,514.466c-3.382-1.234-7.101-0.986-10.721,0.016
	c-1.718-0.358-3.427-0.752-5.128-1.174c2.222-1.824,4.502-4.103,6.473-6.225c2.397,0.409,4.814,0.729,7.254,0.933
	c2.32,0.194,4.626,0.291,6.927,0.291c2.72,0,5.425-0.142,8.116-0.413c0.262,0.255,0.518,0.502,0.779,0.756
	c-1.594,2.357-3.167,5.517-2.73,8.385c-2.785-0.061-5.564-0.229-8.333-0.5C339.33,515.269,338.043,514.466,338.043,514.466z
	 M339.805,473.414c6.641-6.396,11.279-15.708,13.985-22.328c1.686,0.133,3.368,0.2,5.041,0.199c0.587,0,1.173-0.012,1.758-0.027
	c2.152,7.162,6.911,15.803,6.911,15.803c-1.87,10.6,3.765,16.041,3.765,16.041c2.091,2.518,3.993,4.264,5.721,5.41
	c-0.802,3.154-0.826,6.022-0.826,6.022c0.005,0.025,0.012,0.05,0.017,0.075c-7.94,3.734-16.024,6.115-24.235,7.126
	c-2.336-2.328-4.663-4.673-6.977-7.025c1.882-2.048,2.557-3.773,2.557-3.773C355.313,475.88,346.136,473.478,339.805,473.414z
	 M346.745,443.947c-2.201-0.49-4.396-1.114-6.571-1.925c-14.002-5.223-25.553-16.701-34.584-34.288
	c0.651-2.875,0.826-7.07-1.214-12.206c0,0,6.439-20.811,2.349-25.024c0.203,0.001,0.41,0.006,0.613,0.006
	c3.034,0,6.015-0.071,8.949-0.204c4.102,4.743,9.165,9.101,9.165,9.101c1.909,10.007,8.525,12.836,8.525,12.836
	c19.538,11.109,16.052-11.716,16.052-11.716c-1.992-5.45-6.367-9.573-11.45-12.677c1.382-0.251,2.751-0.519,4.106-0.805
	c10.659,5.747,22.126,8.913,34.334,9.497c-4.666,7.191-8.143,15.673-6.416,23.701l2.748,9.041c-9.012-22.68-21.28-1.616-21.28-1.616
	c-0.984,2.938-1.239,6.023-0.969,9.138c-6.244-5.957-14.351-11.315-22.954-10.678c0,0-22.236,6.221-4.067,19.452
	c0,0,5.302,4.864,15.208,2.483c0,0,10.5,4.893,17.572,5.868c1.585,2.917,3.317,5.624,4.979,7.995
	c-1.534,0.277-2.186,1.515-2.271,3.291c-1.191,0.019-2.385,0.008-3.582-0.046c0.44-1.322,0.663-2.103,0.663-2.103
	C355.553,439.938,351.316,441.298,346.745,443.947z M468.848,272.005c2.95-1.037,5.656-2.539,7.928-4.646
	c0,0,1.701-2.391,2.907-5.465c0.112,0.294,0.207,0.572,0.331,0.876c0,0,2.142,7.534,12.372,10.882c0,0,2.612,4.018,5.988,8.241
	c-5.253-1.599-10.765-2.416-15.875-1.551C478.696,276.691,473.734,273.983,468.848,272.005z M536.014,337.771
	c0,0,0.501,1.72,2.122,3.877c-1.468,2.596-2.724,5.314-3.608,8.088c-1.205-0.138-2.423-0.182-3.653-0.091
	c0,0-22.236,6.221-4.067,19.452c0,0,5.149,4.7,14.76,2.574c0.669,0.32,1.371,0.546,2.1,0.647c3.235,1.404,10.559,4.392,15.919,5.131
	c0.593,1.091,1.209,2.14,1.831,3.166c-1.569,1.424-3.131,2.818-4.687,4.175c-6.322-0.114-20.729,12.635-20.729,12.635
	c-10.752,0.498-14.827,7.187-14.827,7.187c-3.053,3.959-4.456,7.097-4.76,9.586c-10.96,6.482-21.25,11.382-30.647,15.073
	c-0.66-0.501-1.128-0.794-1.128-0.794c-5.644-2.059-12.229-0.008-17.722,2.827c-0.048-0.815-0.11-1.626-0.181-2.425
	c6.281-4.319,14.074-14.214,14.074-14.214c10.491-2.408,13.307-9.717,13.307-9.717c11.217-21.674-12.731-17.128-12.731-17.128
	c-0.765,0.316-1.501,0.682-2.215,1.086c-0.075-6.946-3.827-13.444-8.656-18.952c5.238,1.338,9.975,2.064,9.975,2.064
	c7.263,7.943,15.011,6.794,15.011,6.794c24.388-0.915,8.634-19.517,8.634-19.517c-5.429-4.248-12.749-5.336-19.992-4.951
	c0-0.037-0.008-0.074-0.009-0.111c6.043-3.37,12.025-7.478,17.724-12.45c1.618,3.278,10.68,19.721,21.071,0.215
	c0,0,4.418-6.468,0.444-16.471c0,0,0.181-0.588,0.461-1.573c3.146-0.89,6.347-1.891,9.591-2.981
	C537.913,321.13,526.806,315.17,536.014,337.771z M466.336,507.134c-5.676-9.563-13.799-9.697-13.799-9.697
	c-6.821-0.996-13.717,1.69-19.816,5.615c-0.302-0.539-0.725-0.993-1.211-1.388c-0.529-11.359-1-22.664-1.37-31.996
	c7.404,3.195,18.262,7.38,31.333,10.936c-0.59,3.934,1.625,7.845,11.527,9.179c0,0,5.796,1.438,12.56-3.451
	c-3.332,10.723-8.649,21.95-14.635,32.257C468.332,511.643,466.336,507.134,466.336,507.134z M473.08,537.839
	c-2.349-1.667-4.632-3.326-6.851-4.969c1.449-2.031,2.823-4.023,4.111-5.965C471.469,530.62,472.37,534.264,473.08,537.839z
	 M390.686,482.165c0.914-2.263,1.314-4.115,1.314-4.115c0.06-7.087-3.75-13.719-8.665-19.325c5.238,1.338,9.975,2.064,9.975,2.064
	c2.5,2.734,5.051,4.375,7.331,5.372c-3.244,4.491-4.465,10.16-4.55,15.983c-0.821,0.645-1.645,1.262-2.47,1.876
	C392.585,483.284,391.603,482.661,390.686,482.165z M391.271,435.55c-5.644-2.059-12.229-0.008-17.722,2.827
	c-0.048-0.815-0.11-1.626-0.181-2.425c6.281-4.319,14.074-14.214,14.074-14.214c10.491-2.408,13.307-9.717,13.307-9.717
	c7.428-14.352-0.562-17.205-6.809-17.496c0.258-2.666,0.005-6.05-1.563-9.997c0,0,1.244-4.024,2.292-8.889
	c3.264-0.471,6.574-1.109,9.927-1.909c-8.959,12.67,0.018,16.282,6.038,17.309c0.28,4.192,0.565,8.96,0.853,14.172
	c-1.456,2.103-1.809,4.758,0.425,7.983c0.206,4.005,0.413,8.196,0.619,12.533c-4.542,3.118-11.363,7.365-19.52,11.102
	C392.04,436.029,391.271,435.55,391.271,435.55z M351.825,364.785c5.704-1.623,11.141-3.598,16.316-5.912
	c2.356,0.127,6.644,0.283,10.921,0.068c3.045,1.605,5.93,3.119,8.602,4.518c-1.884,1.92-4.113,4.353-6.339,7.137
	C370.896,370.612,361.043,368.686,351.825,364.785z M501.331,334.135c-6.335,6.092-13.187,10.948-20.15,14.797
	c-1.383-1.316-2.728-2.155-2.728-2.155c-5.644-2.059-12.229-0.008-17.722,2.827c-0.048-0.815-0.11-1.626-0.181-2.425
	c4.033-2.773,8.685-7.841,11.502-11.117c5.171-2.107,10.13-4.179,14.868-6.213c5.046-0.091,10.271-0.53,15.668-1.308
	C501.985,330.389,501.554,332.261,501.331,334.135z M434.766,440.383c-3.548,0.036-5.465-0.172-5.465-0.172
	c-0.732-4.099-1.331-10.744-1.822-18.569c1.555-0.009,3.282-0.196,5.18-0.652c0,0,10.5,4.893,17.572,5.868
	c1.585,2.917,3.317,5.624,4.979,7.995c-1.667,0.301-2.299,1.731-2.284,3.762c-1.371,0.235-2.69,0.441-3.954,0.62
	c0.699-2.007,1.049-3.24,1.049-3.24C448.493,431.639,440.893,435.97,434.766,440.383z M427.846,383.801
	c12.899,3.571,10.183-14.275,10.183-14.275c-0.048-0.131-0.109-0.256-0.16-0.385c0.065-0.13,0.126-0.256,0.19-0.385
	c3.467-0.415,7.256-1.006,11.274-1.83c2.319,5.862,5.349,11.365,5.349,11.365c-1.12,6.35,0.452,10.833,1.893,13.42
	c-6.036,0.149-11.133,8.885-11.133,8.885c-0.984,2.938-1.239,6.023-0.969,9.138c-5.04-4.808-11.294-9.221-18.042-10.412
	c-0.166-4.654-0.307-9.308-0.426-13.769C426.633,384.99,427.251,384.412,427.846,383.801z M396.963,443.115
	c0.004-0.44-0.072-0.872-0.191-1.296c6.333-2.992,11.825-6.241,16.088-9.027c0.195,4.268,0.389,8.643,0.581,13.077
	C408.564,443.444,402.741,442.808,396.963,443.115z M460.871,459.989c-1.382,7.834,1.329,12.836,2.841,14.921
	c-11.84-3.177-21.927-6.924-29.177-9.944c6.01-6.401,10.244-15.05,12.745-21.232c2.081-0.477,4.133-0.969,6.157-1.474
	C455.195,449.688,460.871,459.989,460.871,459.989z M388.939,231.94c-0.328,0.123-0.641,0.23-0.982,0.367
	c0,0-3.271-8.189-14.416-7.675c0,0-0.35-0.017-0.939,0.024c3.276-3.966,5.993-8.404,7.258-13.104
	c3.608,1.224,7.497,1.955,11.663,2.191C388.84,219.374,388.719,231.503,388.939,231.94z M403.472,247.184
	c1.847,1.667,4.393,3.316,7.914,4.468c0,0,2.161,3.32,5.088,7.095c0.015,0.297,0.026,0.598,0.04,0.896
	c-6.881-1.97-14.143-2.543-20.319,0.31c0,0-1.032,0.769-2.333,2.018c-0.805-1.486-1.787-2.865-2.917-4.136
	C396.149,255.367,400.743,251.94,403.472,247.184z M454.718,518.667c5.814-3.616,8.193-6.874,8.609-9.691
	c0.136,0.284,0.279,0.57,0.412,0.853c1.97,4.191,3.637,8.309,5.052,12.356c-1.791,2.946-3.623,5.797-5.463,8.519
	c-4.643-3.497-8.95-6.885-12.867-10.061C453.212,519.845,454.718,518.667,454.718,518.667z M481.929,577.305
	c1.416-7.688,0.436-17.391-1.582-27.109c10.93,7.239,21.499,13.449,31.691,18.623C494.583,576.595,481.929,577.305,481.929,577.305z
	 M553.081,523c-0.448-0.026-0.713-0.015-0.713-0.015c-18.514-0.69-7.773,11.486-7.773,11.486c1.726,1.292,3.781,2.214,6.021,2.849
	c-6.075,1.986-12.318,5.164-14.567,10.133c0,0-0.757,4.014,0.818,6.697c-6.159,4.622-12.189,8.333-17.863,11.299
	c-14.467-6.996-28.337-15.473-40.733-23.983c-1.726-6.531-3.74-12.794-5.625-18.135c9.648-15.287,14.328-27.669,16.431-37.156
	c7.611,0.986,15.691,1.56,24.006,1.459c-1.242,5.718,17.837,17.995,17.837,17.995c3.396,10.214,10.939,12.321,10.939,12.321
	c3.521,1.415,6.328,2.043,8.561,2.097C551.219,521.069,552.117,522.057,553.081,523z M593.67,425.018
	c0.685,2.323,1.352,4.065,1.352,4.065c-3.018,6.135,0.337,10.102,0.337,10.102c1.017,1.542,2.016,2.705,2.99,3.578
	c-3.533,4.216-7.271,8.096-11.212,11.635c-0.001,0-0.006-0.005-0.006-0.005c-11.492-11.743-15.835,2.79-15.835,2.79
	c-0.02,0.507,0.002,1.011,0.059,1.512c-4.83-1.712-10.501-1.256-15.822,0.052c2.564-2.59,4.548-5.054,4.548-5.054
	c7.768-2.054,9.395-6.674,9.395-6.674c6.993-13.862-10.807-9.754-10.807-9.754c-4.637,1.962-7.679,5.778-9.678,9.923
	c-2.768-1.034-7.016,1.271-7.016,1.271c-3.19,2.635-3.829,6.833-3.585,10.619c-0.579-0.179-1.159-0.349-1.735-0.511
	c-0.682-3.063-2.861-7.115-4.244-9.488c1.999-4.317,1.584-7.679,1.584-7.679c-0.439-24.401-19.344-9.014-19.344-9.014
	c-2.062,2.532-3.415,5.504-4.25,8.699c-0.044-0.054-0.075-0.091-0.075-0.091c-5.429-4.248-12.749-5.336-19.992-4.951
	c0.015-1.73-1.04-3.371-2.245-4.681c10.693-4.129,20.298-8.617,28.89-13.268c2.756,5.732,13.669,5.643,13.669,5.643
	c16.736-3.61,25.973-28.629,28.195-35.431c1.633-1.531,3.173-3.031,4.613-4.49c0.372,0.556-0.355,11.532,2.744,18.549
	c0.223,0.646,0.516,1.269,0.831,1.837c1.696,3.653,3.196,6.377,3.196,6.377c-0.063,0.357-0.097,0.693-0.143,1.039
	c-4.295,1.953-8.085,4.628-9.731,8.265c0,0-2.647,13.999,12.191,7.185c0,0,0.523-0.183,1.277-0.631
	c0.102,0.112,0.172,0.182,0.172,0.182C585.67,440.684,591.487,430.842,593.67,425.018z M582.014,343.771
	c0,0,0.096,0.321,0.322,0.844c-2.34,2.643-4.284,5.767-5.894,9.051c-0.205-0.554-0.365-0.866-0.365-0.866
	c-3.667-9.229-7.873-11.214-11.573-10.323c-1.311-4.353-3.114-8.696-5.588-12.418c0.19-1.92,0.236-3.719,0.058-5.219
	c4.772,1.28,7.382-0.396,8.776-3.005c4.01,4.532,8.7,8.572,8.7,8.572c0.817,4.283,2.496,7.242,4.149,9.237
	C580.942,340.899,581.401,342.265,582.014,343.771z M605.575,278.031c-6.692,4.322-14.282,8.975-22.504,13.605
	c-1.082-0.052-2.241-0.063-3.53-0.003c0,0-0.35-0.017-0.939,0.024c2.611-3.16,4.867-6.62,6.317-10.273
	c2.688,0.473,8.128,0.638,14.378-3.628C599.297,277.755,601.969,277.967,605.575,278.031z M571.783,241.656
	c2.527,1.841,5.3,3.217,8.324,3.894c0,0,1.967,0.031,4.445-0.37c1.836,2.253,4.881,4.853,9.834,6.474c0,0,2.612,4.018,5.988,8.241
	c-2.482-0.755-7.91-2.117-8.199-1.724c-4.517-0.476-8.977-0.065-12.98,1.784c0,0-0.31,0.23-0.805,0.643
	c-1.919-0.587-4.208-0.284-6.905,1.559C573.814,255.83,573.269,248.341,571.783,241.656z M507.388,188.68
	c7.263,7.943,15.011,6.794,15.011,6.794c2.129-0.08,3.946-0.297,5.5-0.622c1.733,2.304,4.607,4.962,9.339,6.789
	c0,0,13.589,23.518,18.591,17.837c1.171,2.649,2.593,5.53,4.271,8.395c-2.821,6.558-4.059,18.076-4.059,18.076
	c-0.889,0.9-1.644,1.797-2.287,2.677c-1.667-4.465-5.854-12.424-13.436-7.99c-0.005-2.106-0.032-4.23-0.095-6.384
	c7.024-2.967,14.93-7.31,11.947-10.922c0,0-33.045-9.051-46.653,5.392c0,0-12.771,20.763,11.476,17.993
	c0,0,7.832-0.031,13.816-8.978c0,0,1.388-0.435,3.456-1.173c0.066,3.264,0.074,6.478,0.002,9.624
	c-0.167,0.203-0.33,0.393-0.499,0.606c0,0-5.501,5.575-3.376,16.127c0,0-1.259,2.422-2.74,5.766
	c-0.457-0.29-0.923-0.568-1.406-0.821c0,0-4.296-1.222-8.487-0.852c-0.453-0.672-0.958-1.309-1.531-1.895
	c0,0-5.593-3.758-9.238-2.073c-2.632-6.759-6.638-12.981-12.744-16.18c0,0-13.431-3.829-15.957,4.121
	c-2.123-1.642-5.773-2.63-11.746-2.355c0,0-0.35-0.017-0.939,0.024c3.038-3.678,5.592-7.763,6.957-12.084
	c5.67-6.153,11.266-13.427,16.241-21.935c12.905,11.562,17.278-8.696,17.278-8.696c0.025-3.011-0.653-5.939-1.813-8.742
	c0.222-0.386,0.444-0.782,0.667-1.201c0,0,1.849-2.735,2.07-7.38C507.245,188.658,507.388,188.68,507.388,188.68z M483.785,208.914
	c0.306,0.502,0.596,0.912,0.841,1.234c-3.373,5.965-7.27,11.628-11.691,16.98c-1.91-5.404-7.989-17.744-20.169-2.334
	c0,0-5.501,5.575-3.376,16.127c0,0-3.018,5.806-5.208,11.858c-1.449,0.955-2.873,1.855-4.266,2.702
	c-0.326-4.646-1.594-9.196-4.69-12.362c0,0-5.593-3.758-9.238-2.073c-1.137-2.921-2.533-5.74-4.242-8.26
	c-1.766-6.312-3.184-14.618-4.205-21.817c4.049-0.27,10.401-1.008,17.526-3.015c2.382,3.193,4.91,4.287,4.91,4.287
	c19.538,11.109,16.052-11.716,16.052-11.716c-0.124-0.34-0.271-0.668-0.414-0.998c0.799-0.874,1.563-1.791,2.298-2.732
	c3.261-2.522,6.355-5.486,9.129-8.975c0.447-0.562,0.879-1.135,1.301-1.715c-2.574,5.526-3.964,11.445-2.74,17.135
	C465.604,203.242,473.713,221.589,483.785,208.914z M444.776,179.36c0,0,5.862-8.242,3.512-13.804
	c2.951,0.248,7.683-0.165,13.009-3.8c0,0,4.534,0.359,9.764,0.282c0.235,0.429,0.477,0.843,0.717,1.262
	c-0.469,2.261-1.057,4.438-1.766,6.529c-4.482-4.12-22.658,11.97-22.658,11.97C443.217,181.99,442.504,181.466,444.776,179.36z
	 M418.869,185.809c2.316,3.683,6.475,7.917,9.376,10.671c-0.953,2.952-0.555,5.148,0.564,6.792
	c-4.956,1.084-9.235,1.539-12.064,1.724c-0.713-5.705-1.089-9.734-1.089-9.734c0.121-3.352,0.226-6.585,0.321-9.729
	C416.928,185.641,417.89,185.737,418.869,185.809z M279.242,157.662c0.54,0.052,1.079,0.106,1.627,0.147
	c3.801,6.043,12.583,13.597,12.583,13.597c0.963,5.05,3.124,8.268,5.029,10.221c-0.207,0.533-0.397,1.075-0.559,1.628
	c0,0-1.933,24.299,18.403,10.807c0,0,6.962-3.589,8.223-14.278c0,0,19.787-19.379,12.474-22.544c0,0-12.13,2.524-23.011,8.675
	c-3.934-4.462-9.6-7.658-15.165-9.91c2.95-1.037,5.656-2.539,7.928-4.646c0,0,2.109-2.969,3.294-6.543
	c1.175,0.061,2.437,0.036,3.793-0.105c0,0,22.796,14.767,24.669,7.433c2.247,1.827,4.824,3.747,7.621,5.535
	c0.47,7.124,4.604,17.945,4.604,17.945c-3.08,9.711,1.395,15.346,1.395,15.346c3.487,5.584,6.62,7.665,9.308,7.819
	c-0.551,0.61-1.114,1.273-1.693,2.005c0,0-5.501,5.575-3.376,16.127c0,0-0.173,0.333-0.461,0.912
	c-0.557-1.78-1.315-3.482-2.327-5.064c0,0-15.665-16.035-19.781,3.998c-0.285,0.069-0.565,0.155-0.833,0.279
	c-2.632-6.759-6.638-12.981-12.744-16.18c0,0-14.432-4.119-16.192,5.033c-0.222-0.31-0.45-0.611-0.671-0.924
	C290.644,186.962,283.157,168.986,279.242,157.662z M306.776,271.36c0,0,5.862-8.242,3.512-13.804
	c1.636,0.138,3.821,0.069,6.349-0.636c2.399,1.705,6.781,3.82,13.386,3.291c0,0,3.837,2.613,8.481,5.164
	c-3.793,4.712-7.592,10.464-9.691,16.509c-4.334,2.41-8.42,5.402-11.45,9.059c-3.397-7.2-11.051-11.916-18.515-14.937
	C301.797,274.969,304.504,273.466,306.776,271.36z M234.009,256.325c0,0,1.683-0.827,3.647-2.247
	c1.107,0.581,2.338,1.118,3.73,1.574c0,0,2.612,4.018,5.988,8.241c-6.022-1.833-12.384-2.637-18.092-1.056
	c-1.341-2.188-2.865-4.269-4.457-6.195C227.913,257.133,231.009,257.098,234.009,256.325z M294.299,312.419
	c4.233,8.356,9.236,16.774,15.089,24.637c-1.814,3.939-4.327,9.933-5.156,14.543c-0.758,0.264-1.523,0.542-2.285,0.834
	c0.321-6.173-0.52-13.018-4.721-17.314c0,0-5.593-3.758-9.238-2.073c-2.632-6.759-6.638-12.981-12.744-16.18
	c0,0-0.473-0.133-1.241-0.297c0.113-2.505-0.241-5.551-1.627-9.042c0,0,0.925-2.991,1.851-6.93
	C280.697,304.49,287.435,308.453,294.299,312.419z M265.472,339.184c1.847,1.667,4.393,3.316,7.914,4.468
	c0,0,2.612,4.018,5.988,8.241c-7.133-2.171-14.745-2.912-21.179,0.061c0,0-1.522,1.127-3.209,2.892
	c-1.301-0.99-2.912-1.995-4.891-3.007c0,0-0.295-0.189-0.827-0.445C255.934,348.875,262.115,345.036,265.472,339.184z
	 M292.181,369.965c3.95,0.266,7.833,0.441,11.637,0.51c-1.558,1.395-5.173,4.773-9.018,9.335
	C293.88,376.639,293.005,373.362,292.181,369.965z M283.347,412.72c2.368,4.366,10.121,16.025,19.12,1.79
	c9.427,16.708,21.316,27.801,35.609,33.133c0.693,0.258,1.387,0.491,2.081,0.719c-3.87,2.882-6.881,5.546-6.881,5.546
	c-10.752,0.498-14.827,7.187-14.827,7.187c-0.909,1.178-1.655,2.276-2.287,3.313c-9.331-10.126-17.885-19.687-25.157-27.951
	c2.704-5.721,4.958-15.629-12.465-14.824c0,0-0.161-0.006-0.428,0c-0.085-0.099-0.173-0.201-0.257-0.299
	C280.038,418.65,281.962,415.761,283.347,412.72z M254.376,476.527c0,0,1.51-4.881,2.605-10.394
	c6.788,6.546,14.489,13.179,22.922,19.191c-1.635-0.294-3.298-0.405-4.981-0.281c0,0-4.811,1.347-8.129,4.119
	c-3.908-2.385-7.567-4.756-10.943-7.043C255.626,480.413,255.178,478.546,254.376,476.527z M338.711,555.34
	c-0.48-6.474-4.067-12.523-8.604-17.698c5.238,1.338,9.975,2.064,9.975,2.064c7.263,7.943,15.011,6.794,15.011,6.794
	c24.388-0.915,8.634-19.517,8.634-19.517c-2.477-1.938-5.35-3.212-8.428-3.995c0.101-0.004,0.202-0.006,0.302-0.01
	c1.428,0.428,3.12,0.769,5.135,0.993c0,0,2.626,0.586,6.358-0.543c6.313,6.019,12.142,11.51,17.21,16.246
	C365.761,550.302,346.9,554.109,338.711,555.34z M399.951,545.207c0.094-2.988-0.011-5.902-0.218-8.592
	c2.674-2.066,5.212-4.239,7.616-6.509c3.375,2.852,7.242,5.496,9.567,7.016c0.434,12.684,0.69,20.691,0.69,20.691
	C412.063,554.332,406.132,550.061,399.951,545.207z M422.804,659.82l0.65,29.238c1.299,13.644-5.198,21.441-5.198,21.441
	c-42.121,14.56-54.274,34.113-57.449,41.34c-4.508-0.455-8.904-0.79-12.927-1.035C387.511,683.487,422.804,659.82,422.804,659.82z
	 M279.852,763.652c16.248-1.889,31.079-2.546,42.196-2.711c-16.547,4.761-33.555,11.868-49.963,20.006
	C274.48,773.773,277.078,767.73,279.852,763.652z M268.808,765.107c-1.373,4.903-3.357,12.057-5.603,20.37
	c-14.939,7.834-29.199,16.347-41.936,24.506c-3.553,1.586-7.147,3.972-10.755,7.032c-25.76,17.196-43.054,31.228-43.054,31.228
	c-6.42,6.129-16.246,12.909-25.125,18.523c10.158-22.711,25.775-55.557,25.775-55.557
	C189.096,783.225,231.239,770.653,268.808,765.107z M115.019,803.65c33.932-10.828,63.487-17.782,63.487-17.782
	c-10.396,3.249-63.674,28.588-63.674,28.588C115.094,810.697,115.141,807.104,115.019,803.65z M49.209,833.948l-5.477-1.712
	c15.985-8.787,36.847-16.999,57.373-23.998c1.675,6.57,2.032,11.415,2.032,11.415l-5.848,4.548
	C83.645,820.954,49.209,833.948,49.209,833.948z M82.421,903.333c18.606-70.964,73.344-90.826,73.344-90.826l-25.352,61.492
	c-5.044,2.942-8.434,4.78-8.434,4.78C103.874,885.675,91.211,894.67,82.421,903.333z M137.526,945.826
	c-9.881-3.386-26.226-7.674-44.071-6.921c4.765-25.224,38.919-48.43,38.919-48.43l-14.043,33.136
	c6.748,3.249,12.744-1.299,12.744-1.299c2.678-6.902,5.782-13.524,9.238-19.887l8.305,0.395c2.824-5.084,7.538-9.282,13.393-12.752
	C152.776,909.001,144.409,928.612,137.526,945.826z M168.743,876.708c-8.757,4.482-15.938,9.481-21.391,13.857
	c11.016-17.058,24.625-32.033,39.524-45.125C180.659,854.886,174.569,865.536,168.743,876.708z M245.676,860.513l-7.396,4.622
	c-2.098-0.305-4.166-0.543-6.209-0.733c5.347-6.2,10.56-11.4,15.622-15.753C246.785,853.22,246.087,857.254,245.676,860.513z
	 M217.292,863.966c-10.197,0.353-19.576,2.042-28.057,4.541c17.58-40.996,38-46.253,38-46.253
	c10.976-1.577,18.373,3.639,23.257,10.132C235.882,841.201,224.911,853.341,217.292,863.966z M254.288,819.756
	c-7.135-7.824-13.291-10.067-15.749-10.682c7.194-4.098,14.36-7.862,21.386-11.313C258.046,804.888,256.112,812.392,254.288,819.756
	z M269.467,844.994c-1.312-3.161-2.654-6.03-4.009-8.664c6.206-3.266,12.099-5.287,17.631-6.363
	C274.498,838.202,269.467,844.994,269.467,844.994z M294.157,833.948c-2.288,0.187-4.694,1.151-7.119,2.619
	c2.667-2.817,5.354-5.317,8.044-7.549c0.466,0.018,0.929,0.04,1.388,0.07C294.967,832.214,294.157,833.948,294.157,833.948z
	 M304.177,813.411c-3.418,2.117-6.64,4.386-9.648,6.698c-12.543-0.037-23.681,2.59-33.48,6.829
	c2.005-10.902,4.443-22.582,7.249-33.175c22.656-10.52,43.285-17.715,57.795-22.176
	C317.261,787.693,309.714,802.355,304.177,813.411z M319.125,823.408c-2.203-0.57-4.37-1.056-6.505-1.472
	c0.675-1.616,1.35-3.226,2.028-4.815c2.428-0.991,4.816-1.798,7.154-2.459C320.63,818.252,319.732,821.275,319.125,823.408z
	 M331.842,827.451c-2.142-0.807-4.245-1.519-6.328-2.184c0.713-0.582,1.131-1.065,1.131-1.065c0.548-3.834,1.556-7.59,2.892-11.236
	c1.458-0.229,2.882-0.398,4.274-0.525L331.842,827.451z M325.684,803.655c-2.043,0.583-4.05,1.258-6.02,2.008
	c6.128-13.634,12.324-26.143,18.477-37.575c5.918-1.613,9.293-2.361,9.293-2.361C338.15,774.68,330.727,790.404,325.684,803.655z
	 M369.526,807.734c-8.903-4.544-17.654-6.475-26.054-6.56c1.554-9.649,3.62-16.494,3.646-16.579
	c9.996-11.547,19.81-18.869,19.81-18.869c1.987,13.623,4.891,25.881,7.533,35.368C371.409,805.152,369.526,807.734,369.526,807.734z
	 M381.803,791.479c-1.422-12.516-0.968-24.453-0.968-24.453c7.674-2.05,14.414-1.388,20.255,0.858
	C394.548,775.321,387.546,784.072,381.803,791.479z M419.555,751.432c-2.294,0.43-6.011,3.413-10.412,7.798
	c-10.731-5.348-20.967-5.215-27.445-4.253c-2.296-0.497-4.681-0.943-7.111-1.343c0.917-21.749,44.968-29.491,44.968-29.491
	C426.702,726.093,419.555,751.432,419.555,751.432z M430.573,779.03c-2.268-3.41-4.627-6.359-7.036-8.92
	c5.098-3.621,8.364-5.683,8.364-5.683L430.573,779.03z M435.149,555.864c-0.174-0.998-0.35-2.353-0.528-4
	c17.45,4.049,11.116-16.013,11.116-16.013c-2.786-4.974-7.601-8.449-13.046-10.884c-0.051-0.911-0.102-1.832-0.153-2.762
	c3.353-1.063,5.776-1.993,5.776-1.993c1.065,0.342,2.074,0.579,3.048,0.76c5.301,4.442,11.532,9.464,18.489,14.71
	C447.78,552.414,436.313,562.559,435.149,555.864z M446.194,658.521c44.784,12.685,82.142,45.172,110.883,79.668
	c-13.58,0.155-24.678,1.76-33.519,3.893c-14.263-5.815-30.365-8.171-47.891-4.017c-14.705-10.634-32.072-22.369-32.072-22.369
	C433.849,691.657,446.194,658.521,446.194,658.521z M442.296,749.483l0.65-12.995c2.556-1.789,9.539,1.858,17.067,6.933
	c-4.909,2.198-9.912,4.933-14.999,8.252C443.29,750.266,442.296,749.483,442.296,749.483z M486.818,792.477
	c-10.494-13.293-25.501-26.951-35.129-35.207c4.067-2.422,9.8-5.386,16.757-7.794c8.652,6.537,16.083,13.001,16.083,13.001
	C489.185,770.239,488.647,782.15,486.818,792.477z M495.574,754.031c-0.981-1.472-4.763-4.632-9.871-8.536
	c7.255-0.835,15.161-0.674,23.443,1.158C499.828,750.425,495.574,754.031,495.574,754.031z M522.213,789.117l-16.243-22.091
	c1.711-5.56,14.399-10.274,22.873-12.848c15.716,8.69,31.978,24.539,47.185,51.547C549.821,790.261,522.213,789.117,522.213,789.117
	z M591.084,805.36c0,0-18.557-33.136-49.435-53.615c9.023-0.504,17.763-0.482,26.219-0.008
	c13.072,17.142,24.004,34.208,32.655,49.058C597.38,802.196,594.232,803.712,591.084,805.36z M613.805,795.536
	c-9.472-15.112-20.042-29.395-30.759-42.451c24.475,3.024,46.289,9.792,65.307,18.308c4.308,5.631,7.533,10.683,9.948,15.01
	C644.38,787.455,629.284,790.161,613.805,795.536z M625.376,303.527c3.974,10.003-0.444,16.471-0.444,16.471
	c-11.474,21.539-21.328-0.756-21.328-0.756c-4.174-19.4,22.025-41.478,22.025-41.478
	C633.567,277.071,625.376,303.527,625.376,303.527z M159.923,275.255c5.553-19.051,39.1-26.015,39.1-26.015
	c7.313,3.166-12.474,22.544-12.474,22.544c-1.261,10.689-8.223,14.278-8.223,14.278C157.99,299.554,159.923,275.255,159.923,275.255
	z M175.188,390.371c5.996-18.917,39.697-25.095,39.697-25.095c7.237,3.336-12.997,22.247-12.997,22.247
	c-1.51,10.657-8.554,14.082-8.554,14.082C172.688,414.618,175.188,390.371,175.188,390.371z M265.223,540.011
	c0,0,4.075-6.689,14.827-7.187c0,0,20.737-18.358,23.374-10.839c0,0-9.332,32.967-28.73,37.15
	C274.694,559.136,250.318,559.336,265.223,540.011z M680.421,482.888c0,0,1.468,14.903-13.975,6.628c0,0-5.287-2.201-6.245-8.757
	c0,0-15.027-11.885-9.473-13.827C650.728,466.932,676.204,471.203,680.421,482.888z M608.692,606.331c0,0-6.221-16.226-0.192-15.802
	c0,0,19.897,13.541,16.727,25.439c0,0-7.483,13.674-16.197,0.464C609.029,616.433,605.674,612.466,608.692,606.331z"/>
</svg>
