<svg width="2070" height="1104" viewBox="0 0 2070 1104" version="1.1" xmlns="http://www.w3.org/2000/svg" xmlns:xlink="http://www.w3.org/1999/xlink">
<title>Frame</title>
<desc>Created using Figma</desc>
<g id="Canvas" transform="translate(341 327)">
<clipPath id="clip-0" clip-rule="evenodd">
<path d="M -341 -327L 1729 -327L 1729 777L -341 777L -341 -327Z" fill="#FFFFFF"/>
</clipPath>
<g id="Frame" clip-path="url(#clip-0)">
<clipPath id="clip-1" clip-rule="evenodd">
<path d="M -251 -189L 649 -189L 649 638L -251 638L -251 -189Z" fill="#FFFFFF"/>
</clipPath>
<g id="sign in" clip-path="url(#clip-1)">
<g id="entire middle" style="mix-blend-mode:overlay">
<use xlink:href="#path0_fill" transform="translate(-251 66)" fill="#FFFFFF" fill-opacity="0.75"/>
</g>
<g id="dragon pic">
<use xlink:href="#path1_fill" transform="translate(-251 -179)" fill="#000000" fill-opacity="0.5"/>
</g>
<g id="SIGN IN">
<use xlink:href="#path2_fill" transform="translate(-251 -95)" fill="#FFFFFF"/>
</g>
<clipPath id="clip-2" clip-rule="evenodd">
<path d="M -251 97L 649 97L 649 597L -251 597L -251 97Z" fill="#FFFFFF"/>
</clipPath>
<g id="text fields" clip-path="url(#clip-2)">
<clipPath id="clip-3" clip-rule="evenodd">
<path d="M -201 140L 599 140L 599 240L -201 240L -201 140Z" fill="#FFFFFF"/>
</clipPath>
<g id="username" clip-path="url(#clip-3)">
<g id="Username">
<use xlink:href="#path3_fill" transform="translate(-201 172)" fill="#000000" fill-opacity="0.5"/>
</g>
<g id="Line">
<use xlink:href="#path4_stroke" transform="matrix(1 1.22449e-18 -2.45757e-18 1 61.2702 202.994)" fill="#000000" fill-opacity="0.5"/>
</g>
<g id="Enter username">
<use xlink:href="#path5_fill" transform="translate(61.2702 175)" fill="#000000" fill-opacity="0.25"/>
</g>
</g>
<clipPath id="clip-4" clip-rule="evenodd">
<path d="M -201 240L 599 240L 599 340L -201 340L -201 240Z" fill="#FFFFFF"/>
</clipPath>
<g id="password" clip-path="url(#clip-4)">
<g id="Password">
<use xlink:href="#path6_fill" transform="translate(-201 276)" fill="#000000" fill-opacity="0.5"/>
</g>
<g id="Line">
<use xlink:href="#path4_stroke" transform="matrix(1 1.60273e-18 -1.87758e-18 1 57 304)" fill="#000000" fill-opacity="0.5"/>
</g>
<g id="Enter password">
<use xlink:href="#path7_fill" transform="translate(57.0211 272.978)" fill="#000000" fill-opacity="0.25"/>
</g>
</g>
<g id="Remember me">
<use xlink:href="#path8_fill" transform="translate(92 351)" fill="#000000" fill-opacity="0.5"/>
</g>
<g id="Forgot password?">
<use xlink:href="#path9_fill" transform="translate(379 347)" fill="#FF0000" fill-opacity="0.5"/>
</g>
<g id="Rectangle 2">
<use xlink:href="#path10_fill" transform="translate(-101 456)" fill="#FF0000"/>
</g>
<g id="Login">
<use xlink:href="#path11_fill" transform="translate(-101 477)" fill="#FFFFFF"/>
</g>
</g>
</g>
<g id="Line">
<use xlink:href="#path12_stroke" transform="matrix(-2.67147e-16 -1 1 -2.67147e-16 694 672.014)"/>
</g>
<g id="Don&#226;&#128;&#153;t have an account?">
<use xlink:href="#path13_fill" transform="translate(739 -86)"/>
</g>
<g id="We can help you get started with Mangrove.">
<use xlink:href="#path14_fill" transform="translate(739 66)" fill="#000000" fill-opacity="0.75"/>
</g>
<g id="Sign Up Here">
<use xlink:href="#path15_fill" transform="translate(1003 284)" fill="#FFFFFF"/>
</g>
<g id="Rectangle">
<mask id="mask0_outline_ins">
<use xlink:href="#path16_fill" fill="white" transform="translate(903 240)"/>
</mask>
<g mask="url(#mask0_outline_ins)">
<use xlink:href="#path17_stroke_2x" transform="translate(903 240)" fill="#FFFFFF"/>
</g>
</g>
</g>
</g>
<defs>
<path id="path0_fill" d="M 0 0L 900 0L 900 536C 900 549.807 888.807 561 875 561L 25 561C 11.1929 561 0 549.807 0 536L 0 0Z"/>
<path id="path1_fill" d="M 0 100C 0 44.7715 44.7715 0 100 0L 800 0C 855.228 0 900 44.7715 900 100L 900 245L 0 245L 0 100Z"/>
<path id="path2_fill" d="M 318.677 12.31C 321.197 12.31 324.487 12.6833 328.547 13.43L 328.407 18.68C 324.581 17.9333 321.337 17.56 318.677 17.56C 315.971 17.56 314.011 18.0967 312.797 19.17C 311.631 20.2433 311.047 21.8767 311.047 24.07L 311.047 25.89C 311.047 27.0567 311.187 27.99 311.467 28.69C 311.794 29.3433 312.354 29.9267 313.147 30.44C 313.941 30.9067 315.131 31.3967 316.717 31.91L 323.227 34.08C 326.354 35.1533 328.547 36.5767 329.807 38.35C 331.114 40.1233 331.767 42.7133 331.767 46.12L 331.767 47.45C 331.767 51.6033 330.554 54.7067 328.127 56.76C 325.747 58.8133 321.827 59.84 316.367 59.84C 313.707 59.84 310.301 59.3733 306.147 58.44L 306.287 53.05C 310.161 53.9833 313.474 54.45 316.227 54.45C 319.727 54.45 322.201 53.9367 323.647 52.91C 325.094 51.8367 325.817 50.18 325.817 47.94L 325.817 45.63C 325.817 43.9967 325.444 42.76 324.697 41.92C 323.997 41.0333 322.737 40.2867 320.917 39.68L 313.707 37.3C 310.487 36.2267 308.247 34.85 306.987 33.17C 305.727 31.4433 305.097 28.8533 305.097 25.4L 305.097 24.63C 305.097 20.57 306.171 17.5133 308.317 15.46C 310.511 13.36 313.964 12.31 318.677 12.31ZM 359.413 13.15L 359.413 59L 353.463 59L 353.463 13.15L 359.413 13.15ZM 398.497 12.31C 400.224 12.31 402.207 12.4733 404.448 12.8C 406.688 13.08 408.741 13.4067 410.608 13.78L 410.467 19.03C 405.194 18.0033 401.204 17.49 398.497 17.49C 395.278 17.49 392.967 18.1433 391.568 19.45C 390.214 20.71 389.538 22.8333 389.538 25.82L 389.538 46.12C 389.538 49.1067 390.214 51.2767 391.568 52.63C 392.967 53.9367 395.278 54.59 398.497 54.59C 400.597 54.59 403.327 54.2633 406.688 53.61L 406.688 38.14L 397.938 38.14L 397.938 32.54L 412.638 32.54L 412.638 57.25C 407.038 58.9767 402.324 59.84 398.497 59.84C 393.131 59.84 389.304 58.6967 387.018 56.41C 384.731 54.1233 383.588 50.5533 383.588 45.7L 383.588 26.45C 383.588 21.5033 384.754 17.91 387.087 15.67C 389.421 13.43 393.224 12.31 398.497 12.31ZM 457.766 59L 442.646 20.29L 442.646 59L 436.766 59L 436.766 13.15L 446.286 13.15L 461.126 51.86L 461.126 13.15L 467.006 13.15L 467.006 59L 457.766 59ZM 524.036 13.15L 524.036 59L 518.086 59L 518.086 13.15L 524.036 13.15ZM 569.561 59L 554.441 20.29L 554.441 59L 548.561 59L 548.561 13.15L 558.081 13.15L 572.921 51.86L 572.921 13.15L 578.801 13.15L 578.801 59L 569.561 59Z"/>
<path id="path3_fill" d="M 87.9176 16.618C 87.9176 18.4553 87.4496 19.868 86.5136 20.856C 85.5776 21.8267 84.1996 22.312 82.3796 22.312C 80.5769 22.312 79.1989 21.8353 78.2456 20.882C 77.3096 19.9287 76.8416 18.5247 76.8416 16.67L 76.8416 4.97L 79.0516 4.97L 79.0516 16.956C 79.0516 18.0653 79.3376 18.9147 79.9096 19.504C 80.4989 20.076 81.3223 20.362 82.3796 20.362C 83.4543 20.362 84.2776 20.076 84.8496 19.504C 85.4216 18.9147 85.7076 18.0653 85.7076 16.956L 85.7076 4.97L 87.9176 4.97L 87.9176 16.618ZM 95.3321 9C 96.0601 9 96.9354 9.104 97.9581 9.312L 97.9061 11.184C 97.0047 10.976 96.1814 10.872 95.4361 10.872C 93.8761 10.872 93.0961 11.3747 93.0961 12.38L 93.0961 12.614C 93.0961 12.926 93.1741 13.1773 93.3301 13.368C 93.5034 13.5587 93.8067 13.758 94.2401 13.966L 96.6841 15.11C 98.1574 15.8033 98.8941 16.8173 98.8941 18.152L 98.8941 18.724C 98.8767 19.92 98.5127 20.8213 97.8021 21.428C 97.1087 22.0173 96.0081 22.312 94.5001 22.312C 93.7201 22.312 92.6021 22.13 91.1461 21.766L 91.2501 19.79C 92.5501 20.1713 93.6161 20.362 94.4481 20.362C 95.2974 20.362 95.8867 20.2493 96.2161 20.024C 96.5454 19.7813 96.7101 19.3913 96.7101 18.854L 96.7101 18.594C 96.7101 18.178 96.6234 17.8487 96.4501 17.606C 96.2941 17.3633 96.0254 17.1553 95.6441 16.982L 93.1221 15.864C 92.3594 15.5173 91.7961 15.1013 91.4321 14.616C 91.0854 14.1307 90.9121 13.5673 90.9121 12.926L 90.9121 12.562C 90.9467 11.3833 91.3107 10.4993 92.0041 9.91C 92.7147 9.30333 93.8241 9 95.3321 9ZM 105.78 9C 107.236 9 108.345 9.39867 109.108 10.196C 109.87 10.9933 110.252 12.146 110.252 13.654L 110.252 16.332L 103.57 16.332L 103.57 17.866C 103.57 18.75 103.778 19.3913 104.194 19.79C 104.627 20.1713 105.303 20.362 106.222 20.362C 107.123 20.362 108.25 20.2233 109.602 19.946L 109.654 21.87C 108.042 22.1647 106.889 22.312 106.196 22.312C 104.48 22.312 103.24 21.9393 102.478 21.194C 101.732 20.4487 101.36 19.296 101.36 17.736L 101.36 13.654C 101.36 12.146 101.724 10.9933 102.452 10.196C 103.197 9.39867 104.306 9 105.78 9ZM 105.78 10.846C 105.104 10.846 104.566 11.0627 104.168 11.496C 103.769 11.912 103.57 12.5187 103.57 13.316L 103.57 14.564L 108.042 14.564L 108.042 13.394C 108.042 12.562 107.834 11.9293 107.418 11.496C 107.019 11.0627 106.473 10.846 105.78 10.846ZM 118.787 9C 119.029 9 119.22 9.01733 119.359 9.052L 119.359 11.548C 119.099 11.496 118.761 11.47 118.345 11.47C 117.131 11.47 116.169 12.0767 115.459 13.29L 115.459 22L 113.249 22L 113.249 9.312L 115.329 9.312L 115.329 11.21C 115.797 10.4993 116.317 9.95333 116.889 9.572C 117.478 9.19067 118.111 9 118.787 9ZM 127.242 9C 128.351 9 129.2 9.38133 129.79 10.144C 130.396 10.8893 130.7 11.9553 130.7 13.342L 130.7 22L 128.49 22L 128.49 13.654C 128.49 11.9207 127.926 11.054 126.8 11.054C 126.297 11.054 125.786 11.2447 125.266 11.626C 124.746 12.0073 124.295 12.5273 123.914 13.186L 123.914 22L 121.704 22L 121.704 9.312L 123.784 9.312L 123.784 11.21C 124.252 10.4993 124.772 9.95333 125.344 9.572C 125.933 9.19067 126.566 9 127.242 9ZM 138.222 9C 139.713 9 140.796 9.338 141.472 10.014C 142.166 10.6727 142.512 11.73 142.512 13.186L 142.512 22L 140.406 22L 140.406 19.972C 139.401 21.532 138.266 22.312 137 22.312C 135.995 22.312 135.189 21.9653 134.582 21.272C 133.993 20.5787 133.698 19.634 133.698 18.438L 133.698 17.71C 133.698 16.67 134.054 15.812 134.764 15.136C 135.475 14.4427 136.428 14.096 137.624 14.096C 138.283 14.096 139.176 14.2087 140.302 14.434L 140.302 13.004C 140.302 12.2587 140.129 11.7213 139.782 11.392C 139.453 11.0627 138.933 10.898 138.222 10.898C 137.39 10.898 136.22 11.028 134.712 11.288L 134.712 9.39C 136.342 9.13 137.512 9 138.222 9ZM 138.17 15.812C 137.442 15.812 136.888 16.0027 136.506 16.384C 136.125 16.7653 135.934 17.3027 135.934 17.996L 135.934 18.282C 135.934 18.9233 136.082 19.426 136.376 19.79C 136.671 20.154 137.044 20.336 137.494 20.336C 137.962 20.336 138.439 20.1367 138.924 19.738C 139.427 19.322 139.886 18.7413 140.302 17.996L 140.302 15.994C 139.644 15.8727 138.933 15.812 138.17 15.812ZM 158.222 9C 159.331 9 160.181 9.38133 160.77 10.144C 161.359 10.8893 161.654 11.9553 161.654 13.342L 161.654 22L 159.444 22L 159.444 13.654C 159.444 11.9207 158.889 11.054 157.78 11.054C 157.295 11.054 156.792 11.2447 156.272 11.626C 155.769 12.0073 155.327 12.5273 154.946 13.186L 154.946 22L 152.736 22L 152.736 13.654C 152.736 11.9207 152.181 11.054 151.072 11.054C 150.587 11.054 150.084 11.2447 149.564 11.626C 149.061 12.0073 148.619 12.5273 148.238 13.186L 148.238 22L 146.028 22L 146.028 9.312L 148.108 9.312L 148.108 11.21C 148.559 10.4993 149.079 9.95333 149.668 9.572C 150.257 9.19067 150.873 9 151.514 9C 152.311 9 152.979 9.208 153.516 9.624C 154.053 10.0227 154.443 10.612 154.686 11.392C 155.154 10.612 155.691 10.0227 156.298 9.624C 156.905 9.208 157.546 9 158.222 9ZM 169.459 9C 170.915 9 172.025 9.39867 172.787 10.196C 173.55 10.9933 173.931 12.146 173.931 13.654L 173.931 16.332L 167.249 16.332L 167.249 17.866C 167.249 18.75 167.457 19.3913 167.873 19.79C 168.307 20.1713 168.983 20.362 169.901 20.362C 170.803 20.362 171.929 20.2233 173.281 19.946L 173.333 21.87C 171.721 22.1647 170.569 22.312 169.875 22.312C 168.159 22.312 166.92 21.9393 166.157 21.194C 165.412 20.4487 165.039 19.296 165.039 17.736L 165.039 13.654C 165.039 12.146 165.403 10.9933 166.131 10.196C 166.877 9.39867 167.986 9 169.459 9ZM 169.459 10.846C 168.783 10.846 168.246 11.0627 167.847 11.496C 167.449 11.912 167.249 12.5187 167.249 13.316L 167.249 14.564L 171.721 14.564L 171.721 13.394C 171.721 12.562 171.513 11.9293 171.097 11.496C 170.699 11.0627 170.153 10.846 169.459 10.846Z"/>
<path id="path4_stroke" d="M 0 0L 495.73 0L 495.73 -1L 0 -1L 0 0Z"/>
<path id="path5_fill" d="M 15.92 4.97L 15.92 6.972L 9.16 6.972L 9.16 12.354L 15.4 12.354L 15.4 14.33L 9.16 14.33L 9.16 19.998L 15.92 19.998L 15.92 22L 6.95 22L 6.95 4.97L 15.92 4.97ZM 24.9771 9C 26.0865 9 26.9358 9.38133 27.5251 10.144C 28.1318 10.8893 28.4351 11.9553 28.4351 13.342L 28.4351 22L 26.2251 22L 26.2251 13.654C 26.2251 11.9207 25.6618 11.054 24.5351 11.054C 24.0325 11.054 23.5211 11.2447 23.0011 11.626C 22.4811 12.0073 22.0305 12.5273 21.6491 13.186L 21.6491 22L 19.4391 22L 19.4391 9.312L 21.5191 9.312L 21.5191 11.21C 21.9871 10.4993 22.5071 9.95333 23.0791 9.572C 23.6685 9.19067 24.3011 9 24.9771 9ZM 34.6837 9.312L 38.0637 9.312L 38.0637 11.132L 34.6837 11.132L 34.6837 18.568C 34.6837 19.2267 34.8137 19.7033 35.0737 19.998C 35.351 20.2753 35.7757 20.414 36.3477 20.414C 37.0757 20.414 37.7863 20.3273 38.4797 20.154L 38.5317 22C 37.769 22.208 37.0757 22.312 36.4517 22.312C 35.065 22.312 34.051 22.0087 33.4097 21.402C 32.7857 20.778 32.4737 19.7727 32.4737 18.386L 32.4737 11.132L 30.6537 11.132L 30.6537 9.312L 32.4737 9.312L 32.8897 5.932L 34.6837 5.932L 34.6837 9.312ZM 45.0288 9C 46.4848 9 47.5942 9.39867 48.3568 10.196C 49.1195 10.9933 49.5008 12.146 49.5008 13.654L 49.5008 16.332L 42.8188 16.332L 42.8188 17.866C 42.8188 18.75 43.0268 19.3913 43.4428 19.79C 43.8762 20.1713 44.5522 20.362 45.4708 20.362C 46.3722 20.362 47.4988 20.2233 48.8508 19.946L 48.9028 21.87C 47.2908 22.1647 46.1382 22.312 45.4448 22.312C 43.7288 22.312 42.4895 21.9393 41.7268 21.194C 40.9815 20.4487 40.6088 19.296 40.6088 17.736L 40.6088 13.654C 40.6088 12.146 40.9728 10.9933 41.7008 10.196C 42.4462 9.39867 43.5555 9 45.0288 9ZM 45.0288 10.846C 44.3528 10.846 43.8155 11.0627 43.4168 11.496C 43.0182 11.912 42.8188 12.5187 42.8188 13.316L 42.8188 14.564L 47.2908 14.564L 47.2908 13.394C 47.2908 12.562 47.0828 11.9293 46.6668 11.496C 46.2682 11.0627 45.7222 10.846 45.0288 10.846ZM 58.0357 9C 58.2784 9 58.4691 9.01733 58.6077 9.052L 58.6077 11.548C 58.3477 11.496 58.0097 11.47 57.5937 11.47C 56.3804 11.47 55.4184 12.0767 54.7077 13.29L 54.7077 22L 52.4977 22L 52.4977 9.312L 54.5777 9.312L 54.5777 11.21C 55.0457 10.4993 55.5657 9.95333 56.1377 9.572C 56.7271 9.19067 57.3597 9 58.0357 9ZM 74.4647 22L 72.3847 22L 72.3847 20.18C 71.9167 20.8733 71.3967 21.402 70.8247 21.766C 70.2527 22.13 69.646 22.312 69.0047 22.312C 67.9474 22.312 67.1154 21.948 66.5087 21.22C 65.9194 20.4747 65.6247 19.3913 65.6247 17.97L 65.6247 9.312L 67.8347 9.312L 67.8347 17.58C 67.8347 18.4987 67.9734 19.1747 68.2507 19.608C 68.5454 20.0413 68.944 20.258 69.4467 20.258C 69.9147 20.258 70.4 20.076 70.9027 19.712C 71.4227 19.3307 71.8734 18.8107 72.2547 18.152L 72.2547 9.312L 74.4647 9.312L 74.4647 22ZM 81.7569 9C 82.4849 9 83.3602 9.104 84.3829 9.312L 84.3309 11.184C 83.4295 10.976 82.6062 10.872 81.8609 10.872C 80.3009 10.872 79.5209 11.3747 79.5209 12.38L 79.5209 12.614C 79.5209 12.926 79.5989 13.1773 79.7549 13.368C 79.9282 13.5587 80.2315 13.758 80.6649 13.966L 83.1089 15.11C 84.5822 15.8033 85.3189 16.8173 85.3189 18.152L 85.3189 18.724C 85.3015 19.92 84.9375 20.8213 84.2269 21.428C 83.5335 22.0173 82.4329 22.312 80.9249 22.312C 80.1449 22.312 79.0269 22.13 77.5709 21.766L 77.6749 19.79C 78.9749 20.1713 80.0409 20.362 80.8729 20.362C 81.7222 20.362 82.3115 20.2493 82.6409 20.024C 82.9702 19.7813 83.1349 19.3913 83.1349 18.854L 83.1349 18.594C 83.1349 18.178 83.0482 17.8487 82.8749 17.606C 82.7189 17.3633 82.4502 17.1553 82.0689 16.982L 79.5469 15.864C 78.7842 15.5173 78.2209 15.1013 77.8569 14.616C 77.5102 14.1307 77.3369 13.5673 77.3369 12.926L 77.3369 12.562C 77.3715 11.3833 77.7355 10.4993 78.4289 9.91C 79.1395 9.30333 80.2489 9 81.7569 9ZM 92.2046 9C 93.6606 9 94.7699 9.39867 95.5326 10.196C 96.2953 10.9933 96.6766 12.146 96.6766 13.654L 96.6766 16.332L 89.9946 16.332L 89.9946 17.866C 89.9946 18.75 90.2026 19.3913 90.6186 19.79C 91.0519 20.1713 91.7279 20.362 92.6466 20.362C 93.5479 20.362 94.6746 20.2233 96.0266 19.946L 96.0786 21.87C 94.4666 22.1647 93.3139 22.312 92.6206 22.312C 90.9046 22.312 89.6653 21.9393 88.9026 21.194C 88.1573 20.4487 87.7846 19.296 87.7846 17.736L 87.7846 13.654C 87.7846 12.146 88.1486 10.9933 88.8766 10.196C 89.6219 9.39867 90.7313 9 92.2046 9ZM 92.2046 10.846C 91.5286 10.846 90.9913 11.0627 90.5926 11.496C 90.1939 11.912 89.9946 12.5187 89.9946 13.316L 89.9946 14.564L 94.4666 14.564L 94.4666 13.394C 94.4666 12.562 94.2586 11.9293 93.8426 11.496C 93.4439 11.0627 92.8979 10.846 92.2046 10.846ZM 105.212 9C 105.454 9 105.645 9.01733 105.784 9.052L 105.784 11.548C 105.524 11.496 105.186 11.47 104.77 11.47C 103.556 11.47 102.594 12.0767 101.884 13.29L 101.884 22L 99.6735 22L 99.6735 9.312L 101.754 9.312L 101.754 11.21C 102.222 10.4993 102.742 9.95333 103.314 9.572C 103.903 9.19067 104.536 9 105.212 9ZM 113.667 9C 114.776 9 115.625 9.38133 116.215 10.144C 116.821 10.8893 117.125 11.9553 117.125 13.342L 117.125 22L 114.915 22L 114.915 13.654C 114.915 11.9207 114.351 11.054 113.225 11.054C 112.722 11.054 112.211 11.2447 111.691 11.626C 111.171 12.0073 110.72 12.5273 110.339 13.186L 110.339 22L 108.129 22L 108.129 9.312L 110.209 9.312L 110.209 11.21C 110.677 10.4993 111.197 9.95333 111.769 9.572C 112.358 9.19067 112.991 9 113.667 9ZM 124.647 9C 126.138 9 127.221 9.338 127.897 10.014C 128.59 10.6727 128.937 11.73 128.937 13.186L 128.937 22L 126.831 22L 126.831 19.972C 125.826 21.532 124.69 22.312 123.425 22.312C 122.42 22.312 121.614 21.9653 121.007 21.272C 120.418 20.5787 120.123 19.634 120.123 18.438L 120.123 17.71C 120.123 16.67 120.478 15.812 121.189 15.136C 121.9 14.4427 122.853 14.096 124.049 14.096C 124.708 14.096 125.6 14.2087 126.727 14.434L 126.727 13.004C 126.727 12.2587 126.554 11.7213 126.207 11.392C 125.878 11.0627 125.358 10.898 124.647 10.898C 123.815 10.898 122.645 11.028 121.137 11.288L 121.137 9.39C 122.766 9.13 123.936 9 124.647 9ZM 124.595 15.812C 123.867 15.812 123.312 16.0027 122.931 16.384C 122.55 16.7653 122.359 17.3027 122.359 17.996L 122.359 18.282C 122.359 18.9233 122.506 19.426 122.801 19.79C 123.096 20.154 123.468 20.336 123.919 20.336C 124.387 20.336 124.864 20.1367 125.349 19.738C 125.852 19.322 126.311 18.7413 126.727 17.996L 126.727 15.994C 126.068 15.8727 125.358 15.812 124.595 15.812ZM 144.647 9C 145.756 9 146.605 9.38133 147.195 10.144C 147.784 10.8893 148.079 11.9553 148.079 13.342L 148.079 22L 145.869 22L 145.869 13.654C 145.869 11.9207 145.314 11.054 144.205 11.054C 143.719 11.054 143.217 11.2447 142.697 11.626C 142.194 12.0073 141.752 12.5273 141.371 13.186L 141.371 22L 139.161 22L 139.161 13.654C 139.161 11.9207 138.606 11.054 137.497 11.054C 137.011 11.054 136.509 11.2447 135.989 11.626C 135.486 12.0073 135.044 12.5273 134.663 13.186L 134.663 22L 132.453 22L 132.453 9.312L 134.533 9.312L 134.533 11.21C 134.983 10.4993 135.503 9.95333 136.093 9.572C 136.682 9.19067 137.297 9 137.939 9C 138.736 9 139.403 9.208 139.941 9.624C 140.478 10.0227 140.868 10.612 141.111 11.392C 141.579 10.612 142.116 10.0227 142.723 9.624C 143.329 9.208 143.971 9 144.647 9ZM 155.884 9C 157.34 9 158.45 9.39867 159.212 10.196C 159.975 10.9933 160.356 12.146 160.356 13.654L 160.356 16.332L 153.674 16.332L 153.674 17.866C 153.674 18.75 153.882 19.3913 154.298 19.79C 154.732 20.1713 155.408 20.362 156.326 20.362C 157.228 20.362 158.354 20.2233 159.706 19.946L 159.758 21.87C 158.146 22.1647 156.994 22.312 156.3 22.312C 154.584 22.312 153.345 21.9393 152.582 21.194C 151.837 20.4487 151.464 19.296 151.464 17.736L 151.464 13.654C 151.464 12.146 151.828 10.9933 152.556 10.196C 153.302 9.39867 154.411 9 155.884 9ZM 155.884 10.846C 155.208 10.846 154.671 11.0627 154.272 11.496C 153.874 11.912 153.674 12.5187 153.674 13.316L 153.674 14.564L 158.146 14.564L 158.146 13.394C 158.146 12.562 157.938 11.9293 157.522 11.496C 157.124 11.0627 156.578 10.846 155.884 10.846Z"/>
<path id="path6_fill" d="M 83.8914 4.658C 85.9367 4.658 87.4534 5.074 88.4414 5.906C 89.4467 6.72067 89.9494 7.89067 89.9494 9.416L 89.9494 10.04C 89.9494 11.6693 89.464 12.926 88.4934 13.81C 87.5227 14.694 86.058 15.136 84.0994 15.136C 83.3194 15.136 82.4874 15.0667 81.6034 14.928L 81.6034 22L 79.3934 22L 79.3934 4.788C 80.8667 4.70133 82.366 4.658 83.8914 4.658ZM 83.8394 6.53C 83.0767 6.53 82.3314 6.54733 81.6034 6.582L 81.6034 13.03C 82.6434 13.1687 83.4407 13.238 83.9954 13.238C 86.4914 13.238 87.7394 12.1373 87.7394 9.936L 87.7394 9.494C 87.7394 8.506 87.4274 7.76933 86.8034 7.284C 86.1794 6.78133 85.1914 6.53 83.8394 6.53ZM 96.2897 9C 97.7804 9 98.8637 9.338 99.5397 10.014C 100.233 10.6727 100.58 11.73 100.58 13.186L 100.58 22L 98.4737 22L 98.4737 19.972C 97.4684 21.532 96.333 22.312 95.0677 22.312C 94.0624 22.312 93.2564 21.9653 92.6497 21.272C 92.0604 20.5787 91.7657 19.634 91.7657 18.438L 91.7657 17.71C 91.7657 16.67 92.121 15.812 92.8317 15.136C 93.5424 14.4427 94.4957 14.096 95.6917 14.096C 96.3504 14.096 97.243 14.2087 98.3697 14.434L 98.3697 13.004C 98.3697 12.2587 98.1964 11.7213 97.8497 11.392C 97.5204 11.0627 97.0004 10.898 96.2897 10.898C 95.4577 10.898 94.2877 11.028 92.7797 11.288L 92.7797 9.39C 94.409 9.13 95.579 9 96.2897 9ZM 96.2377 15.812C 95.5097 15.812 94.955 16.0027 94.5737 16.384C 94.1924 16.7653 94.0017 17.3027 94.0017 17.996L 94.0017 18.282C 94.0017 18.9233 94.149 19.426 94.4437 19.79C 94.7384 20.154 95.111 20.336 95.5617 20.336C 96.0297 20.336 96.5064 20.1367 96.9917 19.738C 97.4944 19.322 97.9537 18.7413 98.3697 17.996L 98.3697 15.994C 97.711 15.8727 97.0004 15.812 96.2377 15.812ZM 107.735 9C 108.463 9 109.339 9.104 110.361 9.312L 110.309 11.184C 109.408 10.976 108.585 10.872 107.839 10.872C 106.279 10.872 105.499 11.3747 105.499 12.38L 105.499 12.614C 105.499 12.926 105.577 13.1773 105.733 13.368C 105.907 13.5587 106.21 13.758 106.643 13.966L 109.087 15.11C 110.561 15.8033 111.297 16.8173 111.297 18.152L 111.297 18.724C 111.28 19.92 110.916 20.8213 110.205 21.428C 109.512 22.0173 108.411 22.312 106.903 22.312C 106.123 22.312 105.005 22.13 103.549 21.766L 103.653 19.79C 104.953 20.1713 106.019 20.362 106.851 20.362C 107.701 20.362 108.29 20.2493 108.619 20.024C 108.949 19.7813 109.113 19.3913 109.113 18.854L 109.113 18.594C 109.113 18.178 109.027 17.8487 108.853 17.606C 108.697 17.3633 108.429 17.1553 108.047 16.982L 105.525 15.864C 104.763 15.5173 104.199 15.1013 103.835 14.616C 103.489 14.1307 103.315 13.5673 103.315 12.926L 103.315 12.562C 103.35 11.3833 103.714 10.4993 104.407 9.91C 105.118 9.30333 106.227 9 107.735 9ZM 117.485 9C 118.213 9 119.089 9.104 120.111 9.312L 120.059 11.184C 119.158 10.976 118.335 10.872 117.589 10.872C 116.029 10.872 115.249 11.3747 115.249 12.38L 115.249 12.614C 115.249 12.926 115.327 13.1773 115.483 13.368C 115.657 13.5587 115.96 13.758 116.393 13.966L 118.837 15.11C 120.311 15.8033 121.047 16.8173 121.047 18.152L 121.047 18.724C 121.03 19.92 120.666 20.8213 119.955 21.428C 119.262 22.0173 118.161 22.312 116.653 22.312C 115.873 22.312 114.755 22.13 113.299 21.766L 113.403 19.79C 114.703 20.1713 115.769 20.362 116.601 20.362C 117.451 20.362 118.04 20.2493 118.369 20.024C 118.699 19.7813 118.863 19.3913 118.863 18.854L 118.863 18.594C 118.863 18.178 118.777 17.8487 118.603 17.606C 118.447 17.3633 118.179 17.1553 117.797 16.982L 115.275 15.864C 114.513 15.5173 113.949 15.1013 113.585 14.616C 113.239 14.1307 113.065 13.5673 113.065 12.926L 113.065 12.562C 113.1 11.3833 113.464 10.4993 114.157 9.91C 114.868 9.30333 115.977 9 117.485 9ZM 139.137 9.312L 136.199 22L 133.417 22L 130.843 11.236L 128.243 22L 125.461 22L 122.549 9.312L 124.889 9.312L 126.943 20.05L 129.413 9.312L 132.273 9.312L 134.717 20.05L 136.797 9.312L 139.137 9.312ZM 145.786 9C 147.329 9 148.473 9.416 149.218 10.248C 149.981 11.0627 150.362 12.224 150.362 13.732L 150.362 17.58C 150.362 19.088 149.981 20.258 149.218 21.09C 148.473 21.9047 147.329 22.312 145.786 22.312C 144.244 22.312 143.091 21.9047 142.328 21.09C 141.583 20.258 141.21 19.088 141.21 17.58L 141.21 13.732C 141.21 12.224 141.583 11.0627 142.328 10.248C 143.091 9.416 144.244 9 145.786 9ZM 145.786 10.846C 145.041 10.846 144.46 11.08 144.044 11.548C 143.628 12.016 143.42 12.6833 143.42 13.55L 143.42 17.762C 143.42 18.6287 143.628 19.296 144.044 19.764C 144.46 20.232 145.041 20.466 145.786 20.466C 146.532 20.466 147.112 20.232 147.528 19.764C 147.944 19.296 148.152 18.6287 148.152 17.762L 148.152 13.524C 148.152 12.6573 147.944 11.9987 147.528 11.548C 147.112 11.08 146.532 10.846 145.786 10.846ZM 159.272 9C 159.515 9 159.705 9.01733 159.844 9.052L 159.844 11.548C 159.584 11.496 159.246 11.47 158.83 11.47C 157.617 11.47 156.655 12.0767 155.944 13.29L 155.944 22L 153.734 22L 153.734 9.312L 155.814 9.312L 155.814 11.21C 156.282 10.4993 156.802 9.95333 157.374 9.572C 157.963 9.19067 158.596 9 159.272 9ZM 170.747 22L 168.641 22L 168.641 19.946C 167.601 21.5233 166.414 22.312 165.079 22.312C 164.005 22.312 163.181 21.948 162.609 21.22C 162.037 20.4747 161.751 19.3913 161.751 17.97L 161.751 13.342C 161.751 11.9727 162.063 10.9067 162.687 10.144C 163.329 9.38133 164.239 9 165.417 9C 165.92 9 166.449 9.13 167.003 9.39C 167.558 9.63267 168.069 9.936 168.537 10.3L 168.537 4.242L 170.747 4.242L 170.747 22ZM 165.911 10.976C 165.287 10.976 164.802 11.2013 164.455 11.652C 164.126 12.0853 163.961 12.7527 163.961 13.654L 163.961 17.684C 163.961 19.452 164.507 20.336 165.599 20.336C 166.119 20.336 166.631 20.1367 167.133 19.738C 167.653 19.322 168.121 18.7413 168.537 17.996L 168.537 12.276C 168.173 11.8947 167.74 11.5827 167.237 11.34C 166.752 11.0973 166.31 10.976 165.911 10.976Z"/>
<path id="path7_fill" d="M 15.92 4.97L 15.92 6.972L 9.16 6.972L 9.16 12.354L 15.4 12.354L 15.4 14.33L 9.16 14.33L 9.16 19.998L 15.92 19.998L 15.92 22L 6.95 22L 6.95 4.97L 15.92 4.97ZM 24.9771 9C 26.0865 9 26.9358 9.38133 27.5251 10.144C 28.1318 10.8893 28.4351 11.9553 28.4351 13.342L 28.4351 22L 26.2251 22L 26.2251 13.654C 26.2251 11.9207 25.6618 11.054 24.5351 11.054C 24.0325 11.054 23.5211 11.2447 23.0011 11.626C 22.4811 12.0073 22.0305 12.5273 21.6491 13.186L 21.6491 22L 19.4391 22L 19.4391 9.312L 21.5191 9.312L 21.5191 11.21C 21.9871 10.4993 22.5071 9.95333 23.0791 9.572C 23.6685 9.19067 24.3011 9 24.9771 9ZM 34.6837 9.312L 38.0637 9.312L 38.0637 11.132L 34.6837 11.132L 34.6837 18.568C 34.6837 19.2267 34.8137 19.7033 35.0737 19.998C 35.351 20.2753 35.7757 20.414 36.3477 20.414C 37.0757 20.414 37.7863 20.3273 38.4797 20.154L 38.5317 22C 37.769 22.208 37.0757 22.312 36.4517 22.312C 35.065 22.312 34.051 22.0087 33.4097 21.402C 32.7857 20.778 32.4737 19.7727 32.4737 18.386L 32.4737 11.132L 30.6537 11.132L 30.6537 9.312L 32.4737 9.312L 32.8897 5.932L 34.6837 5.932L 34.6837 9.312ZM 45.0288 9C 46.4848 9 47.5942 9.39867 48.3568 10.196C 49.1195 10.9933 49.5008 12.146 49.5008 13.654L 49.5008 16.332L 42.8188 16.332L 42.8188 17.866C 42.8188 18.75 43.0268 19.3913 43.4428 19.79C 43.8762 20.1713 44.5522 20.362 45.4708 20.362C 46.3722 20.362 47.4988 20.2233 48.8508 19.946L 48.9028 21.87C 47.2908 22.1647 46.1382 22.312 45.4448 22.312C 43.7288 22.312 42.4895 21.9393 41.7268 21.194C 40.9815 20.4487 40.6088 19.296 40.6088 17.736L 40.6088 13.654C 40.6088 12.146 40.9728 10.9933 41.7008 10.196C 42.4462 9.39867 43.5555 9 45.0288 9ZM 45.0288 10.846C 44.3528 10.846 43.8155 11.0627 43.4168 11.496C 43.0182 11.912 42.8188 12.5187 42.8188 13.316L 42.8188 14.564L 47.2908 14.564L 47.2908 13.394C 47.2908 12.562 47.0828 11.9293 46.6668 11.496C 46.2682 11.0627 45.7222 10.846 45.0288 10.846ZM 58.0357 9C 58.2784 9 58.4691 9.01733 58.6077 9.052L 58.6077 11.548C 58.3477 11.496 58.0097 11.47 57.5937 11.47C 56.3804 11.47 55.4184 12.0767 54.7077 13.29L 54.7077 22L 52.4977 22L 52.4977 9.312L 54.5777 9.312L 54.5777 11.21C 55.0457 10.4993 55.5657 9.95333 56.1377 9.572C 56.7271 9.19067 57.3597 9 58.0357 9ZM 71.1367 9C 72.2287 9 73.078 9.37267 73.6847 10.118C 74.2914 10.8633 74.5947 11.938 74.5947 13.342L 74.5947 17.97C 74.5947 19.322 74.2394 20.388 73.5287 21.168C 72.8354 21.9307 71.8907 22.312 70.6947 22.312C 70.244 22.312 69.7587 22.2167 69.2387 22.026C 68.736 21.8527 68.268 21.6447 67.8347 21.402L 67.8347 26.81L 65.6247 26.81L 65.6247 9.312L 67.7047 9.312L 67.7047 11.158C 68.658 9.71933 69.802 9 71.1367 9ZM 70.6947 10.976C 70.192 10.976 69.6807 11.1667 69.1607 11.548C 68.658 11.912 68.216 12.4147 67.8347 13.056L 67.8347 19.426C 68.1987 19.7207 68.5974 19.9547 69.0307 20.128C 69.4814 20.284 69.8887 20.362 70.2527 20.362C 71.674 20.362 72.3847 19.4607 72.3847 17.658L 72.3847 13.654C 72.3847 11.8687 71.8214 10.976 70.6947 10.976ZM 81.7624 9C 83.253 9 84.3364 9.338 85.0124 10.014C 85.7057 10.6727 86.0524 11.73 86.0524 13.186L 86.0524 22L 83.9464 22L 83.9464 19.972C 82.941 21.532 81.8057 22.312 80.5404 22.312C 79.535 22.312 78.729 21.9653 78.1224 21.272C 77.533 20.5787 77.2384 19.634 77.2384 18.438L 77.2384 17.71C 77.2384 16.67 77.5937 15.812 78.3044 15.136C 79.015 14.4427 79.9684 14.096 81.1644 14.096C 81.823 14.096 82.7157 14.2087 83.8424 14.434L 83.8424 13.004C 83.8424 12.2587 83.669 11.7213 83.3224 11.392C 82.993 11.0627 82.473 10.898 81.7624 10.898C 80.9304 10.898 79.7604 11.028 78.2524 11.288L 78.2524 9.39C 79.8817 9.13 81.0517 9 81.7624 9ZM 81.7104 15.812C 80.9824 15.812 80.4277 16.0027 80.0464 16.384C 79.665 16.7653 79.4744 17.3027 79.4744 17.996L 79.4744 18.282C 79.4744 18.9233 79.6217 19.426 79.9164 19.79C 80.211 20.154 80.5837 20.336 81.0344 20.336C 81.5024 20.336 81.979 20.1367 82.4644 19.738C 82.967 19.322 83.4264 18.7413 83.8424 17.996L 83.8424 15.994C 83.1837 15.8727 82.473 15.812 81.7104 15.812ZM 93.208 9C 93.936 9 94.8114 9.104 95.834 9.312L 95.782 11.184C 94.8807 10.976 94.0574 10.872 93.312 10.872C 91.752 10.872 90.972 11.3747 90.972 12.38L 90.972 12.614C 90.972 12.926 91.05 13.1773 91.206 13.368C 91.3794 13.5587 91.6827 13.758 92.116 13.966L 94.56 15.11C 96.0334 15.8033 96.77 16.8173 96.77 18.152L 96.77 18.724C 96.7527 19.92 96.3887 20.8213 95.678 21.428C 94.9847 22.0173 93.884 22.312 92.376 22.312C 91.596 22.312 90.478 22.13 89.022 21.766L 89.126 19.79C 90.426 20.1713 91.492 20.362 92.324 20.362C 93.1734 20.362 93.7627 20.2493 94.092 20.024C 94.4214 19.7813 94.586 19.3913 94.586 18.854L 94.586 18.594C 94.586 18.178 94.4994 17.8487 94.326 17.606C 94.17 17.3633 93.9014 17.1553 93.52 16.982L 90.998 15.864C 90.2354 15.5173 89.672 15.1013 89.308 14.616C 88.9614 14.1307 88.788 13.5673 88.788 12.926L 88.788 12.562C 88.8227 11.3833 89.1867 10.4993 89.88 9.91C 90.5907 9.30333 91.7 9 93.208 9ZM 102.958 9C 103.686 9 104.561 9.104 105.584 9.312L 105.532 11.184C 104.631 10.976 103.807 10.872 103.062 10.872C 101.502 10.872 100.722 11.3747 100.722 12.38L 100.722 12.614C 100.722 12.926 100.8 13.1773 100.956 13.368C 101.129 13.5587 101.433 13.758 101.866 13.966L 104.31 15.11C 105.783 15.8033 106.52 16.8173 106.52 18.152L 106.52 18.724C 106.503 19.92 106.139 20.8213 105.428 21.428C 104.735 22.0173 103.634 22.312 102.126 22.312C 101.346 22.312 100.228 22.13 98.772 21.766L 98.876 19.79C 100.176 20.1713 101.242 20.362 102.074 20.362C 102.923 20.362 103.513 20.2493 103.842 20.024C 104.171 19.7813 104.336 19.3913 104.336 18.854L 104.336 18.594C 104.336 18.178 104.249 17.8487 104.076 17.606C 103.92 17.3633 103.651 17.1553 103.27 16.982L 100.748 15.864C 99.9854 15.5173 99.422 15.1013 99.058 14.616C 98.7114 14.1307 98.538 13.5673 98.538 12.926L 98.538 12.562C 98.5727 11.3833 98.9367 10.4993 99.63 9.91C 100.341 9.30333 101.45 9 102.958 9ZM 124.61 9.312L 121.672 22L 118.89 22L 116.316 11.236L 113.716 22L 110.934 22L 108.022 9.312L 110.362 9.312L 112.416 20.05L 114.886 9.312L 117.746 9.312L 120.19 20.05L 122.27 9.312L 124.61 9.312ZM 131.259 9C 132.802 9 133.946 9.416 134.691 10.248C 135.454 11.0627 135.835 12.224 135.835 13.732L 135.835 17.58C 135.835 19.088 135.454 20.258 134.691 21.09C 133.946 21.9047 132.802 22.312 131.259 22.312C 129.716 22.312 128.564 21.9047 127.801 21.09C 127.056 20.258 126.683 19.088 126.683 17.58L 126.683 13.732C 126.683 12.224 127.056 11.0627 127.801 10.248C 128.564 9.416 129.716 9 131.259 9ZM 131.259 10.846C 130.514 10.846 129.933 11.08 129.517 11.548C 129.101 12.016 128.893 12.6833 128.893 13.55L 128.893 17.762C 128.893 18.6287 129.101 19.296 129.517 19.764C 129.933 20.232 130.514 20.466 131.259 20.466C 132.004 20.466 132.585 20.232 133.001 19.764C 133.417 19.296 133.625 18.6287 133.625 17.762L 133.625 13.524C 133.625 12.6573 133.417 11.9987 133.001 11.548C 132.585 11.08 132.004 10.846 131.259 10.846ZM 144.745 9C 144.987 9 145.178 9.01733 145.317 9.052L 145.317 11.548C 145.057 11.496 144.719 11.47 144.303 11.47C 143.089 11.47 142.127 12.0767 141.417 13.29L 141.417 22L 139.207 22L 139.207 9.312L 141.287 9.312L 141.287 11.21C 141.755 10.4993 142.275 9.95333 142.847 9.572C 143.436 9.19067 144.069 9 144.745 9ZM 156.22 22L 154.114 22L 154.114 19.946C 153.074 21.5233 151.887 22.312 150.552 22.312C 149.477 22.312 148.654 21.948 148.082 21.22C 147.51 20.4747 147.224 19.3913 147.224 17.97L 147.224 13.342C 147.224 11.9727 147.536 10.9067 148.16 10.144C 148.801 9.38133 149.711 9 150.89 9C 151.393 9 151.921 9.13 152.476 9.39C 153.031 9.63267 153.542 9.936 154.01 10.3L 154.01 4.242L 156.22 4.242L 156.22 22ZM 151.384 10.976C 150.76 10.976 150.275 11.2013 149.928 11.652C 149.599 12.0853 149.434 12.7527 149.434 13.654L 149.434 17.684C 149.434 19.452 149.98 20.336 151.072 20.336C 151.592 20.336 152.103 20.1367 152.606 19.738C 153.126 19.322 153.594 18.7413 154.01 17.996L 154.01 12.276C 153.646 11.8947 153.213 11.5827 152.71 11.34C 152.225 11.0973 151.783 10.976 151.384 10.976Z"/>
<path id="path8_fill" d="M 6.73279 0.658C 8.77812 0.658 10.2861 1.05667 11.2568 1.854C 12.2275 2.65133 12.7128 3.76933 12.7128 5.208L 12.7128 5.858C 12.7128 6.86333 12.4355 7.756 11.8808 8.536C 11.3261 9.29867 10.5288 9.836 9.48879 10.148L 13.9088 18L 11.4388 18L 7.30479 10.616C 7.16612 10.6333 6.88879 10.642 6.47279 10.642C 5.77946 10.642 5.09479 10.616 4.41879 10.564L 4.41879 18L 2.20879 18L 2.20879 0.762C 4.15012 0.692667 5.65812 0.658 6.73279 0.658ZM 6.68079 2.53C 6.10879 2.53 5.35479 2.54733 4.41879 2.582L 4.41879 8.718C 5.35479 8.80467 6.13479 8.848 6.75879 8.848C 9.25479 8.848 10.5028 7.834 10.5028 5.806L 10.5028 5.286C 10.5028 4.35 10.1995 3.65667 9.59279 3.206C 8.98612 2.75533 8.01546 2.53 6.68079 2.53ZM 20.0259 5C 21.4819 5 22.5912 5.39867 23.3539 6.196C 24.1166 6.99333 24.4979 8.146 24.4979 9.654L 24.4979 12.332L 17.8159 12.332L 17.8159 13.866C 17.8159 14.75 18.0239 15.3913 18.4399 15.79C 18.8732 16.1713 19.5492 16.362 20.4679 16.362C 21.3692 16.362 22.4959 16.2233 23.8479 15.946L 23.8999 17.87C 22.2879 18.1647 21.1352 18.312 20.4419 18.312C 18.7259 18.312 17.4866 17.9393 16.7239 17.194C 15.9786 16.4487 15.6059 15.296 15.6059 13.736L 15.6059 9.654C 15.6059 8.146 15.9699 6.99333 16.6979 6.196C 17.4432 5.39867 18.5526 5 20.0259 5ZM 20.0259 6.846C 19.3499 6.846 18.8126 7.06267 18.4139 7.496C 18.0152 7.912 17.8159 8.51867 17.8159 9.316L 17.8159 10.564L 22.2879 10.564L 22.2879 9.394C 22.2879 8.562 22.0799 7.92933 21.6639 7.496C 21.2652 7.06267 20.7192 6.846 20.0259 6.846ZM 39.6888 5C 40.7981 5 41.6475 5.38133 42.2368 6.144C 42.8261 6.88933 43.1208 7.95533 43.1208 9.342L 43.1208 18L 40.9108 18L 40.9108 9.654C 40.9108 7.92067 40.3561 7.054 39.2468 7.054C 38.7615 7.054 38.2588 7.24467 37.7388 7.626C 37.2361 8.00733 36.7941 8.52733 36.4128 9.186L 36.4128 18L 34.2028 18L 34.2028 9.654C 34.2028 7.92067 33.6481 7.054 32.5388 7.054C 32.0535 7.054 31.5508 7.24467 31.0308 7.626C 30.5281 8.00733 30.0861 8.52733 29.7048 9.186L 29.7048 18L 27.4948 18L 27.4948 5.312L 29.5748 5.312L 29.5748 7.21C 30.0255 6.49933 30.5455 5.95333 31.1348 5.572C 31.7241 5.19067 32.3395 5 32.9808 5C 33.7781 5 34.4455 5.208 34.9828 5.624C 35.5201 6.02267 35.9101 6.612 36.1528 7.392C 36.6208 6.612 37.1581 6.02267 37.7648 5.624C 38.3715 5.208 39.0128 5 39.6888 5ZM 50.9263 5C 52.3823 5 53.4916 5.39867 54.2543 6.196C 55.017 6.99333 55.3983 8.146 55.3983 9.654L 55.3983 12.332L 48.7163 12.332L 48.7163 13.866C 48.7163 14.75 48.9243 15.3913 49.3403 15.79C 49.7736 16.1713 50.4496 16.362 51.3683 16.362C 52.2696 16.362 53.3963 16.2233 54.7483 15.946L 54.8003 17.87C 53.1883 18.1647 52.0356 18.312 51.3423 18.312C 49.6263 18.312 48.387 17.9393 47.6243 17.194C 46.879 16.4487 46.5063 15.296 46.5063 13.736L 46.5063 9.654C 46.5063 8.146 46.8703 6.99333 47.5983 6.196C 48.3436 5.39867 49.453 5 50.9263 5ZM 50.9263 6.846C 50.2503 6.846 49.713 7.06267 49.3143 7.496C 48.9156 7.912 48.7163 8.51867 48.7163 9.316L 48.7163 10.564L 53.1883 10.564L 53.1883 9.394C 53.1883 8.562 52.9803 7.92933 52.5643 7.496C 52.1656 7.06267 51.6196 6.846 50.9263 6.846ZM 70.5892 5C 71.6985 5 72.5479 5.38133 73.1372 6.144C 73.7265 6.88933 74.0212 7.95533 74.0212 9.342L 74.0212 18L 71.8112 18L 71.8112 9.654C 71.8112 7.92067 71.2565 7.054 70.1472 7.054C 69.6619 7.054 69.1592 7.24467 68.6392 7.626C 68.1365 8.00733 67.6945 8.52733 67.3132 9.186L 67.3132 18L 65.1032 18L 65.1032 9.654C 65.1032 7.92067 64.5485 7.054 63.4392 7.054C 62.9539 7.054 62.4512 7.24467 61.9312 7.626C 61.4285 8.00733 60.9865 8.52733 60.6052 9.186L 60.6052 18L 58.3952 18L 58.3952 5.312L 60.4752 5.312L 60.4752 7.21C 60.9259 6.49933 61.4459 5.95333 62.0352 5.572C 62.6245 5.19067 63.2399 5 63.8812 5C 64.6785 5 65.3459 5.208 65.8832 5.624C 66.4205 6.02267 66.8105 6.612 67.0532 7.392C 67.5212 6.612 68.0585 6.02267 68.6652 5.624C 69.2719 5.208 69.9132 5 70.5892 5ZM 79.7467 7.002C 80.1973 6.36067 80.7173 5.86667 81.3067 5.52C 81.896 5.17333 82.5113 5 83.1527 5C 84.2273 5 85.0593 5.38133 85.6487 6.144C 86.238 6.88933 86.5327 7.98133 86.5327 9.42L 86.5327 13.528C 86.5327 15.1053 86.16 16.3013 85.4147 17.116C 84.6693 17.9133 83.5167 18.312 81.9567 18.312C 80.4313 18.312 79.3133 17.922 78.6027 17.142C 77.892 16.362 77.5367 15.1747 77.5367 13.58L 77.5367 0.241999L 79.7467 0.241999L 79.7467 7.002ZM 82.6327 6.976C 82.13 6.976 81.6187 7.16667 81.0987 7.548C 80.5787 7.92933 80.128 8.44933 79.7467 9.108L 79.7467 13.84C 79.7467 14.6893 79.9373 15.3393 80.3187 15.79C 80.7173 16.2407 81.2633 16.466 81.9567 16.466C 83.534 16.466 84.3227 15.5733 84.3227 13.788L 84.3227 9.732C 84.3227 7.89467 83.7593 6.976 82.6327 6.976ZM 94.065 5C 95.521 5 96.6303 5.39867 97.393 6.196C 98.1556 6.99333 98.537 8.146 98.537 9.654L 98.537 12.332L 91.855 12.332L 91.855 13.866C 91.855 14.75 92.063 15.3913 92.479 15.79C 92.9123 16.1713 93.5883 16.362 94.507 16.362C 95.4083 16.362 96.535 16.2233 97.887 15.946L 97.939 17.87C 96.327 18.1647 95.1743 18.312 94.481 18.312C 92.765 18.312 91.5256 17.9393 90.763 17.194C 90.0176 16.4487 89.645 15.296 89.645 13.736L 89.645 9.654C 89.645 8.146 90.009 6.99333 90.737 6.196C 91.4823 5.39867 92.5916 5 94.065 5ZM 94.065 6.846C 93.389 6.846 92.8516 7.06267 92.453 7.496C 92.0543 7.912 91.855 8.51867 91.855 9.316L 91.855 10.564L 96.327 10.564L 96.327 9.394C 96.327 8.562 96.119 7.92933 95.703 7.496C 95.3043 7.06267 94.7583 6.846 94.065 6.846ZM 107.072 5C 107.315 5 107.505 5.01733 107.644 5.052L 107.644 7.548C 107.384 7.496 107.046 7.47 106.63 7.47C 105.417 7.47 104.455 8.07667 103.744 9.29L 103.744 18L 101.534 18L 101.534 5.312L 103.614 5.312L 103.614 7.21C 104.082 6.49933 104.602 5.95333 105.174 5.572C 105.763 5.19067 106.396 5 107.072 5ZM 126.855 5C 127.964 5 128.813 5.38133 129.403 6.144C 129.992 6.88933 130.287 7.95533 130.287 9.342L 130.287 18L 128.077 18L 128.077 9.654C 128.077 7.92067 127.522 7.054 126.413 7.054C 125.927 7.054 125.425 7.24467 124.905 7.626C 124.402 8.00733 123.96 8.52733 123.579 9.186L 123.579 18L 121.369 18L 121.369 9.654C 121.369 7.92067 120.814 7.054 119.705 7.054C 119.219 7.054 118.717 7.24467 118.197 7.626C 117.694 8.00733 117.252 8.52733 116.871 9.186L 116.871 18L 114.661 18L 114.661 5.312L 116.741 5.312L 116.741 7.21C 117.191 6.49933 117.711 5.95333 118.301 5.572C 118.89 5.19067 119.505 5 120.147 5C 120.944 5 121.611 5.208 122.149 5.624C 122.686 6.02267 123.076 6.612 123.319 7.392C 123.787 6.612 124.324 6.02267 124.931 5.624C 125.537 5.208 126.179 5 126.855 5ZM 138.092 5C 139.548 5 140.658 5.39867 141.42 6.196C 142.183 6.99333 142.564 8.146 142.564 9.654L 142.564 12.332L 135.882 12.332L 135.882 13.866C 135.882 14.75 136.09 15.3913 136.506 15.79C 136.94 16.1713 137.616 16.362 138.534 16.362C 139.436 16.362 140.562 16.2233 141.914 15.946L 141.966 17.87C 140.354 18.1647 139.202 18.312 138.508 18.312C 136.792 18.312 135.553 17.9393 134.79 17.194C 134.045 16.4487 133.672 15.296 133.672 13.736L 133.672 9.654C 133.672 8.146 134.036 6.99333 134.764 6.196C 135.51 5.39867 136.619 5 138.092 5ZM 138.092 6.846C 137.416 6.846 136.879 7.06267 136.48 7.496C 136.082 7.912 135.882 8.51867 135.882 9.316L 135.882 10.564L 140.354 10.564L 140.354 9.394C 140.354 8.562 140.146 7.92933 139.73 7.496C 139.332 7.06267 138.786 6.846 138.092 6.846Z"/>
<path id="path9_fill" d="M 11.0968 4.97L 11.0968 6.972L 4.33676 6.972L 4.33676 12.354L 9.43276 12.354L 9.43276 14.33L 4.33676 14.33L 4.33676 22L 2.12676 22L 2.12676 4.97L 11.0968 4.97ZM 16.8499 9C 18.3925 9 19.5365 9.416 20.2819 10.248C 21.0445 11.0627 21.4259 12.224 21.4259 13.732L 21.4259 17.58C 21.4259 19.088 21.0445 20.258 20.2819 21.09C 19.5365 21.9047 18.3925 22.312 16.8499 22.312C 15.3072 22.312 14.1545 21.9047 13.3919 21.09C 12.6465 20.258 12.2739 19.088 12.2739 17.58L 12.2739 13.732C 12.2739 12.224 12.6465 11.0627 13.3919 10.248C 14.1545 9.416 15.3072 9 16.8499 9ZM 16.8499 10.846C 16.1045 10.846 15.5239 11.08 15.1079 11.548C 14.6919 12.016 14.4839 12.6833 14.4839 13.55L 14.4839 17.762C 14.4839 18.6287 14.6919 19.296 15.1079 19.764C 15.5239 20.232 16.1045 20.466 16.8499 20.466C 17.5952 20.466 18.1759 20.232 18.5919 19.764C 19.0079 19.296 19.2159 18.6287 19.2159 17.762L 19.2159 13.524C 19.2159 12.6573 19.0079 11.9987 18.5919 11.548C 18.1759 11.08 17.5952 10.846 16.8499 10.846ZM 30.3355 9C 30.5782 9 30.7689 9.01733 30.9075 9.052L 30.9075 11.548C 30.6475 11.496 30.3095 11.47 29.8935 11.47C 28.6802 11.47 27.7182 12.0767 27.0075 13.29L 27.0075 22L 24.7975 22L 24.7975 9.312L 26.8775 9.312L 26.8775 11.21C 27.3455 10.4993 27.8655 9.95333 28.4375 9.572C 29.0269 9.19067 29.6595 9 30.3355 9ZM 37.2857 9C 38.0483 9 38.7417 9.11267 39.3657 9.338L 43.4217 9.286L 43.4217 11.236L 41.2897 11.184C 41.5843 11.808 41.7317 12.458 41.7317 13.134L 41.7317 13.706C 41.7317 14.9713 41.3417 15.994 40.5617 16.774C 39.7817 17.5367 38.6897 17.918 37.2857 17.918C 36.3843 17.918 35.6477 17.8313 35.0757 17.658C 34.6943 17.97 34.5037 18.3253 34.5037 18.724L 34.5037 18.88C 34.5037 19.1573 34.5903 19.3653 34.7637 19.504C 34.937 19.6253 35.275 19.7033 35.7777 19.738L 39.6517 20.024C 40.449 20.0933 41.0903 20.3967 41.5757 20.934C 42.0783 21.454 42.3297 22.1127 42.3297 22.91L 42.3297 23.872C 42.3297 24.6173 42.1823 25.224 41.8877 25.692C 41.593 26.16 41.047 26.5153 40.2497 26.758C 39.4697 27.0007 38.343 27.122 36.8697 27.122C 36.315 27.122 35.6563 27.0613 34.8937 26.94C 34.1483 26.8187 33.4377 26.6627 32.7617 26.472L 32.8397 24.418C 34.4517 24.9553 35.821 25.224 36.9477 25.224C 37.8837 25.224 38.577 25.1633 39.0277 25.042C 39.4957 24.938 39.799 24.7733 39.9377 24.548C 40.0937 24.3227 40.1717 23.9847 40.1717 23.534L 40.1717 23.326C 40.1717 22.9273 40.059 22.6153 39.8337 22.39C 39.6257 22.1647 39.3223 22.0433 38.9237 22.026L 35.0237 21.766C 34.1917 21.714 33.559 21.48 33.1257 21.064C 32.6923 20.648 32.4757 20.0847 32.4757 19.374L 32.4757 18.854C 32.4757 18.4727 32.571 18.1 32.7617 17.736C 32.9697 17.372 33.2643 17.0513 33.6457 16.774C 33.351 16.4447 33.1343 16.0287 32.9957 15.526C 32.8743 15.006 32.8137 14.3733 32.8137 13.628L 32.8137 13.056C 32.8137 11.8253 33.195 10.846 33.9577 10.118C 34.7203 9.37267 35.8297 9 37.2857 9ZM 37.2857 10.846C 36.5577 10.846 35.9943 11.0367 35.5957 11.418C 35.2143 11.782 35.0237 12.3107 35.0237 13.004L 35.0237 13.862C 35.0237 14.5033 35.0757 14.98 35.1797 15.292C 35.301 15.5867 35.509 15.7947 35.8037 15.916C 36.0983 16.02 36.5403 16.072 37.1297 16.072C 37.927 16.072 38.525 15.8813 38.9237 15.5C 39.3223 15.1187 39.5217 14.5727 39.5217 13.862L 39.5217 13.082C 39.5217 12.354 39.4177 11.7213 39.2097 11.184C 39.0017 11.0973 38.7157 11.0193 38.3517 10.95C 38.005 10.8807 37.6497 10.846 37.2857 10.846ZM 49.6799 9C 51.2226 9 52.3666 9.416 53.1119 10.248C 53.8746 11.0627 54.2559 12.224 54.2559 13.732L 54.2559 17.58C 54.2559 19.088 53.8746 20.258 53.1119 21.09C 52.3666 21.9047 51.2226 22.312 49.6799 22.312C 48.1373 22.312 46.9846 21.9047 46.2219 21.09C 45.4766 20.258 45.1039 19.088 45.1039 17.58L 45.1039 13.732C 45.1039 12.224 45.4766 11.0627 46.2219 10.248C 46.9846 9.416 48.1373 9 49.6799 9ZM 49.6799 10.846C 48.9346 10.846 48.3539 11.08 47.9379 11.548C 47.5219 12.016 47.3139 12.6833 47.3139 13.55L 47.3139 17.762C 47.3139 18.6287 47.5219 19.296 47.9379 19.764C 48.3539 20.232 48.9346 20.466 49.6799 20.466C 50.4253 20.466 51.0059 20.232 51.4219 19.764C 51.8379 19.296 52.0459 18.6287 52.0459 17.762L 52.0459 13.524C 52.0459 12.6573 51.8379 11.9987 51.4219 11.548C 51.0059 11.08 50.4253 10.846 49.6799 10.846ZM 60.3038 9.312L 63.6838 9.312L 63.6838 11.132L 60.3038 11.132L 60.3038 18.568C 60.3038 19.2267 60.4338 19.7033 60.6938 19.998C 60.9711 20.2753 61.3958 20.414 61.9678 20.414C 62.6958 20.414 63.4065 20.3273 64.0998 20.154L 64.1518 22C 63.3891 22.208 62.6958 22.312 62.0718 22.312C 60.6851 22.312 59.6711 22.0087 59.0298 21.402C 58.4058 20.778 58.0938 19.7727 58.0938 18.386L 58.0938 11.132L 56.2738 11.132L 56.2738 9.312L 58.0938 9.312L 58.5098 5.932L 60.3038 5.932L 60.3038 9.312ZM 76.6728 9C 77.7648 9 78.6142 9.37267 79.2208 10.118C 79.8275 10.8633 80.1308 11.938 80.1308 13.342L 80.1308 17.97C 80.1308 19.322 79.7755 20.388 79.0648 21.168C 78.3715 21.9307 77.4268 22.312 76.2308 22.312C 75.7802 22.312 75.2948 22.2167 74.7748 22.026C 74.2722 21.8527 73.8042 21.6447 73.3708 21.402L 73.3708 26.81L 71.1608 26.81L 71.1608 9.312L 73.2408 9.312L 73.2408 11.158C 74.1942 9.71933 75.3382 9 76.6728 9ZM 76.2308 10.976C 75.7282 10.976 75.2168 11.1667 74.6968 11.548C 74.1942 11.912 73.7522 12.4147 73.3708 13.056L 73.3708 19.426C 73.7348 19.7207 74.1335 19.9547 74.5668 20.128C 75.0175 20.284 75.4248 20.362 75.7888 20.362C 77.2102 20.362 77.9208 19.4607 77.9208 17.658L 77.9208 13.654C 77.9208 11.8687 77.3575 10.976 76.2308 10.976ZM 87.2985 9C 88.7892 9 89.8725 9.338 90.5485 10.014C 91.2418 10.6727 91.5885 11.73 91.5885 13.186L 91.5885 22L 89.4825 22L 89.4825 19.972C 88.4772 21.532 87.3418 22.312 86.0765 22.312C 85.0712 22.312 84.2652 21.9653 83.6585 21.272C 83.0692 20.5787 82.7745 19.634 82.7745 18.438L 82.7745 17.71C 82.7745 16.67 83.1298 15.812 83.8405 15.136C 84.5512 14.4427 85.5045 14.096 86.7005 14.096C 87.3592 14.096 88.2518 14.2087 89.3785 14.434L 89.3785 13.004C 89.3785 12.2587 89.2052 11.7213 88.8585 11.392C 88.5292 11.0627 88.0092 10.898 87.2985 10.898C 86.4665 10.898 85.2965 11.028 83.7885 11.288L 83.7885 9.39C 85.4178 9.13 86.5878 9 87.2985 9ZM 87.2465 15.812C 86.5185 15.812 85.9638 16.0027 85.5825 16.384C 85.2012 16.7653 85.0105 17.3027 85.0105 17.996L 85.0105 18.282C 85.0105 18.9233 85.1578 19.426 85.4525 19.79C 85.7472 20.154 86.1198 20.336 86.5705 20.336C 87.0385 20.336 87.5152 20.1367 88.0005 19.738C 88.5032 19.322 88.9625 18.7413 89.3785 17.996L 89.3785 15.994C 88.7198 15.8727 88.0092 15.812 87.2465 15.812ZM 98.7442 9C 99.4722 9 100.348 9.104 101.37 9.312L 101.318 11.184C 100.417 10.976 99.5935 10.872 98.8482 10.872C 97.2882 10.872 96.5082 11.3747 96.5082 12.38L 96.5082 12.614C 96.5082 12.926 96.5862 13.1773 96.7422 13.368C 96.9155 13.5587 97.2188 13.758 97.6522 13.966L 100.096 15.11C 101.57 15.8033 102.306 16.8173 102.306 18.152L 102.306 18.724C 102.289 19.92 101.925 20.8213 101.214 21.428C 100.521 22.0173 99.4202 22.312 97.9122 22.312C 97.1322 22.312 96.0142 22.13 94.5582 21.766L 94.6622 19.79C 95.9622 20.1713 97.0282 20.362 97.8602 20.362C 98.7095 20.362 99.2988 20.2493 99.6282 20.024C 99.9575 19.7813 100.122 19.3913 100.122 18.854L 100.122 18.594C 100.122 18.178 100.036 17.8487 99.8622 17.606C 99.7062 17.3633 99.4375 17.1553 99.0562 16.982L 96.5342 15.864C 95.7715 15.5173 95.2082 15.1013 94.8442 14.616C 94.4975 14.1307 94.3242 13.5673 94.3242 12.926L 94.3242 12.562C 94.3588 11.3833 94.7228 10.4993 95.4162 9.91C 96.1268 9.30333 97.2362 9 98.7442 9ZM 108.494 9C 109.222 9 110.098 9.104 111.12 9.312L 111.068 11.184C 110.167 10.976 109.344 10.872 108.598 10.872C 107.038 10.872 106.258 11.3747 106.258 12.38L 106.258 12.614C 106.258 12.926 106.336 13.1773 106.492 13.368C 106.666 13.5587 106.969 13.758 107.402 13.966L 109.846 15.11C 111.32 15.8033 112.056 16.8173 112.056 18.152L 112.056 18.724C 112.039 19.92 111.675 20.8213 110.964 21.428C 110.271 22.0173 109.17 22.312 107.662 22.312C 106.882 22.312 105.764 22.13 104.308 21.766L 104.412 19.79C 105.712 20.1713 106.778 20.362 107.61 20.362C 108.46 20.362 109.049 20.2493 109.378 20.024C 109.708 19.7813 109.872 19.3913 109.872 18.854L 109.872 18.594C 109.872 18.178 109.786 17.8487 109.612 17.606C 109.456 17.3633 109.188 17.1553 108.806 16.982L 106.284 15.864C 105.522 15.5173 104.958 15.1013 104.594 14.616C 104.248 14.1307 104.074 13.5673 104.074 12.926L 104.074 12.562C 104.109 11.3833 104.473 10.4993 105.166 9.91C 105.877 9.30333 106.986 9 108.494 9ZM 130.146 9.312L 127.208 22L 124.426 22L 121.852 11.236L 119.252 22L 116.47 22L 113.558 9.312L 115.898 9.312L 117.952 20.05L 120.422 9.312L 123.282 9.312L 125.726 20.05L 127.806 9.312L 130.146 9.312ZM 136.795 9C 138.338 9 139.482 9.416 140.227 10.248C 140.99 11.0627 141.371 12.224 141.371 13.732L 141.371 17.58C 141.371 19.088 140.99 20.258 140.227 21.09C 139.482 21.9047 138.338 22.312 136.795 22.312C 135.253 22.312 134.1 21.9047 133.337 21.09C 132.592 20.258 132.219 19.088 132.219 17.58L 132.219 13.732C 132.219 12.224 132.592 11.0627 133.337 10.248C 134.1 9.416 135.253 9 136.795 9ZM 136.795 10.846C 136.05 10.846 135.469 11.08 135.053 11.548C 134.637 12.016 134.429 12.6833 134.429 13.55L 134.429 17.762C 134.429 18.6287 134.637 19.296 135.053 19.764C 135.469 20.232 136.05 20.466 136.795 20.466C 137.541 20.466 138.121 20.232 138.537 19.764C 138.953 19.296 139.161 18.6287 139.161 17.762L 139.161 13.524C 139.161 12.6573 138.953 11.9987 138.537 11.548C 138.121 11.08 137.541 10.846 136.795 10.846ZM 150.281 9C 150.524 9 150.714 9.01733 150.853 9.052L 150.853 11.548C 150.593 11.496 150.255 11.47 149.839 11.47C 148.626 11.47 147.664 12.0767 146.953 13.29L 146.953 22L 144.743 22L 144.743 9.312L 146.823 9.312L 146.823 11.21C 147.291 10.4993 147.811 9.95333 148.383 9.572C 148.972 9.19067 149.605 9 150.281 9ZM 161.756 22L 159.65 22L 159.65 19.946C 158.61 21.5233 157.423 22.312 156.088 22.312C 155.014 22.312 154.19 21.948 153.618 21.22C 153.046 20.4747 152.76 19.3913 152.76 17.97L 152.76 13.342C 152.76 11.9727 153.072 10.9067 153.696 10.144C 154.338 9.38133 155.248 9 156.426 9C 156.929 9 157.458 9.13 158.012 9.39C 158.567 9.63267 159.078 9.936 159.546 10.3L 159.546 4.242L 161.756 4.242L 161.756 22ZM 156.92 10.976C 156.296 10.976 155.811 11.2013 155.464 11.652C 155.135 12.0853 154.97 12.7527 154.97 13.654L 154.97 17.684C 154.97 19.452 155.516 20.336 156.608 20.336C 157.128 20.336 157.64 20.1367 158.142 19.738C 158.662 19.322 159.13 18.7413 159.546 17.996L 159.546 12.276C 159.182 11.8947 158.749 11.5827 158.246 11.34C 157.761 11.0973 157.319 10.976 156.92 10.976ZM 167.621 3.93C 169.303 3.93 170.516 4.23333 171.261 4.84C 172.024 5.44667 172.405 6.33933 172.405 7.518L 172.405 8.168C 172.405 8.948 172.232 9.69333 171.885 10.404C 171.539 11.0973 170.958 11.8687 170.143 12.718L 169.285 13.654C 169.008 13.9487 168.817 14.226 168.713 14.486C 168.627 14.7287 168.583 15.11 168.583 15.63L 168.583 16.8L 166.477 16.8L 166.477 15.968C 166.477 15.1187 166.538 14.512 166.659 14.148C 166.781 13.784 167.067 13.3333 167.517 12.796L 169.025 11.028C 169.493 10.456 169.805 9.97933 169.961 9.598C 170.117 9.21667 170.195 8.72267 170.195 8.116L 170.195 7.544C 170.195 6.90267 169.996 6.43467 169.597 6.14C 169.216 5.84533 168.514 5.698 167.491 5.698C 166.677 5.698 165.585 5.854 164.215 6.166L 164.215 4.346C 165.567 4.06867 166.703 3.93 167.621 3.93ZM 167.569 19.192C 168.037 19.192 168.393 19.296 168.635 19.504C 168.895 19.712 169.025 20.0067 169.025 20.388L 169.025 21.142C 169.025 21.5233 168.895 21.8093 168.635 22C 168.393 22.208 168.037 22.312 167.569 22.312C 167.119 22.312 166.763 22.208 166.503 22C 166.261 21.8093 166.139 21.5233 166.139 21.142L 166.139 20.388C 166.139 20.0067 166.261 19.712 166.503 19.504C 166.763 19.296 167.119 19.192 167.569 19.192Z"/>
<path id="path10_fill" d="M 0 20C 0 8.9543 8.95431 0 20 0L 580 0C 591.046 0 600 8.95431 600 20L 600 71C 600 82.0457 591.046 91 580 91L 20 91C 8.95432 91 0 82.0457 0 71L 0 20Z"/>
<path id="path11_fill" d="M 224.525 10.8L 224.525 34L 234.925 34L 234.925 37L 221.125 37L 221.125 10.8L 224.525 10.8ZM 260.987 17C 263.36 17 265.12 17.64 266.267 18.92C 267.44 20.1733 268.027 21.96 268.027 24.28L 268.027 30.2C 268.027 32.52 267.44 34.32 266.267 35.6C 265.12 36.8533 263.36 37.48 260.987 37.48C 258.614 37.48 256.84 36.8533 255.667 35.6C 254.52 34.32 253.947 32.52 253.947 30.2L 253.947 24.28C 253.947 21.96 254.52 20.1733 255.667 18.92C 256.84 17.64 258.614 17 260.987 17ZM 260.987 19.84C 259.84 19.84 258.947 20.2 258.307 20.92C 257.667 21.64 257.347 22.6667 257.347 24L 257.347 30.48C 257.347 31.8133 257.667 32.84 258.307 33.56C 258.947 34.28 259.84 34.64 260.987 34.64C 262.134 34.64 263.027 34.28 263.667 33.56C 264.307 32.84 264.627 31.8133 264.627 30.48L 264.627 23.96C 264.627 22.6267 264.307 21.6133 263.667 20.92C 263.027 20.2 262.134 19.84 260.987 19.84ZM 295.614 17C 296.787 17 297.854 17.1733 298.814 17.52L 305.054 17.44L 305.054 20.44L 301.774 20.36C 302.227 21.32 302.454 22.32 302.454 23.36L 302.454 24.24C 302.454 26.1867 301.854 27.76 300.654 28.96C 299.454 30.1333 297.774 30.72 295.614 30.72C 294.227 30.72 293.094 30.5867 292.214 30.32C 291.627 30.8 291.334 31.3467 291.334 31.96L 291.334 32.2C 291.334 32.6267 291.467 32.9467 291.734 33.16C 292.001 33.3467 292.521 33.4667 293.294 33.52L 299.254 33.96C 300.481 34.0667 301.467 34.5333 302.214 35.36C 302.987 36.16 303.374 37.1733 303.374 38.4L 303.374 39.88C 303.374 41.0267 303.147 41.96 302.694 42.68C 302.241 43.4 301.401 43.9467 300.174 44.32C 298.974 44.6933 297.241 44.88 294.974 44.88C 294.121 44.88 293.107 44.7867 291.934 44.6C 290.787 44.4133 289.694 44.1733 288.654 43.88L 288.774 40.72C 291.254 41.5467 293.361 41.96 295.094 41.96C 296.534 41.96 297.601 41.8667 298.294 41.68C 299.014 41.52 299.481 41.2667 299.694 40.92C 299.934 40.5733 300.054 40.0533 300.054 39.36L 300.054 39.04C 300.054 38.4267 299.881 37.9467 299.534 37.6C 299.214 37.2533 298.747 37.0667 298.134 37.04L 292.134 36.64C 290.854 36.56 289.881 36.2 289.214 35.56C 288.547 34.92 288.214 34.0533 288.214 32.96L 288.214 32.16C 288.214 31.5733 288.361 31 288.654 30.44C 288.974 29.88 289.427 29.3867 290.014 28.96C 289.561 28.4533 289.227 27.8133 289.014 27.04C 288.827 26.24 288.734 25.2667 288.734 24.12L 288.734 23.24C 288.734 21.3467 289.321 19.84 290.494 18.72C 291.667 17.5733 293.374 17 295.614 17ZM 295.614 19.84C 294.494 19.84 293.627 20.1333 293.014 20.72C 292.427 21.28 292.134 22.0933 292.134 23.16L 292.134 24.48C 292.134 25.4667 292.214 26.2 292.374 26.68C 292.561 27.1333 292.881 27.4533 293.334 27.64C 293.787 27.8 294.467 27.88 295.374 27.88C 296.601 27.88 297.521 27.5867 298.134 27C 298.747 26.4133 299.054 25.5733 299.054 24.48L 299.054 23.28C 299.054 22.16 298.894 21.1867 298.574 20.36C 298.254 20.2267 297.814 20.1067 297.254 20C 296.721 19.8933 296.174 19.84 295.614 19.84ZM 327.638 17.48L 327.638 37L 324.238 37L 324.238 17.48L 327.638 17.48ZM 325.918 9.6C 326.637 9.6 327.184 9.76 327.557 10.08C 327.958 10.4 328.157 10.8533 328.157 11.44L 328.157 12.6C 328.157 13.1867 327.958 13.64 327.557 13.96C 327.184 14.2533 326.637 14.4 325.918 14.4C 325.224 14.4 324.678 14.2533 324.278 13.96C 323.904 13.64 323.718 13.1867 323.718 12.6L 323.718 11.44C 323.718 10.8533 323.904 10.4 324.278 10.08C 324.678 9.76 325.224 9.6 325.918 9.6ZM 357.742 17C 359.449 17 360.755 17.5867 361.662 18.76C 362.595 19.9067 363.062 21.5467 363.062 23.68L 363.062 37L 359.662 37L 359.662 24.16C 359.662 21.4933 358.795 20.16 357.062 20.16C 356.289 20.16 355.502 20.4533 354.702 21.04C 353.902 21.6267 353.209 22.4267 352.622 23.44L 352.622 37L 349.222 37L 349.222 17.48L 352.422 17.48L 352.422 20.4C 353.142 19.3067 353.942 18.4667 354.822 17.88C 355.729 17.2933 356.702 17 357.742 17Z"/>
<path id="path12_stroke" d="M 0 -5.55112e-17L 894.014 -5.55112e-17L 894.014 -1L 0 -1L 0 -5.55112e-17Z"/>
<path id="path13_fill" d="M 15.5405 9.98C 20.3005 9.98 23.9605 11.34 26.5205 14.06C 29.1205 16.74 30.4205 20.62 30.4205 25.7L 30.4205 35.54C 30.4205 40.42 29.1205 44.18 26.5205 46.82C 23.9605 49.42 20.2005 50.72 15.2405 50.72C 11.8405 50.72 8.28055 50.6 4.56055 50.36L 4.56055 10.22C 8.16055 10.06 11.8205 9.98 15.5405 9.98ZM 15.2405 14.3C 14.0005 14.3 12.1405 14.34 9.66055 14.42L 9.66055 45.98C 12.0205 46.22 13.8805 46.34 15.2405 46.34C 18.3205 46.34 20.7605 45.46 22.5605 43.7C 24.4005 41.9 25.3205 39.32 25.3205 35.96L 25.3205 25.34C 25.3205 21.7 24.4405 18.96 22.6805 17.12C 20.9205 15.24 18.4405 14.3 15.2405 14.3ZM 48.4979 20C 52.0579 20 54.6979 20.96 56.4179 22.88C 58.1779 24.76 59.0579 27.44 59.0579 30.92L 59.0579 39.8C 59.0579 43.28 58.1779 45.98 56.4179 47.9C 54.6979 49.78 52.0579 50.72 48.4979 50.72C 44.9379 50.72 42.2779 49.78 40.5179 47.9C 38.7979 45.98 37.9379 43.28 37.9379 39.8L 37.9379 30.92C 37.9379 27.44 38.7979 24.76 40.5179 22.88C 42.2779 20.96 44.9379 20 48.4979 20ZM 48.4979 24.26C 46.7779 24.26 45.4379 24.8 44.4779 25.88C 43.5179 26.96 43.0379 28.5 43.0379 30.5L 43.0379 40.22C 43.0379 42.22 43.5179 43.76 44.4779 44.84C 45.4379 45.92 46.7779 46.46 48.4979 46.46C 50.2179 46.46 51.5579 45.92 52.5179 44.84C 53.4779 43.76 53.9579 42.22 53.9579 40.22L 53.9579 30.44C 53.9579 28.44 53.4779 26.92 52.5179 25.88C 51.5579 24.8 50.2179 24.26 48.4979 24.26ZM 79.6187 20C 82.1787 20 84.1387 20.88 85.4987 22.64C 86.8987 24.36 87.5987 26.82 87.5987 30.02L 87.5987 50L 82.4987 50L 82.4987 30.74C 82.4987 26.74 81.1987 24.74 78.5987 24.74C 77.4387 24.74 76.2587 25.18 75.0587 26.06C 73.8587 26.94 72.8187 28.14 71.9387 29.66L 71.9387 50L 66.8387 50L 66.8387 20.72L 71.6387 20.72L 71.6387 25.1C 72.7187 23.46 73.9187 22.2 75.2387 21.32C 76.5987 20.44 78.0587 20 79.6187 20ZM 98.2984 8.3C 100.458 8.3 101.538 9.18 101.538 10.94L 101.538 12.74C 101.538 13.86 101.398 14.86 101.118 15.74L 99.3184 21.08L 95.7784 21.08L 97.1584 15.14C 95.7984 14.82 95.1184 13.98 95.1184 12.62L 95.1184 10.94C 95.1184 10.06 95.3784 9.4 95.8984 8.96C 96.4584 8.52 97.2584 8.3 98.2984 8.3ZM 115.026 20.72L 122.826 20.72L 122.826 24.92L 115.026 24.92L 115.026 42.08C 115.026 43.6 115.326 44.7 115.926 45.38C 116.566 46.02 117.546 46.34 118.866 46.34C 120.546 46.34 122.186 46.14 123.786 45.74L 123.906 50C 122.146 50.48 120.546 50.72 119.106 50.72C 115.906 50.72 113.566 50.02 112.086 48.62C 110.646 47.18 109.926 44.86 109.926 41.66L 109.926 24.92L 105.726 24.92L 105.726 20.72L 109.926 20.72L 110.886 12.92L 115.026 12.92L 115.026 20.72ZM 145.181 24.62C 147.381 21.54 149.941 20 152.861 20C 155.421 20 157.381 20.88 158.741 22.64C 160.141 24.36 160.841 26.82 160.841 30.02L 160.841 50L 155.741 50L 155.741 30.74C 155.741 26.74 154.441 24.74 151.841 24.74C 150.681 24.74 149.501 25.18 148.301 26.06C 147.101 26.94 146.061 28.14 145.181 29.66L 145.181 50L 140.081 50L 140.081 9.02L 145.181 9.02L 145.181 24.62ZM 177.908 20C 181.348 20 183.848 20.78 185.408 22.34C 187.008 23.86 187.808 26.3 187.808 29.66L 187.808 50L 182.948 50L 182.948 45.32C 180.628 48.92 178.008 50.72 175.088 50.72C 172.768 50.72 170.908 49.92 169.508 48.32C 168.148 46.72 167.468 44.54 167.468 41.78L 167.468 40.1C 167.468 37.7 168.288 35.72 169.928 34.16C 171.568 32.56 173.768 31.76 176.528 31.76C 178.048 31.76 180.108 32.02 182.708 32.54L 182.708 29.24C 182.708 27.52 182.308 26.28 181.508 25.52C 180.748 24.76 179.548 24.38 177.908 24.38C 175.988 24.38 173.288 24.68 169.808 25.28L 169.808 20.9C 173.568 20.3 176.268 20 177.908 20ZM 177.788 35.72C 176.108 35.72 174.828 36.16 173.948 37.04C 173.068 37.92 172.628 39.16 172.628 40.76L 172.628 41.42C 172.628 42.9 172.968 44.06 173.648 44.9C 174.328 45.74 175.188 46.16 176.228 46.16C 177.308 46.16 178.408 45.7 179.528 44.78C 180.688 43.82 181.748 42.48 182.708 40.76L 182.708 36.14C 181.188 35.86 179.548 35.72 177.788 35.72ZM 217.041 20.72L 207.981 50L 201.321 50L 192.321 20.72L 197.721 20.72L 204.681 46.28L 211.641 20.72L 217.041 20.72ZM 231.243 20C 234.603 20 237.163 20.92 238.923 22.76C 240.683 24.6 241.563 27.26 241.563 30.74L 241.563 36.92L 226.143 36.92L 226.143 40.46C 226.143 42.5 226.623 43.98 227.583 44.9C 228.583 45.78 230.143 46.22 232.263 46.22C 234.343 46.22 236.943 45.9 240.063 45.26L 240.183 49.7C 236.463 50.38 233.803 50.72 232.203 50.72C 228.243 50.72 225.383 49.86 223.623 48.14C 221.903 46.42 221.043 43.76 221.043 40.16L 221.043 30.74C 221.043 27.26 221.883 24.6 223.563 22.76C 225.283 20.92 227.843 20 231.243 20ZM 231.243 24.26C 229.683 24.26 228.443 24.76 227.523 25.76C 226.603 26.72 226.143 28.12 226.143 29.96L 226.143 32.84L 236.463 32.84L 236.463 30.14C 236.463 28.22 235.983 26.76 235.023 25.76C 234.103 24.76 232.843 24.26 231.243 24.26ZM 268.201 20C 271.641 20 274.141 20.78 275.701 22.34C 277.301 23.86 278.101 26.3 278.101 29.66L 278.101 50L 273.241 50L 273.241 45.32C 270.921 48.92 268.301 50.72 265.381 50.72C 263.061 50.72 261.201 49.92 259.801 48.32C 258.441 46.72 257.761 44.54 257.761 41.78L 257.761 40.1C 257.761 37.7 258.581 35.72 260.221 34.16C 261.861 32.56 264.061 31.76 266.821 31.76C 268.341 31.76 270.401 32.02 273.001 32.54L 273.001 29.24C 273.001 27.52 272.601 26.28 271.801 25.52C 271.041 24.76 269.841 24.38 268.201 24.38C 266.281 24.38 263.581 24.68 260.101 25.28L 260.101 20.9C 263.861 20.3 266.561 20 268.201 20ZM 268.081 35.72C 266.401 35.72 265.121 36.16 264.241 37.04C 263.361 37.92 262.921 39.16 262.921 40.76L 262.921 41.42C 262.921 42.9 263.261 44.06 263.941 44.9C 264.621 45.74 265.481 46.16 266.521 46.16C 267.601 46.16 268.701 45.7 269.821 44.78C 270.981 43.82 272.041 42.48 273.001 40.76L 273.001 36.14C 271.481 35.86 269.841 35.72 268.081 35.72ZM 298.994 20C 301.554 20 303.514 20.88 304.874 22.64C 306.274 24.36 306.974 26.82 306.974 30.02L 306.974 50L 301.874 50L 301.874 30.74C 301.874 26.74 300.574 24.74 297.974 24.74C 296.814 24.74 295.634 25.18 294.434 26.06C 293.234 26.94 292.194 28.14 291.314 29.66L 291.314 50L 286.214 50L 286.214 20.72L 291.014 20.72L 291.014 25.1C 292.094 23.46 293.294 22.2 294.614 21.32C 295.974 20.44 297.434 20 298.994 20ZM 335.115 20C 338.555 20 341.055 20.78 342.615 22.34C 344.215 23.86 345.015 26.3 345.015 29.66L 345.015 50L 340.155 50L 340.155 45.32C 337.835 48.92 335.215 50.72 332.295 50.72C 329.975 50.72 328.115 49.92 326.715 48.32C 325.355 46.72 324.675 44.54 324.675 41.78L 324.675 40.1C 324.675 37.7 325.495 35.72 327.135 34.16C 328.775 32.56 330.975 31.76 333.735 31.76C 335.255 31.76 337.315 32.02 339.915 32.54L 339.915 29.24C 339.915 27.52 339.515 26.28 338.715 25.52C 337.955 24.76 336.755 24.38 335.115 24.38C 333.195 24.38 330.495 24.68 327.015 25.28L 327.015 20.9C 330.775 20.3 333.475 20 335.115 20ZM 334.995 35.72C 333.315 35.72 332.035 36.16 331.155 37.04C 330.275 37.92 329.835 39.16 329.835 40.76L 329.835 41.42C 329.835 42.9 330.175 44.06 330.855 44.9C 331.535 45.74 332.395 46.16 333.435 46.16C 334.515 46.16 335.615 45.7 336.735 44.78C 337.895 43.82 338.955 42.48 339.915 40.76L 339.915 36.14C 338.395 35.86 336.755 35.72 334.995 35.72ZM 363.388 20C 365.188 20 367.228 20.26 369.508 20.78L 369.388 25.28C 367.068 24.76 365.068 24.5 363.388 24.5C 361.508 24.5 360.068 25.02 359.068 26.06C 358.108 27.1 357.628 28.58 357.628 30.5L 357.628 40.16C 357.628 42.16 358.128 43.68 359.128 44.72C 360.168 45.72 361.588 46.22 363.388 46.22C 364.508 46.22 365.488 46.16 366.328 46.04C 367.168 45.92 368.188 45.72 369.388 45.44L 369.508 49.94C 367.068 50.46 365.008 50.72 363.328 50.72C 356.128 50.72 352.528 47.08 352.528 39.8L 352.528 30.92C 352.528 23.64 356.148 20 363.388 20ZM 386.767 20C 388.567 20 390.607 20.26 392.887 20.78L 392.767 25.28C 390.447 24.76 388.447 24.5 386.767 24.5C 384.887 24.5 383.447 25.02 382.447 26.06C 381.487 27.1 381.007 28.58 381.007 30.5L 381.007 40.16C 381.007 42.16 381.507 43.68 382.507 44.72C 383.547 45.72 384.967 46.22 386.767 46.22C 387.887 46.22 388.867 46.16 389.707 46.04C 390.547 45.92 391.567 45.72 392.767 45.44L 392.887 49.94C 390.447 50.46 388.387 50.72 386.707 50.72C 379.507 50.72 375.907 47.08 375.907 39.8L 375.907 30.92C 375.907 23.64 379.527 20 386.767 20ZM 409.846 20C 413.406 20 416.046 20.96 417.766 22.88C 419.526 24.76 420.406 27.44 420.406 30.92L 420.406 39.8C 420.406 43.28 419.526 45.98 417.766 47.9C 416.046 49.78 413.406 50.72 409.846 50.72C 406.286 50.72 403.626 49.78 401.866 47.9C 400.146 45.98 399.286 43.28 399.286 39.8L 399.286 30.92C 399.286 27.44 400.146 24.76 401.866 22.88C 403.626 20.96 406.286 20 409.846 20ZM 409.846 24.26C 408.126 24.26 406.786 24.8 405.826 25.88C 404.866 26.96 404.386 28.5 404.386 30.5L 404.386 40.22C 404.386 42.22 404.866 43.76 405.826 44.84C 406.786 45.92 408.126 46.46 409.846 46.46C 411.566 46.46 412.906 45.92 413.866 44.84C 414.826 43.76 415.306 42.22 415.306 40.22L 415.306 30.44C 415.306 28.44 414.826 26.92 413.866 25.88C 412.906 24.8 411.566 24.26 409.846 24.26ZM 448.586 50L 443.786 50L 443.786 45.8C 442.706 47.4 441.506 48.62 440.186 49.46C 438.866 50.3 437.466 50.72 435.986 50.72C 433.546 50.72 431.626 49.88 430.226 48.2C 428.866 46.48 428.186 43.98 428.186 40.7L 428.186 20.72L 433.286 20.72L 433.286 39.8C 433.286 41.92 433.606 43.48 434.246 44.48C 434.926 45.48 435.846 45.98 437.006 45.98C 438.086 45.98 439.206 45.56 440.366 44.72C 441.566 43.84 442.606 42.64 443.486 41.12L 443.486 20.72L 448.586 20.72L 448.586 50ZM 469.794 20C 472.354 20 474.314 20.88 475.674 22.64C 477.074 24.36 477.774 26.82 477.774 30.02L 477.774 50L 472.674 50L 472.674 30.74C 472.674 26.74 471.374 24.74 468.774 24.74C 467.614 24.74 466.434 25.18 465.234 26.06C 464.034 26.94 462.994 28.14 462.114 29.66L 462.114 50L 457.014 50L 457.014 20.72L 461.814 20.72L 461.814 25.1C 462.894 23.46 464.094 22.2 465.414 21.32C 466.774 20.44 468.234 20 469.794 20ZM 492.194 20.72L 499.994 20.72L 499.994 24.92L 492.194 24.92L 492.194 42.08C 492.194 43.6 492.494 44.7 493.094 45.38C 493.734 46.02 494.714 46.34 496.034 46.34C 497.714 46.34 499.354 46.14 500.954 45.74L 501.074 50C 499.314 50.48 497.714 50.72 496.274 50.72C 493.074 50.72 490.734 50.02 489.254 48.62C 487.814 47.18 487.094 44.86 487.094 41.66L 487.094 24.92L 482.894 24.92L 482.894 20.72L 487.094 20.72L 488.054 12.92L 492.194 12.92L 492.194 20.72ZM 511.628 8.3C 515.508 8.3 518.308 9 520.028 10.4C 521.788 11.8 522.668 13.86 522.668 16.58L 522.668 18.08C 522.668 19.88 522.268 21.6 521.468 23.24C 520.668 24.84 519.328 26.62 517.448 28.58L 515.468 30.74C 514.828 31.42 514.388 32.06 514.148 32.66C 513.948 33.22 513.848 34.1 513.848 35.3L 513.848 38L 508.988 38L 508.988 36.08C 508.988 34.12 509.128 32.72 509.408 31.88C 509.688 31.04 510.348 30 511.388 28.76L 514.868 24.68C 515.948 23.36 516.668 22.26 517.028 21.38C 517.388 20.5 517.568 19.36 517.568 17.96L 517.568 16.64C 517.568 15.16 517.108 14.08 516.188 13.4C 515.308 12.72 513.688 12.38 511.328 12.38C 509.448 12.38 506.928 12.74 503.768 13.46L 503.768 9.26C 506.888 8.62 509.508 8.3 511.628 8.3ZM 511.508 43.52C 512.588 43.52 513.408 43.76 513.968 44.24C 514.568 44.72 514.868 45.4 514.868 46.28L 514.868 48.02C 514.868 48.9 514.568 49.56 513.968 50C 513.408 50.48 512.588 50.72 511.508 50.72C 510.468 50.72 509.648 50.48 509.048 50C 508.488 49.56 508.208 48.9 508.208 48.02L 508.208 46.28C 508.208 45.4 508.488 44.72 509.048 44.24C 509.648 43.76 510.468 43.52 511.508 43.52Z"/>
<path id="path14_fill" d="M 37.1483 8.525L 30.3533 38L 25.2233 38L 19.1933 12.89L 13.2083 38L 8.07828 38L 1.23828 8.525L 5.28828 8.525L 10.7783 33.815L 16.5833 8.525L 21.8033 8.525L 27.6533 33.815L 33.0983 8.525L 37.1483 8.525ZM 47.4652 15.5C 49.9852 15.5 51.9052 16.19 53.2252 17.57C 54.5452 18.95 55.2052 20.945 55.2052 23.555L 55.2052 28.19L 43.6402 28.19L 43.6402 30.845C 43.6402 32.375 44.0002 33.485 44.7202 34.175C 45.4702 34.835 46.6402 35.165 48.2302 35.165C 49.7902 35.165 51.7402 34.925 54.0802 34.445L 54.1702 37.775C 51.3802 38.285 49.3852 38.54 48.1852 38.54C 45.2152 38.54 43.0702 37.895 41.7502 36.605C 40.4602 35.315 39.8152 33.32 39.8152 30.62L 39.8152 23.555C 39.8152 20.945 40.4452 18.95 41.7052 17.57C 42.9952 16.19 44.9152 15.5 47.4652 15.5ZM 47.4652 18.695C 46.2952 18.695 45.3652 19.07 44.6752 19.82C 43.9852 20.54 43.6402 21.59 43.6402 22.97L 43.6402 25.13L 51.3802 25.13L 51.3802 23.105C 51.3802 21.665 51.0202 20.57 50.3002 19.82C 49.6102 19.07 48.6652 18.695 47.4652 18.695ZM 76.1731 15.5C 77.5231 15.5 79.0531 15.695 80.7631 16.085L 80.6731 19.46C 78.9331 19.07 77.4331 18.875 76.1731 18.875C 74.7631 18.875 73.6831 19.265 72.9331 20.045C 72.2131 20.825 71.8531 21.935 71.8531 23.375L 71.8531 30.62C 71.8531 32.12 72.2281 33.26 72.9781 34.04C 73.7581 34.79 74.8231 35.165 76.1731 35.165C 77.0131 35.165 77.7481 35.12 78.3781 35.03C 79.0081 34.94 79.7731 34.79 80.6731 34.58L 80.7631 37.955C 78.9331 38.345 77.3881 38.54 76.1281 38.54C 70.7281 38.54 68.0281 35.81 68.0281 30.35L 68.0281 23.69C 68.0281 18.23 70.7431 15.5 76.1731 15.5ZM 92.7173 15.5C 95.2973 15.5 97.1723 16.085 98.3423 17.255C 99.5423 18.395 100.142 20.225 100.142 22.745L 100.142 38L 96.4973 38L 96.4973 34.49C 94.7573 37.19 92.7923 38.54 90.6023 38.54C 88.8623 38.54 87.4673 37.94 86.4173 36.74C 85.3973 35.54 84.8873 33.905 84.8873 31.835L 84.8873 30.575C 84.8873 28.775 85.5023 27.29 86.7323 26.12C 87.9623 24.92 89.6123 24.32 91.6823 24.32C 92.8223 24.32 94.3673 24.515 96.3173 24.905L 96.3173 22.43C 96.3173 21.14 96.0173 20.21 95.4173 19.64C 94.8473 19.07 93.9473 18.785 92.7173 18.785C 91.2773 18.785 89.2523 19.01 86.6423 19.46L 86.6423 16.175C 89.4623 15.725 91.4873 15.5 92.7173 15.5ZM 92.6273 27.29C 91.3673 27.29 90.4073 27.62 89.7473 28.28C 89.0873 28.94 88.7573 29.87 88.7573 31.07L 88.7573 31.565C 88.7573 32.675 89.0123 33.545 89.5223 34.175C 90.0323 34.805 90.6773 35.12 91.4573 35.12C 92.2673 35.12 93.0923 34.775 93.9323 34.085C 94.8023 33.365 95.5973 32.36 96.3173 31.07L 96.3173 27.605C 95.1773 27.395 93.9473 27.29 92.6273 27.29ZM 115.812 15.5C 117.732 15.5 119.202 16.16 120.222 17.48C 121.272 18.77 121.797 20.615 121.797 23.015L 121.797 38L 117.972 38L 117.972 23.555C 117.972 20.555 116.997 19.055 115.047 19.055C 114.177 19.055 113.292 19.385 112.392 20.045C 111.492 20.705 110.712 21.605 110.052 22.745L 110.052 38L 106.227 38L 106.227 16.04L 109.827 16.04L 109.827 19.325C 110.637 18.095 111.537 17.15 112.527 16.49C 113.547 15.83 114.642 15.5 115.812 15.5ZM 140.023 18.965C 141.673 16.655 143.593 15.5 145.783 15.5C 147.703 15.5 149.173 16.16 150.193 17.48C 151.243 18.77 151.768 20.615 151.768 23.015L 151.768 38L 147.943 38L 147.943 23.555C 147.943 20.555 146.968 19.055 145.018 19.055C 144.148 19.055 143.263 19.385 142.363 20.045C 141.463 20.705 140.683 21.605 140.023 22.745L 140.023 38L 136.198 38L 136.198 7.265L 140.023 7.265L 140.023 18.965ZM 165.063 15.5C 167.583 15.5 169.503 16.19 170.823 17.57C 172.143 18.95 172.803 20.945 172.803 23.555L 172.803 28.19L 161.238 28.19L 161.238 30.845C 161.238 32.375 161.598 33.485 162.318 34.175C 163.068 34.835 164.238 35.165 165.828 35.165C 167.388 35.165 169.338 34.925 171.678 34.445L 171.768 37.775C 168.978 38.285 166.983 38.54 165.783 38.54C 162.813 38.54 160.668 37.895 159.348 36.605C 158.058 35.315 157.413 33.32 157.413 30.62L 157.413 23.555C 157.413 20.945 158.043 18.95 159.303 17.57C 160.593 16.19 162.513 15.5 165.063 15.5ZM 165.063 18.695C 163.893 18.695 162.963 19.07 162.273 19.82C 161.583 20.54 161.238 21.59 161.238 22.97L 161.238 25.13L 168.978 25.13L 168.978 23.105C 168.978 21.665 168.618 20.57 167.898 19.82C 167.208 19.07 166.263 18.695 165.063 18.695ZM 181.815 7.265L 181.815 38L 177.99 38L 177.99 7.265L 181.815 7.265ZM 197.637 15.5C 199.527 15.5 200.997 16.145 202.047 17.435C 203.097 18.725 203.622 20.585 203.622 23.015L 203.622 31.025C 203.622 33.365 203.007 35.21 201.777 36.56C 200.577 37.88 198.942 38.54 196.872 38.54C 196.092 38.54 195.252 38.375 194.352 38.045C 193.482 37.745 192.672 37.385 191.922 36.965L 191.922 46.325L 188.097 46.325L 188.097 16.04L 191.697 16.04L 191.697 19.235C 193.347 16.745 195.327 15.5 197.637 15.5ZM 196.872 18.92C 196.002 18.92 195.117 19.25 194.217 19.91C 193.347 20.54 192.582 21.41 191.922 22.52L 191.922 33.545C 192.552 34.055 193.242 34.46 193.992 34.76C 194.772 35.03 195.477 35.165 196.107 35.165C 198.567 35.165 199.797 33.605 199.797 30.485L 199.797 23.555C 199.797 20.465 198.822 18.92 196.872 18.92ZM 233.561 16.04L 223.481 46.325L 219.656 46.325L 222.536 38L 221.096 38L 214.841 16.04L 219.026 16.04L 223.751 35.255L 229.601 16.04L 233.561 16.04ZM 244.478 15.5C 247.148 15.5 249.128 16.22 250.418 17.66C 251.738 19.07 252.398 21.08 252.398 23.69L 252.398 30.35C 252.398 32.96 251.738 34.985 250.418 36.425C 249.128 37.835 247.148 38.54 244.478 38.54C 241.808 38.54 239.813 37.835 238.493 36.425C 237.203 34.985 236.558 32.96 236.558 30.35L 236.558 23.69C 236.558 21.08 237.203 19.07 238.493 17.66C 239.813 16.22 241.808 15.5 244.478 15.5ZM 244.478 18.695C 243.188 18.695 242.183 19.1 241.463 19.91C 240.743 20.72 240.383 21.875 240.383 23.375L 240.383 30.665C 240.383 32.165 240.743 33.32 241.463 34.13C 242.183 34.94 243.188 35.345 244.478 35.345C 245.768 35.345 246.773 34.94 247.493 34.13C 248.213 33.32 248.573 32.165 248.573 30.665L 248.573 23.33C 248.573 21.83 248.213 20.69 247.493 19.91C 246.773 19.1 245.768 18.695 244.478 18.695ZM 273.534 38L 269.934 38L 269.934 34.85C 269.124 36.05 268.224 36.965 267.234 37.595C 266.244 38.225 265.194 38.54 264.084 38.54C 262.254 38.54 260.814 37.91 259.764 36.65C 258.744 35.36 258.234 33.485 258.234 31.025L 258.234 16.04L 262.059 16.04L 262.059 30.35C 262.059 31.94 262.299 33.11 262.779 33.86C 263.289 34.61 263.979 34.985 264.849 34.985C 265.659 34.985 266.499 34.67 267.369 34.04C 268.269 33.38 269.049 32.48 269.709 31.34L 269.709 16.04L 273.534 16.04L 273.534 38ZM 295.141 15.5C 296.461 15.5 297.661 15.695 298.741 16.085L 305.761 15.995L 305.761 19.37L 302.071 19.28C 302.581 20.36 302.836 21.485 302.836 22.655L 302.836 23.645C 302.836 25.835 302.161 27.605 300.811 28.955C 299.461 30.275 297.571 30.935 295.141 30.935C 293.581 30.935 292.306 30.785 291.316 30.485C 290.656 31.025 290.326 31.64 290.326 32.33L 290.326 32.6C 290.326 33.08 290.476 33.44 290.776 33.68C 291.076 33.89 291.661 34.025 292.531 34.085L 299.236 34.58C 300.616 34.7 301.726 35.225 302.566 36.155C 303.436 37.055 303.871 38.195 303.871 39.575L 303.871 41.24C 303.871 42.53 303.616 43.58 303.106 44.39C 302.596 45.2 301.651 45.815 300.271 46.235C 298.921 46.655 296.971 46.865 294.421 46.865C 293.461 46.865 292.321 46.76 291.001 46.55C 289.711 46.34 288.481 46.07 287.311 45.74L 287.446 42.185C 290.236 43.115 292.606 43.58 294.556 43.58C 296.176 43.58 297.376 43.475 298.156 43.265C 298.966 43.085 299.491 42.8 299.731 42.41C 300.001 42.02 300.136 41.435 300.136 40.655L 300.136 40.295C 300.136 39.605 299.941 39.065 299.551 38.675C 299.191 38.285 298.666 38.075 297.976 38.045L 291.226 37.595C 289.786 37.505 288.691 37.1 287.941 36.38C 287.191 35.66 286.816 34.685 286.816 33.455L 286.816 32.555C 286.816 31.895 286.981 31.25 287.311 30.62C 287.671 29.99 288.181 29.435 288.841 28.955C 288.331 28.385 287.956 27.665 287.716 26.795C 287.506 25.895 287.401 24.8 287.401 23.51L 287.401 22.52C 287.401 20.39 288.061 18.695 289.381 17.435C 290.701 16.145 292.621 15.5 295.141 15.5ZM 295.141 18.695C 293.881 18.695 292.906 19.025 292.216 19.685C 291.556 20.315 291.226 21.23 291.226 22.43L 291.226 23.915C 291.226 25.025 291.316 25.85 291.496 26.39C 291.706 26.9 292.066 27.26 292.576 27.47C 293.086 27.65 293.851 27.74 294.871 27.74C 296.251 27.74 297.286 27.41 297.976 26.75C 298.666 26.09 299.011 25.145 299.011 23.915L 299.011 22.565C 299.011 21.305 298.831 20.21 298.471 19.28C 298.111 19.13 297.616 18.995 296.986 18.875C 296.386 18.755 295.771 18.695 295.141 18.695ZM 316.323 15.5C 318.843 15.5 320.763 16.19 322.083 17.57C 323.403 18.95 324.063 20.945 324.063 23.555L 324.063 28.19L 312.498 28.19L 312.498 30.845C 312.498 32.375 312.858 33.485 313.578 34.175C 314.328 34.835 315.498 35.165 317.088 35.165C 318.648 35.165 320.598 34.925 322.938 34.445L 323.028 37.775C 320.238 38.285 318.243 38.54 317.043 38.54C 314.073 38.54 311.928 37.895 310.608 36.605C 309.318 35.315 308.673 33.32 308.673 30.62L 308.673 23.555C 308.673 20.945 309.303 18.95 310.563 17.57C 311.853 16.19 313.773 15.5 316.323 15.5ZM 316.323 18.695C 315.153 18.695 314.223 19.07 313.533 19.82C 312.843 20.54 312.498 21.59 312.498 22.97L 312.498 25.13L 320.238 25.13L 320.238 23.105C 320.238 21.665 319.878 20.57 319.158 19.82C 318.468 19.07 317.523 18.695 316.323 18.695ZM 333.75 16.04L 339.6 16.04L 339.6 19.19L 333.75 19.19L 333.75 32.06C 333.75 33.2 333.975 34.025 334.425 34.535C 334.905 35.015 335.64 35.255 336.63 35.255C 337.89 35.255 339.12 35.105 340.32 34.805L 340.41 38C 339.09 38.36 337.89 38.54 336.81 38.54C 334.41 38.54 332.655 38.015 331.545 36.965C 330.465 35.885 329.925 34.145 329.925 31.745L 329.925 19.19L 326.775 19.19L 326.775 16.04L 329.925 16.04L 330.645 10.19L 333.75 10.19L 333.75 16.04ZM 358.841 15.5C 360.101 15.5 361.616 15.68 363.386 16.04L 363.296 19.28C 361.736 18.92 360.311 18.74 359.021 18.74C 356.321 18.74 354.971 19.61 354.971 21.35L 354.971 21.755C 354.971 22.295 355.106 22.73 355.376 23.06C 355.676 23.39 356.201 23.735 356.951 24.095L 361.181 26.075C 363.731 27.275 365.006 29.03 365.006 31.34L 365.006 32.33C 364.976 34.4 364.346 35.96 363.116 37.01C 361.916 38.03 360.011 38.54 357.401 38.54C 356.051 38.54 354.116 38.225 351.596 37.595L 351.776 34.175C 354.026 34.835 355.871 35.165 357.311 35.165C 358.781 35.165 359.801 34.97 360.371 34.58C 360.941 34.16 361.226 33.485 361.226 32.555L 361.226 32.105C 361.226 31.385 361.076 30.815 360.776 30.395C 360.506 29.975 360.041 29.615 359.381 29.315L 355.016 27.38C 353.696 26.78 352.721 26.06 352.091 25.22C 351.491 24.38 351.191 23.405 351.191 22.295L 351.191 21.665C 351.251 19.625 351.881 18.095 353.081 17.075C 354.311 16.025 356.231 15.5 358.841 15.5ZM 374.223 16.04L 380.073 16.04L 380.073 19.19L 374.223 19.19L 374.223 32.06C 374.223 33.2 374.448 34.025 374.898 34.535C 375.378 35.015 376.113 35.255 377.103 35.255C 378.363 35.255 379.593 35.105 380.793 34.805L 380.883 38C 379.563 38.36 378.363 38.54 377.283 38.54C 374.883 38.54 373.128 38.015 372.018 36.965C 370.938 35.885 370.398 34.145 370.398 31.745L 370.398 19.19L 367.248 19.19L 367.248 16.04L 370.398 16.04L 371.118 10.19L 374.223 10.19L 374.223 16.04ZM 391.633 15.5C 394.213 15.5 396.088 16.085 397.258 17.255C 398.458 18.395 399.058 20.225 399.058 22.745L 399.058 38L 395.413 38L 395.413 34.49C 393.673 37.19 391.708 38.54 389.518 38.54C 387.778 38.54 386.383 37.94 385.333 36.74C 384.313 35.54 383.803 33.905 383.803 31.835L 383.803 30.575C 383.803 28.775 384.418 27.29 385.648 26.12C 386.878 24.92 388.528 24.32 390.598 24.32C 391.738 24.32 393.283 24.515 395.233 24.905L 395.233 22.43C 395.233 21.14 394.933 20.21 394.333 19.64C 393.763 19.07 392.863 18.785 391.633 18.785C 390.193 18.785 388.168 19.01 385.558 19.46L 385.558 16.175C 388.378 15.725 390.403 15.5 391.633 15.5ZM 391.543 27.29C 390.283 27.29 389.323 27.62 388.663 28.28C 388.003 28.94 387.673 29.87 387.673 31.07L 387.673 31.565C 387.673 32.675 387.928 33.545 388.438 34.175C 388.948 34.805 389.593 35.12 390.373 35.12C 391.183 35.12 392.008 34.775 392.848 34.085C 393.718 33.365 394.513 32.36 395.233 31.07L 395.233 27.605C 394.093 27.395 392.863 27.29 391.543 27.29ZM 414.728 15.5C 415.148 15.5 415.478 15.53 415.718 15.59L 415.718 19.91C 415.268 19.82 414.683 19.775 413.963 19.775C 411.863 19.775 410.198 20.825 408.968 22.925L 408.968 38L 405.143 38L 405.143 16.04L 408.743 16.04L 408.743 19.325C 409.553 18.095 410.453 17.15 411.443 16.49C 412.463 15.83 413.558 15.5 414.728 15.5ZM 425.332 16.04L 431.182 16.04L 431.182 19.19L 425.332 19.19L 425.332 32.06C 425.332 33.2 425.557 34.025 426.007 34.535C 426.487 35.015 427.222 35.255 428.212 35.255C 429.472 35.255 430.702 35.105 431.902 34.805L 431.992 38C 430.672 38.36 429.472 38.54 428.392 38.54C 425.992 38.54 424.237 38.015 423.127 36.965C 422.047 35.885 421.507 34.145 421.507 31.745L 421.507 19.19L 418.357 19.19L 418.357 16.04L 421.507 16.04L 422.227 10.19L 425.332 10.19L 425.332 16.04ZM 443.237 15.5C 445.757 15.5 447.677 16.19 448.997 17.57C 450.317 18.95 450.977 20.945 450.977 23.555L 450.977 28.19L 439.412 28.19L 439.412 30.845C 439.412 32.375 439.772 33.485 440.492 34.175C 441.242 34.835 442.412 35.165 444.002 35.165C 445.562 35.165 447.512 34.925 449.852 34.445L 449.942 37.775C 447.152 38.285 445.157 38.54 443.957 38.54C 440.987 38.54 438.842 37.895 437.522 36.605C 436.232 35.315 435.587 33.32 435.587 30.62L 435.587 23.555C 435.587 20.945 436.217 18.95 437.477 17.57C 438.767 16.19 440.687 15.5 443.237 15.5ZM 443.237 18.695C 442.067 18.695 441.137 19.07 440.447 19.82C 439.757 20.54 439.412 21.59 439.412 22.97L 439.412 25.13L 447.152 25.13L 447.152 23.105C 447.152 21.665 446.792 20.57 446.072 19.82C 445.382 19.07 444.437 18.695 443.237 18.695ZM 471.284 38L 467.639 38L 467.639 34.445C 465.839 37.175 463.784 38.54 461.474 38.54C 459.614 38.54 458.189 37.91 457.199 36.65C 456.209 35.36 455.714 33.485 455.714 31.025L 455.714 23.015C 455.714 20.645 456.254 18.8 457.334 17.48C 458.444 16.16 460.019 15.5 462.059 15.5C 462.929 15.5 463.844 15.725 464.804 16.175C 465.764 16.595 466.649 17.12 467.459 17.75L 467.459 7.265L 471.284 7.265L 471.284 38ZM 462.914 18.92C 461.834 18.92 460.994 19.31 460.394 20.09C 459.824 20.84 459.539 21.995 459.539 23.555L 459.539 30.53C 459.539 33.59 460.484 35.12 462.374 35.12C 463.274 35.12 464.159 34.775 465.029 34.085C 465.929 33.365 466.739 32.36 467.459 31.07L 467.459 21.17C 466.829 20.51 466.079 19.97 465.209 19.55C 464.369 19.13 463.604 18.92 462.914 18.92ZM 512.111 16.04L 507.026 38L 502.211 38L 497.756 19.37L 493.256 38L 488.441 38L 483.401 16.04L 487.451 16.04L 491.006 34.625L 495.281 16.04L 500.231 16.04L 504.461 34.625L 508.061 16.04L 512.111 16.04ZM 519.974 16.04L 519.974 38L 516.149 38L 516.149 16.04L 519.974 16.04ZM 518.039 7.175C 518.849 7.175 519.464 7.355 519.884 7.715C 520.334 8.075 520.559 8.585 520.559 9.245L 520.559 10.55C 520.559 11.21 520.334 11.72 519.884 12.08C 519.464 12.41 518.849 12.575 518.039 12.575C 517.259 12.575 516.644 12.41 516.194 12.08C 515.774 11.72 515.564 11.21 515.564 10.55L 515.564 9.245C 515.564 8.585 515.774 8.075 516.194 7.715C 516.644 7.355 517.259 7.175 518.039 7.175ZM 530.756 16.04L 536.606 16.04L 536.606 19.19L 530.756 19.19L 530.756 32.06C 530.756 33.2 530.981 34.025 531.431 34.535C 531.911 35.015 532.646 35.255 533.636 35.255C 534.896 35.255 536.126 35.105 537.326 34.805L 537.416 38C 536.096 38.36 534.896 38.54 533.816 38.54C 531.416 38.54 529.661 38.015 528.551 36.965C 527.471 35.885 526.931 34.145 526.931 31.745L 526.931 19.19L 523.781 19.19L 523.781 16.04L 526.931 16.04L 527.651 10.19L 530.756 10.19L 530.756 16.04ZM 545.287 18.965C 546.937 16.655 548.857 15.5 551.047 15.5C 552.967 15.5 554.437 16.16 555.457 17.48C 556.507 18.77 557.032 20.615 557.032 23.015L 557.032 38L 553.207 38L 553.207 23.555C 553.207 20.555 552.232 19.055 550.282 19.055C 549.412 19.055 548.527 19.385 547.627 20.045C 546.727 20.705 545.947 21.605 545.287 22.745L 545.287 38L 541.462 38L 541.462 7.265L 545.287 7.265L 545.287 18.965ZM 592.633 38L 592.408 13.79L 586.153 34.94L 581.428 34.94L 575.173 13.79L 574.947 38L 571.212 38L 571.482 8.525L 577.153 8.525L 583.812 31.52L 590.428 8.525L 596.097 8.525L 596.367 38L 592.633 38ZM 609.382 15.5C 611.962 15.5 613.837 16.085 615.007 17.255C 616.207 18.395 616.807 20.225 616.807 22.745L 616.807 38L 613.162 38L 613.162 34.49C 611.422 37.19 609.457 38.54 607.267 38.54C 605.527 38.54 604.132 37.94 603.082 36.74C 602.062 35.54 601.552 33.905 601.552 31.835L 601.552 30.575C 601.552 28.775 602.167 27.29 603.397 26.12C 604.627 24.92 606.277 24.32 608.347 24.32C 609.487 24.32 611.032 24.515 612.982 24.905L 612.982 22.43C 612.982 21.14 612.682 20.21 612.082 19.64C 611.512 19.07 610.612 18.785 609.382 18.785C 607.942 18.785 605.917 19.01 603.307 19.46L 603.307 16.175C 606.127 15.725 608.152 15.5 609.382 15.5ZM 609.292 27.29C 608.032 27.29 607.072 27.62 606.412 28.28C 605.752 28.94 605.422 29.87 605.422 31.07L 605.422 31.565C 605.422 32.675 605.677 33.545 606.187 34.175C 606.697 34.805 607.342 35.12 608.122 35.12C 608.932 35.12 609.757 34.775 610.597 34.085C 611.467 33.365 612.262 32.36 612.982 31.07L 612.982 27.605C 611.842 27.395 610.612 27.29 609.292 27.29ZM 632.477 15.5C 634.397 15.5 635.867 16.16 636.887 17.48C 637.937 18.77 638.462 20.615 638.462 23.015L 638.462 38L 634.637 38L 634.637 23.555C 634.637 20.555 633.662 19.055 631.712 19.055C 630.842 19.055 629.957 19.385 629.057 20.045C 628.157 20.705 627.377 21.605 626.717 22.745L 626.717 38L 622.892 38L 622.892 16.04L 626.492 16.04L 626.492 19.325C 627.302 18.095 628.202 17.15 629.192 16.49C 630.212 15.83 631.307 15.5 632.477 15.5ZM 651.977 15.5C 653.297 15.5 654.497 15.695 655.577 16.085L 662.597 15.995L 662.597 19.37L 658.907 19.28C 659.417 20.36 659.672 21.485 659.672 22.655L 659.672 23.645C 659.672 25.835 658.997 27.605 657.647 28.955C 656.297 30.275 654.407 30.935 651.977 30.935C 650.417 30.935 649.142 30.785 648.152 30.485C 647.492 31.025 647.162 31.64 647.162 32.33L 647.162 32.6C 647.162 33.08 647.312 33.44 647.612 33.68C 647.912 33.89 648.497 34.025 649.367 34.085L 656.072 34.58C 657.452 34.7 658.562 35.225 659.402 36.155C 660.272 37.055 660.707 38.195 660.707 39.575L 660.707 41.24C 660.707 42.53 660.452 43.58 659.942 44.39C 659.432 45.2 658.487 45.815 657.107 46.235C 655.757 46.655 653.807 46.865 651.257 46.865C 650.297 46.865 649.157 46.76 647.837 46.55C 646.547 46.34 645.317 46.07 644.147 45.74L 644.282 42.185C 647.072 43.115 649.442 43.58 651.392 43.58C 653.012 43.58 654.212 43.475 654.992 43.265C 655.802 43.085 656.327 42.8 656.567 42.41C 656.837 42.02 656.972 41.435 656.972 40.655L 656.972 40.295C 656.972 39.605 656.777 39.065 656.387 38.675C 656.027 38.285 655.502 38.075 654.812 38.045L 648.062 37.595C 646.622 37.505 645.527 37.1 644.777 36.38C 644.027 35.66 643.652 34.685 643.652 33.455L 643.652 32.555C 643.652 31.895 643.817 31.25 644.147 30.62C 644.507 29.99 645.017 29.435 645.677 28.955C 645.167 28.385 644.792 27.665 644.552 26.795C 644.342 25.895 644.237 24.8 644.237 23.51L 644.237 22.52C 644.237 20.39 644.897 18.695 646.217 17.435C 647.537 16.145 649.457 15.5 651.977 15.5ZM 651.977 18.695C 650.717 18.695 649.742 19.025 649.052 19.685C 648.392 20.315 648.062 21.23 648.062 22.43L 648.062 23.915C 648.062 25.025 648.152 25.85 648.332 26.39C 648.542 26.9 648.902 27.26 649.412 27.47C 649.922 27.65 650.687 27.74 651.707 27.74C 653.087 27.74 654.122 27.41 654.812 26.75C 655.502 26.09 655.847 25.145 655.847 23.915L 655.847 22.565C 655.847 21.305 655.667 20.21 655.307 19.28C 654.947 19.13 654.452 18.995 653.822 18.875C 653.222 18.755 652.607 18.695 651.977 18.695ZM 675.763 15.5C 676.183 15.5 676.513 15.53 676.753 15.59L 676.753 19.91C 676.303 19.82 675.718 19.775 674.998 19.775C 672.898 19.775 671.233 20.825 670.003 22.925L 670.003 38L 666.178 38L 666.178 16.04L 669.778 16.04L 669.778 19.325C 670.588 18.095 671.488 17.15 672.478 16.49C 673.498 15.83 674.593 15.5 675.763 15.5ZM 687.974 15.5C 690.644 15.5 692.624 16.22 693.914 17.66C 695.234 19.07 695.894 21.08 695.894 23.69L 695.894 30.35C 695.894 32.96 695.234 34.985 693.914 36.425C 692.624 37.835 690.644 38.54 687.974 38.54C 685.304 38.54 683.309 37.835 681.989 36.425C 680.699 34.985 680.054 32.96 680.054 30.35L 680.054 23.69C 680.054 21.08 680.699 19.07 681.989 17.66C 683.309 16.22 685.304 15.5 687.974 15.5ZM 687.974 18.695C 686.684 18.695 685.679 19.1 684.959 19.91C 684.239 20.72 683.879 21.875 683.879 23.375L 683.879 30.665C 683.879 32.165 684.239 33.32 684.959 34.13C 685.679 34.94 686.684 35.345 687.974 35.345C 689.264 35.345 690.269 34.94 690.989 34.13C 691.709 33.32 692.069 32.165 692.069 30.665L 692.069 23.33C 692.069 21.83 691.709 20.69 690.989 19.91C 690.269 19.1 689.264 18.695 687.974 18.695ZM 717.438 16.04L 710.643 38L 705.648 38L 698.898 16.04L 702.948 16.04L 708.168 35.21L 713.388 16.04L 717.438 16.04ZM 728.09 15.5C 730.61 15.5 732.53 16.19 733.85 17.57C 735.17 18.95 735.83 20.945 735.83 23.555L 735.83 28.19L 724.265 28.19L 724.265 30.845C 724.265 32.375 724.625 33.485 725.345 34.175C 726.095 34.835 727.265 35.165 728.855 35.165C 730.415 35.165 732.365 34.925 734.705 34.445L 734.795 37.775C 732.005 38.285 730.01 38.54 728.81 38.54C 725.84 38.54 723.695 37.895 722.375 36.605C 721.085 35.315 720.44 33.32 720.44 30.62L 720.44 23.555C 720.44 20.945 721.07 18.95 722.33 17.57C 723.62 16.19 725.54 15.5 728.09 15.5ZM 728.09 18.695C 726.92 18.695 725.99 19.07 725.3 19.82C 724.61 20.54 724.265 21.59 724.265 22.97L 724.265 25.13L 732.005 25.13L 732.005 23.105C 732.005 21.665 731.645 20.57 730.925 19.82C 730.235 19.07 729.29 18.695 728.09 18.695ZM 742.862 33.05C 744.572 33.05 745.427 33.755 745.427 35.165L 745.427 36.47C 745.427 37.13 745.202 37.64 744.752 38C 744.332 38.36 743.702 38.54 742.862 38.54C 742.052 38.54 741.422 38.36 740.972 38C 740.552 37.64 740.342 37.13 740.342 36.47L 740.342 35.165C 740.342 34.475 740.552 33.95 740.972 33.59C 741.422 33.23 742.052 33.05 742.862 33.05Z"/>
<path id="path15_fill" d="M 11.1168 7.985C 12.7368 7.985 14.8518 8.225 17.4618 8.705L 17.3718 12.08C 14.9118 11.6 12.8268 11.36 11.1168 11.36C 9.37682 11.36 8.11682 11.705 7.33682 12.395C 6.58682 13.085 6.21182 14.135 6.21182 15.545L 6.21182 16.715C 6.21182 17.465 6.30182 18.065 6.48182 18.515C 6.69182 18.935 7.05182 19.31 7.56182 19.64C 8.07182 19.94 8.83682 20.255 9.85682 20.585L 14.0418 21.98C 16.0518 22.67 17.4618 23.585 18.2718 24.725C 19.1118 25.865 19.5318 27.53 19.5318 29.72L 19.5318 30.575C 19.5318 33.245 18.7518 35.24 17.1918 36.56C 15.6618 37.88 13.1418 38.54 9.63182 38.54C 7.92182 38.54 5.73182 38.24 3.06182 37.64L 3.15182 34.175C 5.64182 34.775 7.77182 35.075 9.54182 35.075C 11.7918 35.075 13.3818 34.745 14.3118 34.085C 15.2418 33.395 15.7068 32.33 15.7068 30.89L 15.7068 29.405C 15.7068 28.355 15.4668 27.56 14.9868 27.02C 14.5368 26.45 13.7268 25.97 12.5568 25.58L 7.92182 24.05C 5.85182 23.36 4.41182 22.475 3.60182 21.395C 2.79182 20.285 2.38682 18.62 2.38682 16.4L 2.38682 15.905C 2.38682 13.295 3.07682 11.33 4.45682 10.01C 5.86682 8.66 8.08682 7.985 11.1168 7.985ZM 28.079 16.04L 28.079 38L 24.254 38L 24.254 16.04L 28.079 16.04ZM 26.144 7.175C 26.954 7.175 27.569 7.355 27.989 7.715C 28.439 8.075 28.664 8.585 28.664 9.245L 28.664 10.55C 28.664 11.21 28.439 11.72 27.989 12.08C 27.569 12.41 26.954 12.575 26.144 12.575C 25.364 12.575 24.749 12.41 24.299 12.08C 23.879 11.72 23.669 11.21 23.669 10.55L 23.669 9.245C 23.669 8.585 23.879 8.075 24.299 7.715C 24.749 7.355 25.364 7.175 26.144 7.175ZM 41.5614 15.5C 42.8814 15.5 44.0814 15.695 45.1614 16.085L 52.1814 15.995L 52.1814 19.37L 48.4914 19.28C 49.0014 20.36 49.2564 21.485 49.2564 22.655L 49.2564 23.645C 49.2564 25.835 48.5814 27.605 47.2314 28.955C 45.8814 30.275 43.9914 30.935 41.5614 30.935C 40.0014 30.935 38.7264 30.785 37.7364 30.485C 37.0764 31.025 36.7464 31.64 36.7464 32.33L 36.7464 32.6C 36.7464 33.08 36.8964 33.44 37.1964 33.68C 37.4964 33.89 38.0814 34.025 38.9514 34.085L 45.6564 34.58C 47.0364 34.7 48.1464 35.225 48.9864 36.155C 49.8564 37.055 50.2914 38.195 50.2914 39.575L 50.2914 41.24C 50.2914 42.53 50.0364 43.58 49.5264 44.39C 49.0164 45.2 48.0714 45.815 46.6914 46.235C 45.3414 46.655 43.3914 46.865 40.8414 46.865C 39.8814 46.865 38.7414 46.76 37.4214 46.55C 36.1314 46.34 34.9014 46.07 33.7314 45.74L 33.8664 42.185C 36.6564 43.115 39.0264 43.58 40.9764 43.58C 42.5964 43.58 43.7964 43.475 44.5764 43.265C 45.3864 43.085 45.9114 42.8 46.1514 42.41C 46.4214 42.02 46.5564 41.435 46.5564 40.655L 46.5564 40.295C 46.5564 39.605 46.3614 39.065 45.9714 38.675C 45.6114 38.285 45.0864 38.075 44.3964 38.045L 37.6464 37.595C 36.2064 37.505 35.1114 37.1 34.3614 36.38C 33.6114 35.66 33.2364 34.685 33.2364 33.455L 33.2364 32.555C 33.2364 31.895 33.4014 31.25 33.7314 30.62C 34.0914 29.99 34.6014 29.435 35.2614 28.955C 34.7514 28.385 34.3764 27.665 34.1364 26.795C 33.9264 25.895 33.8214 24.8 33.8214 23.51L 33.8214 22.52C 33.8214 20.39 34.4814 18.695 35.8014 17.435C 37.1214 16.145 39.0414 15.5 41.5614 15.5ZM 41.5614 18.695C 40.3014 18.695 39.3264 19.025 38.6364 19.685C 37.9764 20.315 37.6464 21.23 37.6464 22.43L 37.6464 23.915C 37.6464 25.025 37.7364 25.85 37.9164 26.39C 38.1264 26.9 38.4864 27.26 38.9964 27.47C 39.5064 27.65 40.2714 27.74 41.2914 27.74C 42.6714 27.74 43.7064 27.41 44.3964 26.75C 45.0864 26.09 45.4314 25.145 45.4314 23.915L 45.4314 22.565C 45.4314 21.305 45.2514 20.21 44.8914 19.28C 44.5314 19.13 44.0364 18.995 43.4064 18.875C 42.8064 18.755 42.1914 18.695 41.5614 18.695ZM 65.3478 15.5C 67.2678 15.5 68.7378 16.16 69.7578 17.48C 70.8078 18.77 71.3328 20.615 71.3328 23.015L 71.3328 38L 67.5078 38L 67.5078 23.555C 67.5078 20.555 66.5328 19.055 64.5828 19.055C 63.7128 19.055 62.8278 19.385 61.9278 20.045C 61.0278 20.705 60.2478 21.605 59.5878 22.745L 59.5878 38L 55.7628 38L 55.7628 16.04L 59.3628 16.04L 59.3628 19.325C 60.1728 18.095 61.0728 17.15 62.0628 16.49C 63.0828 15.83 64.1778 15.5 65.3478 15.5ZM 105.128 28.685C 105.128 31.865 104.318 34.31 102.698 36.02C 101.078 37.7 98.6935 38.54 95.5435 38.54C 92.4235 38.54 90.0385 37.715 88.3885 36.065C 86.7685 34.415 85.9585 31.985 85.9585 28.775L 85.9585 8.525L 89.7835 8.525L 89.7835 29.27C 89.7835 31.19 90.2785 32.66 91.2685 33.68C 92.2885 34.67 93.7135 35.165 95.5435 35.165C 97.4035 35.165 98.8285 34.67 99.8185 33.68C 100.808 32.66 101.303 31.19 101.303 29.27L 101.303 8.525L 105.128 8.525L 105.128 28.685ZM 121.201 15.5C 123.091 15.5 124.561 16.145 125.611 17.435C 126.661 18.725 127.186 20.585 127.186 23.015L 127.186 31.025C 127.186 33.365 126.571 35.21 125.341 36.56C 124.141 37.88 122.506 38.54 120.436 38.54C 119.656 38.54 118.816 38.375 117.916 38.045C 117.046 37.745 116.236 37.385 115.486 36.965L 115.486 46.325L 111.661 46.325L 111.661 16.04L 115.261 16.04L 115.261 19.235C 116.911 16.745 118.891 15.5 121.201 15.5ZM 120.436 18.92C 119.566 18.92 118.681 19.25 117.781 19.91C 116.911 20.54 116.146 21.41 115.486 22.52L 115.486 33.545C 116.116 34.055 116.806 34.46 117.556 34.76C 118.336 35.03 119.041 35.165 119.671 35.165C 122.131 35.165 123.361 33.605 123.361 30.485L 123.361 23.555C 123.361 20.465 122.386 18.92 120.436 18.92ZM 160.68 8.525L 160.68 38L 156.855 38L 156.855 24.5L 145.155 24.5L 145.155 38L 141.33 38L 141.33 8.525L 145.155 8.525L 145.155 21.08L 156.855 21.08L 156.855 8.525L 160.68 8.525ZM 174.408 15.5C 176.928 15.5 178.848 16.19 180.168 17.57C 181.488 18.95 182.148 20.945 182.148 23.555L 182.148 28.19L 170.583 28.19L 170.583 30.845C 170.583 32.375 170.943 33.485 171.663 34.175C 172.413 34.835 173.583 35.165 175.173 35.165C 176.733 35.165 178.683 34.925 181.023 34.445L 181.113 37.775C 178.323 38.285 176.328 38.54 175.128 38.54C 172.158 38.54 170.013 37.895 168.693 36.605C 167.403 35.315 166.758 33.32 166.758 30.62L 166.758 23.555C 166.758 20.945 167.388 18.95 168.648 17.57C 169.938 16.19 171.858 15.5 174.408 15.5ZM 174.408 18.695C 173.238 18.695 172.308 19.07 171.618 19.82C 170.928 20.54 170.583 21.59 170.583 22.97L 170.583 25.13L 178.323 25.13L 178.323 23.105C 178.323 21.665 177.963 20.57 177.243 19.82C 176.553 19.07 175.608 18.695 174.408 18.695ZM 196.92 15.5C 197.34 15.5 197.67 15.53 197.91 15.59L 197.91 19.91C 197.46 19.82 196.875 19.775 196.155 19.775C 194.055 19.775 192.39 20.825 191.16 22.925L 191.16 38L 187.335 38L 187.335 16.04L 190.935 16.04L 190.935 19.325C 191.745 18.095 192.645 17.15 193.635 16.49C 194.655 15.83 195.75 15.5 196.92 15.5ZM 208.861 15.5C 211.381 15.5 213.301 16.19 214.621 17.57C 215.941 18.95 216.601 20.945 216.601 23.555L 216.601 28.19L 205.036 28.19L 205.036 30.845C 205.036 32.375 205.396 33.485 206.116 34.175C 206.866 34.835 208.036 35.165 209.626 35.165C 211.186 35.165 213.136 34.925 215.476 34.445L 215.566 37.775C 212.776 38.285 210.781 38.54 209.581 38.54C 206.611 38.54 204.466 37.895 203.146 36.605C 201.856 35.315 201.211 33.32 201.211 30.62L 201.211 23.555C 201.211 20.945 201.841 18.95 203.101 17.57C 204.391 16.19 206.311 15.5 208.861 15.5ZM 208.861 18.695C 207.691 18.695 206.761 19.07 206.071 19.82C 205.381 20.54 205.036 21.59 205.036 22.97L 205.036 25.13L 212.776 25.13L 212.776 23.105C 212.776 21.665 212.416 20.57 211.696 19.82C 211.006 19.07 210.061 18.695 208.861 18.695Z"/>
<path id="path16_fill" d="M 0 15C 0 6.71573 6.71573 0 15 0L 404 0C 412.284 0 419 6.71573 419 15L 419 123C 419 131.284 412.284 138 404 138L 15 138C 6.71572 138 0 131.284 0 123L 0 15Z"/>
<path id="path17_stroke_2x" d="M 15 5L 404 5L 404 -5L 15 -5L 15 5ZM 414 15L 414 123L 424 123L 424 15L 414 15ZM 404 133L 15 133L 15 143L 404 143L 404 133ZM 5 123L 5 15L -5 15L -5 123L 5 123ZM 15 133C 9.47715 133 5 128.523 5 123L -5 123C -5 134.046 3.95429 143 15 143L 15 133ZM 414 123C 414 128.523 409.523 133 404 133L 404 143C 415.046 143 424 134.046 424 123L 414 123ZM 404 5C 409.523 5 414 9.47715 414 15L 424 15C 424 3.95431 415.046 -5 404 -5L 404 5ZM 15 -5C 3.95431 -5 -5 3.9543 -5 15L 5 15C 5 9.47715 9.47715 5 15 5L 15 -5Z"/>
</defs>
</svg>
